STARTFONT 2.1
COMMENT $Xorg: $
COMMENT ISO10646-1 extension by Markus Kuhn <mkuhn@acm.org>, 2001-03-20
COMMENT  (c) Copyright Bigelow & Holmes 1986, 1985. Lucida is a registered
COMMENT  trademark of Bigelow & Holmes. See LEGAL NOTICE file for terms 
COMMENT  of the license. 
FONT -B&H-Lucida-Bold-I-Normal-Sans-24-240-75-75-P-151-ISO10646-1
SIZE 24 72 72
FONTBOUNDINGBOX 50 36 -17 -10
STARTPROPERTIES 22
COMMENT Begin LogicalFontDescription
FONTNAME_REGISTRY ""
FOUNDRY "B&H"
FAMILY_NAME "Lucida"
WEIGHT_NAME "Bold"
SLANT "I"
SETWIDTH_NAME "Normal"
ADD_STYLE_NAME "Sans"
PIXEL_SIZE 24
POINT_SIZE 240
RESOLUTION_X 75
RESOLUTION_Y 75
SPACING "P"
AVERAGE_WIDTH 151
CHARSET_REGISTRY "ISO10646"
CHARSET_ENCODING "1"
COMMENT END LogicalFontDescription
FONT_ASCENT 22
FONT_DESCENT 5
DEFAULT_CHAR 0
COPYRIGHT "Copyright Bigelow & Holmes 1986, 1985."
FACE_NAME "Lucida Sans Bold Italic"
X_HEIGHT 13
CAP_HEIGHT 17
ENDPROPERTIES
CHARS 723
STARTCHAR char0
ENCODING 0
SWIDTH 813 0
DWIDTH 20 0
BBX 19 17 2 0
BITMAP
AAAAA0
000000
800020
000000
800020
000000
800020
000000
800020
000000
800020
000000
800020
000000
800020
000000
AAAAA0
ENDCHAR
STARTCHAR space
ENCODING 32
SWIDTH 343 0
DWIDTH 8 0
BBX 1 1 0 0
BITMAP
00
ENDCHAR
STARTCHAR exclam
ENCODING 33
SWIDTH 343 0
DWIDTH 8 0
BBX 8 17 2 0
BITMAP
1F
1F
1F
1E
1E
1E
3C
3C
3C
38
38
38
00
00
78
F8
F8
ENDCHAR
STARTCHAR quotedbl
ENCODING 34
SWIDTH 530 0
DWIDTH 13 0
BBX 11 8 4 10
BITMAP
FBE0
F1E0
F1E0
F1E0
71C0
71C0
71C0
71C0
ENDCHAR
STARTCHAR numbersign
ENCODING 35
SWIDTH 687 0
DWIDTH 16 0
BBX 15 17 2 0
BITMAP
00CE
01CC
019C
0318
3FFE
7FFE
0670
0C60
0C60
1CC0
FFFC
FFF8
3180
3300
6300
6700
C600
ENDCHAR
STARTCHAR dollar
ENCODING 36
SWIDTH 687 0
DWIDTH 16 0
BBX 14 23 3 -3
BITMAP
00E0
00E0
00E0
07FC
0FFC
1FFC
1EC8
1EC0
1E80
1F80
0FC0
07E0
03F0
03F0
02F8
0670
46F0
FFF0
FFE0
FF80
0E00
0E00
0E00
ENDCHAR
STARTCHAR percent
ENCODING 37
SWIDTH 908 0
DWIDTH 22 0
BBX 20 17 3 0
BITMAP
1F00F0
7F81C0
7F8380
F38780
F38F00
FF9E00
FF3C00
3C7800
00F3C0
01EFE0
03DFF0
079EF0
0F1CF0
1E1CF0
1C1FE0
381FC0
F00F80
ENDCHAR
STARTCHAR ampersand
ENCODING 38
SWIDTH 816 0
DWIDTH 20 0
BBX 18 17 2 0
BITMAP
00F800
03FE00
07FE00
078E00
079E00
07FC00
07F000
0FE1C0
1DE3C0
79F380
70F380
F0FF00
F87E00
FC7C00
FFFC00
7FFE00
1F9F00
ENDCHAR
STARTCHAR quotesingle
ENCODING 39
SWIDTH 265 0
DWIDTH 6 0
BBX 5 8 4 10
BITMAP
F8
F8
F8
F0
70
70
70
70
ENDCHAR
STARTCHAR parenleft
ENCODING 40
SWIDTH 386 0
DWIDTH 9 0
BBX 10 23 2 -5
BITMAP
00C0
0180
0380
0700
0F00
1E00
3C00
3C00
7C00
7800
F800
F800
F800
F800
F000
F000
F000
7800
7800
7800
3C00
1800
0800
ENDCHAR
STARTCHAR parenright
ENCODING 41
SWIDTH 386 0
DWIDTH 9 0
BBX 10 23 1 -5
BITMAP
0800
0E00
0E00
0F00
0780
0780
0780
0780
0780
07C0
0780
0780
0F80
0F80
0F00
0F00
1E00
1E00
3C00
7800
F000
E000
8000
ENDCHAR
STARTCHAR asterisk
ENCODING 42
SWIDTH 464 0
DWIDTH 11 0
BBX 9 9 4 8
BITMAP
0E00
0C00
6D80
7380
E380
1400
F600
6700
2400
ENDCHAR
STARTCHAR plus
ENCODING 43
SWIDTH 687 0
DWIDTH 16 0
BBX 14 14 3 0
BITMAP
01C0
0180
0380
0380
0380
FFFC
FFFC
FFFC
0700
0700
0700
0600
0600
0E00
ENDCHAR
STARTCHAR comma
ENCODING 44
SWIDTH 343 0
DWIDTH 8 0
BBX 6 9 1 -4
BITMAP
7C
7C
7C
78
78
38
38
F0
E0
ENDCHAR
STARTCHAR hyphen
ENCODING 45
SWIDTH 289 0
DWIDTH 7 0
BBX 6 3 2 6
BITMAP
FC
FC
FC
ENDCHAR
STARTCHAR period
ENCODING 46
SWIDTH 343 0
DWIDTH 8 0
BBX 6 5 2 0
BITMAP
7C
7C
FC
F8
F8
ENDCHAR
STARTCHAR slash
ENCODING 47
SWIDTH 596 0
DWIDTH 14 0
BBX 18 22 0 -4
BITMAP
0003C0
000780
000700
000F00
001E00
001C00
003C00
007800
007000
00F000
00E000
01C000
03C000
038000
070000
0F0000
0E0000
1E0000
3C0000
380000
780000
F00000
ENDCHAR
STARTCHAR zero
ENCODING 48
SWIDTH 687 0
DWIDTH 16 0
BBX 15 17 2 0
BITMAP
01F0
07FC
0FFC
1F3E
3E1E
7C1E
7C1E
783E
F83E
F83E
F83E
F87C
F878
F8F8
7FF0
3FE0
1F80
ENDCHAR
STARTCHAR one
ENCODING 49
SWIDTH 687 0
DWIDTH 16 0
BBX 8 17 6 0
BITMAP
7F
7F
FE
1E
1E
3E
3E
3C
3C
3C
7C
7C
78
78
78
F8
F8
ENDCHAR
STARTCHAR two
ENCODING 50
SWIDTH 687 0
DWIDTH 16 0
BBX 15 17 2 0
BITMAP
07F0
0FFC
1FFE
107E
003E
003E
007C
00FC
01F0
07E0
0F80
1F00
3C00
7800
7FF8
FFF8
FFF8
ENDCHAR
STARTCHAR three
ENCODING 51
SWIDTH 687 0
DWIDTH 16 0
BBX 14 17 3 0
BITMAP
0FF0
1FF8
1FFC
107C
007C
0078
00F0
1FC0
1FE0
1FF0
01F8
00F8
00F8
C1F0
FFF0
FFE0
7F80
ENDCHAR
STARTCHAR four
ENCODING 52
SWIDTH 687 0
DWIDTH 16 0
BBX 15 17 1 0
BITMAP
003E
007E
00FC
01FC
03FC
07BC
0F7C
1E78
3C78
7878
7FFE
FFFE
FFFC
00F0
00F0
00F0
01E0
ENDCHAR
STARTCHAR five
ENCODING 53
SWIDTH 687 0
DWIDTH 16 0
BBX 15 17 3 0
BITMAP
0FFE
1FFE
1FFC
1C00
1800
1800
3F00
3FE0
3FF0
03F8
00F8
00F8
00F8
C1F8
FFF0
FFE0
FF80
ENDCHAR
STARTCHAR six
ENCODING 54
SWIDTH 687 0
DWIDTH 16 0
BBX 15 17 3 0
BITMAP
01FE
07FE
1FFE
1F06
3E00
7C00
7FE0
FFF8
FFF8
FC7C
F87C
F87C
F878
78F8
7FF0
3FE0
0F80
ENDCHAR
STARTCHAR seven
ENCODING 55
SWIDTH 687 0
DWIDTH 16 0
BBX 14 17 5 0
BITMAP
7FFC
7FFC
FFF8
0078
00F0
01E0
03C0
07C0
0F80
0F00
1E00
3E00
3C00
7C00
7800
F800
F800
ENDCHAR
STARTCHAR eight
ENCODING 56
SWIDTH 687 0
DWIDTH 16 0
BBX 15 17 2 0
BITMAP
01F8
07FC
0FFE
1E1E
1E1E
1E1C
1FF8
0FF0
1FF8
3DFC
787C
F03C
F03C
F87C
FFF8
7FF0
1FC0
ENDCHAR
STARTCHAR nine
ENCODING 57
SWIDTH 687 0
DWIDTH 16 0
BBX 15 17 2 0
BITMAP
03E0
0FF8
1FFC
3E3C
3C3E
7C3E
7C3E
7C7E
3FFE
3FFE
0FFC
007C
00F8
C1F0
FFF0
FFC0
FF00
ENDCHAR
STARTCHAR colon
ENCODING 58
SWIDTH 343 0
DWIDTH 8 0
BBX 7 13 2 0
BITMAP
3E
3E
3E
3C
3C
00
00
00
78
78
F8
F8
F8
ENDCHAR
STARTCHAR semicolon
ENCODING 59
SWIDTH 343 0
DWIDTH 8 0
BBX 8 17 1 -4
BITMAP
1F
1F
1F
1E
3E
00
00
00
3C
7C
7C
7C
7C
38
38
F0
E0
ENDCHAR
STARTCHAR less
ENCODING 60
SWIDTH 687 0
DWIDTH 16 0
BBX 15 14 3 0
BITMAP
0002
000E
003E
01FC
07F0
1F80
FE00
7C00
1F00
0FC0
03E0
00F8
0038
0010
ENDCHAR
STARTCHAR equal
ENCODING 61
SWIDTH 687 0
DWIDTH 16 0
BBX 15 9 2 2
BITMAP
3FFE
7FFE
7FFE
0000
0000
0000
FFFC
FFFC
FFF8
ENDCHAR
STARTCHAR greater
ENCODING 62
SWIDTH 687 0
DWIDTH 16 0
BBX 15 14 1 0
BITMAP
1000
3800
3E00
0F80
07E0
01F0
007C
00FE
03F0
1FC0
7F00
F800
E000
8000
ENDCHAR
STARTCHAR question
ENCODING 63
SWIDTH 539 0
DWIDTH 13 0
BBX 12 17 3 0
BITMAP
3FC0
7FE0
FFF0
C3F0
01F0
01E0
03C0
0780
0F00
1E00
3C00
7C00
0000
0000
7800
F800
F800
ENDCHAR
STARTCHAR at
ENCODING 64
SWIDTH 833 0
DWIDTH 20 0
BBX 19 17 2 0
BITMAP
00FC00
03FF00
0F0380
1C00C0
38FCE0
73FC60
671C60
C61860
CC3860
CC58C0
CFD9C0
CFBF80
C63E00
600000
382000
1FF000
07C000
ENDCHAR
STARTCHAR A
ENCODING 65
SWIDTH 771 0
DWIDTH 18 0
BBX 17 17 1 0
BITMAP
007C00
00FC00
00FC00
01FC00
01FE00
03FE00
039E00
079E00
071E00
0E1F00
0FFF00
1FFF00
3FFF00
380F00
780F80
700F80
F00780
ENDCHAR
STARTCHAR B
ENCODING 66
SWIDTH 660 0
DWIDTH 16 0
BBX 15 17 2 0
BITMAP
1FF8
1FFE
1FFE
1E3E
1E3E
3C7C
3FF8
3FF0
3FE0
3CF8
7C7C
787C
787C
787C
7FFC
FFF8
FFE0
ENDCHAR
STARTCHAR C
ENCODING 67
SWIDTH 737 0
DWIDTH 18 0
BBX 17 17 2 0
BITMAP
00FF00
03FF80
0FFF80
1F8100
3F0000
3E0000
7C0000
780000
F80000
F80000
F80000
F80000
FC0000
7E0600
7FFC00
3FFC00
0FF000
ENDCHAR
STARTCHAR D
ENCODING 68
SWIDTH 822 0
DWIDTH 20 0
BBX 19 17 2 0
BITMAP
1FFF00
1FFF80
1FFFC0
1F0FE0
1E03E0
3E03E0
3E03E0
3E03E0
3C03E0
3C03E0
7C07C0
7C0FC0
7C1F80
783F00
7FFE00
FFFC00
FFE000
ENDCHAR
STARTCHAR E
ENCODING 69
SWIDTH 642 0
DWIDTH 15 0
BBX 15 17 2 0
BITMAP
1FFE
1FFE
1FFE
1E00
1E00
3E00
3E00
3FF0
3FF0
3FF0
7C00
7C00
7800
7800
7FF8
FFF0
FFF0
ENDCHAR
STARTCHAR F
ENCODING 70
SWIDTH 614 0
DWIDTH 15 0
BBX 15 17 2 0
BITMAP
1FFE
1FFE
1FFC
1E00
1E00
3E00
3E00
3FF0
3FF0
3FF0
7C00
7C00
7800
7800
7800
F800
F800
ENDCHAR
STARTCHAR G
ENCODING 71
SWIDTH 755 0
DWIDTH 18 0
BBX 17 17 2 0
BITMAP
00FF00
03FF80
0FFF80
1F8100
3E0000
3E0000
7C0000
780000
F81E00
F81E00
F81E00
F81E00
FC3E00
7E3C00
7FFC00
3FFC00
0FF800
ENDCHAR
STARTCHAR H
ENCODING 72
SWIDTH 813 0
DWIDTH 20 0
BBX 19 17 2 0
BITMAP
1F03E0
1F03E0
1F03C0
1E03C0
1E07C0
3E07C0
3E07C0
3FFF80
3FFF80
3FFF80
7C0F80
7C0F80
7C0F00
780F00
781F00
F81F00
F81F00
ENDCHAR
STARTCHAR I
ENCODING 73
SWIDTH 361 0
DWIDTH 9 0
BBX 8 17 2 0
BITMAP
1F
1F
1E
1E
1E
3E
3E
3C
3C
3C
7C
7C
78
78
78
F8
F8
ENDCHAR
STARTCHAR J
ENCODING 74
SWIDTH 502 0
DWIDTH 12 0
BBX 14 21 0 -4
BITMAP
007C
007C
0078
0078
00F8
00F8
00F8
00F0
00F0
01F0
01F0
01F0
01E0
01E0
03E0
03E0
03E0
47C0
FFC0
FF80
FE00
ENDCHAR
STARTCHAR K
ENCODING 75
SWIDTH 753 0
DWIDTH 18 0
BBX 16 17 2 0
BITMAP
1F0F
1F1E
1E3C
1E38
3E78
3EF0
3FE0
3DC0
3FE0
7FE0
7DF0
7DF0
78F8
78FC
F87C
F83E
F83F
ENDCHAR
STARTCHAR L
ENCODING 76
SWIDTH 623 0
DWIDTH 15 0
BBX 13 17 2 0
BITMAP
1F00
1F00
1E00
1E00
1E00
3E00
3E00
3C00
3C00
3C00
7C00
7C00
7800
7800
7FF8
FFF8
FFF8
ENDCHAR
STARTCHAR M
ENCODING 77
SWIDTH 940 0
DWIDTH 23 0
BBX 22 17 2 0
BITMAP
1F807C
1FC0FC
1FC1F8
1FC1F8
1FC3F8
3FC3F8
3FC7F8
3BCEF0
3BCEF0
39DCF0
79FCF0
79F9F0
71F9E0
71F1E0
71E1E0
F1E1E0
F003E0
ENDCHAR
STARTCHAR N
ENCODING 78
SWIDTH 789 0
DWIDTH 19 0
BBX 18 17 2 0
BITMAP
1E03C0
1F03C0
1F03C0
1F8380
3F8380
3FC780
3FC780
3BE780
39E700
79F700
78FF00
78FF00
707F00
707E00
F03E00
F03E00
F01E00
ENDCHAR
STARTCHAR O
ENCODING 79
SWIDTH 855 0
DWIDTH 21 0
BBX 19 17 2 0
BITMAP
00FE00
03FF80
0FFFC0
1F87E0
3E03E0
3C03E0
7C03E0
7803E0
F803E0
F803E0
F807C0
F807C0
F80F80
7C3F00
7FFE00
3FF800
0FE000
ENDCHAR
STARTCHAR P
ENCODING 80
SWIDTH 645 0
DWIDTH 15 0
BBX 15 17 2 0
BITMAP
1FF8
1FFE
1FFE
1E3E
3E3E
3E3E
3C3C
3C7C
3FF8
7FF0
7FC0
7800
7800
7800
F800
F800
F000
ENDCHAR
STARTCHAR Q
ENCODING 81
SWIDTH 855 0
DWIDTH 21 0
BBX 20 21 2 -4
BITMAP
00FE00
03FF80
0FFFC0
1F87E0
3E03E0
3C03E0
7C03E0
7803E0
F803E0
F803E0
F807C0
F807C0
F80F80
7C3F00
7FFE00
3FF800
0FF800
003F80
001FF0
0007C0
000180
ENDCHAR
STARTCHAR R
ENCODING 82
SWIDTH 708 0
DWIDTH 17 0
BBX 16 17 2 0
BITMAP
1FFC
1FFF
1FFF
1E1F
1E1F
3E1E
3E3E
3CFC
3FF8
3FF0
7CF0
7CF0
78F8
7878
787C
F87C
F83E
ENDCHAR
STARTCHAR S
ENCODING 83
SWIDTH 639 0
DWIDTH 15 0
BBX 14 17 2 0
BITMAP
03F8
0FFC
1FFC
1E0C
3E00
3E00
3F00
1FC0
0FE0
07F0
01F8
00F8
00F8
41F0
FFF0
FFE0
FF00
ENDCHAR
STARTCHAR T
ENCODING 84
SWIDTH 747 0
DWIDTH 18 0
BBX 18 17 3 0
BITMAP
FFFFC0
FFFFC0
FFFFC0
03E000
03E000
03C000
03C000
07C000
07C000
07C000
078000
078000
0F8000
0F8000
0F8000
0F0000
1F0000
ENDCHAR
STARTCHAR U
ENCODING 85
SWIDTH 759 0
DWIDTH 18 0
BBX 17 17 3 0
BITMAP
3E0780
3E0780
3C0F80
3C0F00
7C0F00
7C0F00
7C0F00
781F00
781E00
F81E00
F81E00
F81E00
F83C00
FC7C00
7FF800
3FF000
0FC000
ENDCHAR
STARTCHAR V
ENCODING 86
SWIDTH 765 0
DWIDTH 18 0
BBX 17 17 4 0
BITMAP
F80780
F80700
F80F00
780E00
781E00
7C1C00
7C3800
7C7800
7C7000
3CF000
3CE000
3FE000
3FC000
3FC000
1F8000
1F0000
1F0000
ENDCHAR
STARTCHAR W
ENCODING 87
SWIDTH 991 0
DWIDTH 24 0
BBX 22 17 4 0
BITMAP
F0781C
F07838
F07838
F0F870
F0F870
F1F8E0
F9F8E0
FBF9C0
FBF9C0
FB7B80
7F7B80
7F7F80
7E7F00
7E7F00
7C7E00
7C7E00
787C00
ENDCHAR
STARTCHAR X
ENCODING 88
SWIDTH 696 0
DWIDTH 17 0
BBX 19 17 0 0
BITMAP
0F81E0
0F83C0
07C780
07CF00
03FE00
03FC00
03F800
01F800
01F000
03F800
03F800
077800
0F7C00
1E7C00
3C3E00
783E00
F03F00
ENDCHAR
STARTCHAR Y
ENCODING 89
SWIDTH 681 0
DWIDTH 16 0
BBX 15 17 4 0
BITMAP
F81E
F83C
7878
7C70
3CF0
3FE0
3FC0
1F80
1F80
1F00
1F00
1E00
1E00
1E00
3E00
3E00
3C00
ENDCHAR
STARTCHAR Z
ENCODING 90
SWIDTH 687 0
DWIDTH 16 0
BBX 17 17 1 0
BITMAP
0FFF80
0FFF80
0FFF80
003F00
007E00
00FC00
01F800
01F000
03E000
07E000
0FC000
1F8000
3F0000
7E0000
7FFC00
FFFC00
FFFC00
ENDCHAR
STARTCHAR bracketleft
ENCODING 91
SWIDTH 386 0
DWIDTH 9 0
BBX 11 22 1 -4
BITMAP
07E0
0FE0
0FC0
0F00
0F00
1F00
1E00
1E00
1E00
1E00
3C00
3C00
3C00
3C00
3C00
7800
7800
7800
7800
7E00
FE00
FC00
ENDCHAR
STARTCHAR backslash
ENCODING 92
SWIDTH 566 0
DWIDTH 14 0
BBX 9 22 4 -4
BITMAP
E000
F000
7000
7000
7000
7800
3800
3800
3800
1C00
1C00
1C00
1C00
0E00
0E00
0E00
0F00
0700
0700
0700
0780
0380
ENDCHAR
STARTCHAR bracketright
ENCODING 93
SWIDTH 386 0
DWIDTH 9 0
BBX 11 22 0 -4
BITMAP
0FE0
0FE0
0FC0
03C0
03C0
03C0
03C0
0780
0780
0780
0780
0780
0F00
0F00
0F00
0F00
1F00
1E00
1E00
FE00
FE00
FC00
ENDCHAR
STARTCHAR asciicircum
ENCODING 94
SWIDTH 687 0
DWIDTH 16 0
BBX 14 14 2 3
BITMAP
0040
0040
00C0
01E0
01E0
03E0
0770
0770
0E30
1C38
3C38
3818
701C
F01C
ENDCHAR
STARTCHAR underscore
ENCODING 95
SWIDTH 500 0
DWIDTH 12 0
BBX 11 3 0 -3
BITMAP
FFE0
FFE0
FFE0
ENDCHAR
STARTCHAR grave
ENCODING 96
SWIDTH 663 0
DWIDTH 16 0
BBX 6 3 8 15
BITMAP
F0
38
1C
ENDCHAR
STARTCHAR a
ENCODING 97
SWIDTH 681 0
DWIDTH 16 0
BBX 15 13 2 0
BITMAP
03FE
07FE
1FFE
3E3C
3C3C
7C7C
787C
F8FC
F9F8
FB78
FE78
FCF8
78F8
ENDCHAR
STARTCHAR b
ENCODING 98
SWIDTH 681 0
DWIDTH 16 0
BBX 15 18 2 0
BITMAP
0F00
1F00
1F00
1E00
1E00
1E3C
3E7E
3CFE
3DFE
3D3E
3E3E
7C3C
7C7C
7878
78F8
7FF0
FFC0
FF80
ENDCHAR
STARTCHAR c
ENCODING 99
SWIDTH 548 0
DWIDTH 13 0
BBX 13 13 2 0
BITMAP
03F0
0FF8
1FF0
3E10
7C00
7C00
F800
F800
F800
F820
FFE0
7FE0
3F80
ENDCHAR
STARTCHAR d
ENCODING 100
SWIDTH 681 0
DWIDTH 16 0
BBX 16 18 2 0
BITMAP
001F
001F
001E
001E
003E
03FE
07FE
1FFC
3E3C
3C3C
7C7C
78FC
F8F8
F978
FB78
FEF8
FCF8
78F0
ENDCHAR
STARTCHAR e
ENCODING 101
SWIDTH 612 0
DWIDTH 15 0
BBX 13 13 2 0
BITMAP
03E0
0FF0
1FF8
3C78
78F0
7FF0
FFC0
FF00
F808
F838
FFF8
7FF0
1F80
ENDCHAR
STARTCHAR f
ENCODING 102
SWIDTH 464 0
DWIDTH 11 0
BBX 14 23 1 -5
BITMAP
00F8
03FC
07FC
0F84
0F00
3FE0
3FE0
7FE0
1E00
1E00
3E00
3E00
3E00
3C00
3C00
7C00
7C00
7C00
7C00
7800
F800
F800
F800
ENDCHAR
STARTCHAR g
ENCODING 103
SWIDTH 674 0
DWIDTH 16 0
BBX 16 18 1 -5
BITMAP
01FF
07FF
0FFF
1F1E
3E3E
3C3E
7C7E
78FE
79BC
7FBC
7F7C
7E7C
3C7C
80F8
E0F8
FFF0
7FE0
7F80
ENDCHAR
STARTCHAR h
ENCODING 104
SWIDTH 675 0
DWIDTH 16 0
BBX 15 18 2 0
BITMAP
0F00
1F00
1F00
1F00
1F00
1E1C
3E7E
3EFE
3EFE
3DBE
3F3C
7E3C
7C7C
7C7C
787C
7878
F878
F8F8
ENDCHAR
STARTCHAR i
ENCODING 105
SWIDTH 343 0
DWIDTH 8 0
BBX 8 18 2 0
BITMAP
1F
1F
1F
1E
00
3E
3E
3C
3C
3C
7C
7C
78
78
78
F8
F8
F8
ENDCHAR
STARTCHAR j
ENCODING 106
SWIDTH 407 0
DWIDTH 10 0
BBX 14 23 -1 -5
BITMAP
007C
007C
007C
0078
0000
00F8
00F8
00F0
00F0
01F0
01F0
01F0
01E0
01E0
03E0
03E0
03E0
03C0
07C0
C780
FF80
FF00
7C00
ENDCHAR
STARTCHAR k
ENCODING 107
SWIDTH 666 0
DWIDTH 16 0
BBX 15 18 2 0
BITMAP
1F00
1F00
1F00
1E00
1E00
3E1E
3E3C
3E78
3C70
3CE0
7DC0
7FE0
7FE0
79E0
79F0
F8F0
F8F8
F8FC
ENDCHAR
STARTCHAR l
ENCODING 108
SWIDTH 343 0
DWIDTH 8 0
BBX 8 18 2 0
BITMAP
1F
1F
1F
1E
1E
3E
3E
3E
3C
3C
7C
7C
7C
78
78
F8
F8
F8
ENDCHAR
STARTCHAR m
ENCODING 109
SWIDTH 991 0
DWIDTH 24 0
BBX 22 13 2 0
BITMAP
3E3878
3CFCFC
3DFDFC
3DFFFC
3F7F7C
7F7F7C
7E7E78
7C7C78
7C7C78
7878F8
F8F8F8
F8F0F0
F0F0F0
ENDCHAR
STARTCHAR n
ENCODING 110
SWIDTH 675 0
DWIDTH 16 0
BBX 15 13 2 0
BITMAP
1E1C
3E7E
3EFE
3DFE
3DBE
3F3C
7E3C
7C7C
7C7C
787C
7878
F878
F8F8
ENDCHAR
STARTCHAR o
ENCODING 111
SWIDTH 663 0
DWIDTH 16 0
BBX 15 13 2 0
BITMAP
03F0
0FFC
1FFC
3E7E
7C3E
783E
F83C
F83C
F878
F8F8
FFF0
7FE0
1F00
ENDCHAR
STARTCHAR p
ENCODING 112
SWIDTH 681 0
DWIDTH 16 0
BBX 16 18 1 -5
BITMAP
1F1E
1F3F
1E7F
1EDF
1F9F
3F1F
3E1E
3E3E
3C3C
3C7C
7FF8
7FE0
7FC0
7800
7800
F800
F800
F800
ENDCHAR
STARTCHAR q
ENCODING 113
SWIDTH 681 0
DWIDTH 16 0
BBX 15 18 2 -5
BITMAP
03FE
07FE
1FFE
3E3C
3C3C
7C7C
78FC
F8FC
F978
FF78
FE78
FCF8
78F8
00F0
00F0
01F0
01F0
01F0
ENDCHAR
STARTCHAR r
ENCODING 114
SWIDTH 542 0
DWIDTH 13 0
BBX 13 13 2 0
BITMAP
3E38
3E70
3EF0
3DF0
3D80
7F00
7E00
7C00
7C00
7800
F800
F800
F800
ENDCHAR
STARTCHAR s
ENCODING 115
SWIDTH 527 0
DWIDTH 13 0
BBX 12 13 1 0
BITMAP
07F0
1FF0
1FE0
3E00
1E00
1F00
0F80
07C0
03E0
43E0
FFC0
FFC0
7F00
ENDCHAR
STARTCHAR t
ENCODING 116
SWIDTH 437 0
DWIDTH 10 0
BBX 9 16 3 0
BITMAP
0E00
3E00
3E00
FF80
FF80
FF80
7C00
7C00
7C00
7800
7800
F800
F800
FF00
FE00
7E00
ENDCHAR
STARTCHAR u
ENCODING 117
SWIDTH 675 0
DWIDTH 16 0
BBX 15 13 2 0
BITMAP
3E3E
3C3E
3C3C
7C3C
7C7C
7C7C
78FC
79F8
FB78
FE78
FEF8
FCF8
70F0
ENDCHAR
STARTCHAR v
ENCODING 118
SWIDTH 630 0
DWIDTH 15 0
BBX 15 13 3 0
BITMAP
F81E
F81C
F83C
7878
7C70
7CF0
7CE0
7DE0
3FC0
3F80
3F80
3F00
3F00
ENDCHAR
STARTCHAR w
ENCODING 119
SWIDTH 878 0
DWIDTH 21 0
BBX 20 13 3 0
BITMAP
F0F0F0
F0F0E0
F1F1E0
F1F1C0
F3FBC0
F3FB80
F77F80
F77F00
FE7F00
FE7E00
FC7E00
FC7C00
F87C00
ENDCHAR
STARTCHAR x
ENCODING 120
SWIDTH 563 0
DWIDTH 14 0
BBX 15 13 0 0
BITMAP
1F1E
1F3C
0F78
0FF0
07E0
07E0
07C0
0FC0
0FE0
1FE0
3DF0
79F0
F0F8
ENDCHAR
STARTCHAR y
ENCODING 121
SWIDTH 633 0
DWIDTH 15 0
BBX 17 18 1 -5
BITMAP
3E0780
3E0700
3E0E00
1E1E00
1F1C00
1F3800
1F7800
1F7000
0FE000
0FE000
0FC000
0F8000
0F8000
0F0000
1E0000
3E0000
7C0000
F80000
ENDCHAR
STARTCHAR z
ENCODING 122
SWIDTH 630 0
DWIDTH 15 0
BBX 15 13 1 0
BITMAP
1FFE
1FFE
3FFC
00FC
01F0
03E0
07C0
0F80
1F00
7E00
7FFC
FFF8
FFF8
ENDCHAR
STARTCHAR braceleft
ENCODING 123
SWIDTH 386 0
DWIDTH 9 0
BBX 9 22 2 -4
BITMAP
0780
0F80
1F80
1E00
1E00
1E00
1E00
1E00
1E00
3C00
7800
F000
7800
3C00
3C00
7C00
7800
F800
F800
F800
7800
3800
ENDCHAR
STARTCHAR bar
ENCODING 124
SWIDTH 259 0
DWIDTH 6 0
BBX 7 22 1 -4
BITMAP
0E
0E
0E
0C
1C
1C
1C
1C
18
38
38
38
38
30
70
70
70
70
60
E0
E0
E0
ENDCHAR
STARTCHAR braceright
ENCODING 125
SWIDTH 386 0
DWIDTH 9 0
BBX 9 22 1 -4
BITMAP
0E00
0F00
0F80
0F80
0F80
0F00
1F00
1E00
1E00
0F00
0F80
0F00
1E00
3C00
3C00
3C00
3C00
3C00
7C00
FC00
F800
F000
ENDCHAR
STARTCHAR asciitilde
ENCODING 126
SWIDTH 687 0
DWIDTH 16 0
BBX 15 6 2 4
BITMAP
3C06
7F0E
7F8C
E3FC
E1FC
C078
ENDCHAR
STARTCHAR space
ENCODING 160
SWIDTH 343 0
DWIDTH 8 0
BBX 1 1 0 0
BITMAP
00
ENDCHAR
STARTCHAR exclamdown
ENCODING 161
SWIDTH 343 0
DWIDTH 8 0
BBX 8 18 1 -5
BITMAP
1F
1F
1E
00
00
1C
1C
1C
3C
3C
3C
3C
78
78
78
F8
F8
F8
ENDCHAR
STARTCHAR cent
ENCODING 162
SWIDTH 687 0
DWIDTH 16 0
BBX 13 17 4 0
BITMAP
0060
00E0
01F8
0FF8
1F38
3C08
7C00
7800
F800
F800
F800
FFF0
7FF0
7FF0
0F00
0700
0700
ENDCHAR
STARTCHAR sterling
ENCODING 163
SWIDTH 687 0
DWIDTH 16 0
BBX 15 17 3 0
BITMAP
00FC
01FE
03FE
07C2
0780
0780
0F80
3FE0
3FE0
3FE0
0F00
1F00
1E00
3800
7FF8
FFF0
FFF0
ENDCHAR
STARTCHAR currency
ENCODING 164
SWIDTH 687 0
DWIDTH 16 0
BBX 19 17 0 0
BITMAP
080040
1C00E0
1C03C0
0EF780
07FF00
07FE00
079E00
0F1E00
0F1E00
0F1E00
0F3C00
0FFC00
1FFC00
3DEE00
780700
E00700
400200
ENDCHAR
STARTCHAR yen
ENCODING 165
SWIDTH 687 0
DWIDTH 16 0
BBX 16 17 4 0
BITMAP
F80F
7C1E
7C3C
3E78
3EF0
1FE0
1FC0
0F80
7FE0
7FE0
1F00
FFE0
FFC0
1F00
1E00
3E00
3E00
ENDCHAR
STARTCHAR brokenbar
ENCODING 166
SWIDTH 259 0
DWIDTH 6 0
BBX 7 22 1 -4
BITMAP
0E
0E
0C
0C
0C
1C
1C
18
18
00
00
00
00
30
30
70
70
70
60
60
E0
E0
ENDCHAR
STARTCHAR section
ENCODING 167
SWIDTH 687 0
DWIDTH 16 0
BBX 15 22 2 -5
BITMAP
03FC
0FFE
1FFE
1F06
1F00
1F80
0FE0
0FF0
1FF8
3CFC
383C
3C3C
3F38
3FF8
1FF0
07F0
01F8
00F8
41F8
FFF0
FFE0
7F80
ENDCHAR
STARTCHAR dieresis
ENCODING 168
SWIDTH 663 0
DWIDTH 16 0
BBX 8 3 8 14
BITMAP
E7
E7
E7
ENDCHAR
STARTCHAR copyright
ENCODING 169
SWIDTH 834 0
DWIDTH 20 0
BBX 18 17 3 0
BITMAP
03F000
0FFC00
1C0E00
380300
61F980
63FD80
C704C0
CE00C0
CC00C0
CC00C0
CE00C0
67F180
63F180
380300
1C0E00
0FFC00
03F000
ENDCHAR
STARTCHAR ordfeminine
ENCODING 170
SWIDTH 539 0
DWIDTH 13 0
BBX 12 9 3 8
BITMAP
0FF0
1FF0
39E0
71E0
F3E0
F7E0
FDE0
FBC0
73C0
ENDCHAR
STARTCHAR guillemotleft
ENCODING 171
SWIDTH 633 0
DWIDTH 15 0
BBX 14 11 2 1
BITMAP
0208
0F3C
1F7C
3EF8
7DF0
FBE0
79E0
79E0
3CF0
1C70
0820
ENDCHAR
STARTCHAR logicalnot
ENCODING 172
SWIDTH 687 0
DWIDTH 16 0
BBX 14 9 3 2
BITMAP
FFFC
FFFC
FFFC
0018
0018
0038
0038
0038
0038
ENDCHAR
STARTCHAR hyphen
ENCODING 173
SWIDTH 289 0
DWIDTH 7 0
BBX 6 3 2 6
BITMAP
FC
FC
FC
ENDCHAR
STARTCHAR registered
ENCODING 174
SWIDTH 691 0
DWIDTH 16 0
BBX 12 12 4 5
BITMAP
0F80
3FC0
70E0
67B0
CFF0
CC90
CF10
CD30
7DB0
70E0
3FC0
0F80
ENDCHAR
STARTCHAR macron
ENCODING 175
SWIDTH 663 0
DWIDTH 16 0
BBX 8 3 8 14
BITMAP
FF
FF
FF
ENDCHAR
STARTCHAR degree
ENCODING 176
SWIDTH 241 0
DWIDTH 6 0
BBX 4 4 4 13
BITMAP
60
90
90
60
ENDCHAR
STARTCHAR plusminus
ENCODING 177
SWIDTH 687 0
DWIDTH 16 0
BBX 16 14 1 0
BITMAP
00E0
00E0
00C0
3FFF
3FFF
3FFF
01C0
01C0
0180
0380
0000
FFFC
FFFC
FFFC
ENDCHAR
STARTCHAR twosuperior
ENCODING 178
SWIDTH 539 0
DWIDTH 10 0
BBX 9 10 -14 7
BITMAP
1F00
3F80
2380
0380
0700
1E00
3800
7000
FF00
FF00
ENDCHAR
STARTCHAR threesuperior
ENCODING 179
SWIDTH 539 0
DWIDTH 10 0
BBX 9 10 -15 7
BITMAP
3F00
3F80
0380
0300
3C00
3F00
0300
8700
FF00
FC00
ENDCHAR
STARTCHAR acute
ENCODING 180
SWIDTH 663 0
DWIDTH 16 0
BBX 7 3 9 15
BITMAP
1E
38
E0
ENDCHAR
STARTCHAR mu
ENCODING 181
SWIDTH 681 0
DWIDTH 16 0
BBX 16 17 1 -4
BITMAP
1F1F
1F1F
1E1E
1E1E
3E3E
3E3E
3E7E
3CFC
3DBC
7FBC
7F7C
7E7C
7E78
7800
F800
F800
F800
ENDCHAR
STARTCHAR paragraph
ENCODING 182
SWIDTH 687 0
DWIDTH 16 0
BBX 11 21 4 -4
BITMAP
3FE0
7FE0
FEE0
FEC0
FEC0
FCC0
FDC0
7DC0
1D80
1D80
1980
1B80
1B80
3B00
3B00
3300
3700
3700
7600
7600
6600
ENDCHAR
STARTCHAR periodcentered
ENCODING 183
SWIDTH 343 0
DWIDTH 16 0
BBX 4 3 8 6
BITMAP
70
F0
E0
ENDCHAR
STARTCHAR cedilla
ENCODING 184
SWIDTH 663 0
DWIDTH 16 0
BBX 5 5 5 -5
BITMAP
38
70
38
18
F0
ENDCHAR
STARTCHAR onesuperior
ENCODING 185
SWIDTH 539 0
DWIDTH 10 0
BBX 5 10 -17 7
BITMAP
F8
F8
30
70
70
70
70
60
E0
E0
ENDCHAR
STARTCHAR ordmasculine
ENCODING 186
SWIDTH 539 0
DWIDTH 13 0
BBX 12 9 3 8
BITMAP
07C0
1FF0
3FF0
78F0
F0F0
F0E0
F1C0
FF80
3E00
ENDCHAR
STARTCHAR guillemotright
ENCODING 187
SWIDTH 633 0
DWIDTH 15 0
BBX 14 11 1 1
BITMAP
1040
38E0
3CF0
1E78
1E78
1F7C
3EF8
7DF0
79E0
F3C0
4100
ENDCHAR
STARTCHAR onequarter
ENCODING 188
SWIDTH 1089 0
DWIDTH 23 0
BBX 20 17 9 0
BITMAP
F800F0
F801E0
3003C0
700780
700F00
701E00
703C00
607870
E0F0F0
E1E1E0
03C360
0784E0
0F0FF0
1E1FF0
3C00C0
7800C0
F001C0
ENDCHAR
STARTCHAR onehalf
ENCODING 189
SWIDTH 1089 0
DWIDTH 23 0
BBX 20 17 9 0
BITMAP
F800F0
F801E0
3003C0
700780
700F00
701E00
703C00
607BE0
E0F7F0
E1E470
03C070
0780E0
0F03C0
1E0700
3C0E00
781FE0
F01FE0
ENDCHAR
STARTCHAR threequarters
ENCODING 190
SWIDTH 1149 0
DWIDTH 23 0
BBX 21 17 10 0
BITMAP
3F0078
3F80F0
0381E0
0303C0
3C0780
3F0F00
031E00
873C38
FF7878
FCF0F0
01E1B0
03C270
0787F8
0F0FF8
1E0060
3C0060
7800E0
ENDCHAR
STARTCHAR questiondown
ENCODING 191
SWIDTH 539 0
DWIDTH 13 0
BBX 12 18 0 -5
BITMAP
01F0
01F0
01E0
0000
0000
03E0
03C0
07C0
0F80
1F00
3C00
7800
F800
F800
FC30
FFF0
7FE0
1FC0
ENDCHAR
STARTCHAR Agrave
ENCODING 192
SWIDTH 771 0
DWIDTH 18 0
BBX 17 21 1 0
BITMAP
007800
001C00
000E00
000000
007C00
00FC00
00FC00
01FC00
01FE00
03FE00
039E00
079E00
071E00
0E1F00
0FFF00
1FFF00
3FFF00
380F00
780F80
700F80
F00780
ENDCHAR
STARTCHAR Aacute
ENCODING 193
SWIDTH 771 0
DWIDTH 18 0
BBX 17 21 1 0
BITMAP
000780
000E00
003800
000000
007C00
00FC00
00FC00
01FC00
01FE00
03FE00
039E00
079E00
071E00
0E1F00
0FFF00
1FFF00
3FFF00
380F00
780F80
700F80
F00780
ENDCHAR
STARTCHAR Acircumflex
ENCODING 194
SWIDTH 771 0
DWIDTH 18 0
BBX 17 21 1 0
BITMAP
001E00
003F00
00E380
000000
007C00
00FC00
00FC00
01FC00
01FE00
03FE00
039E00
079E00
071E00
0E1F00
0FFF00
1FFF00
3FFF00
380F00
780F80
700F80
F00780
ENDCHAR
STARTCHAR Atilde
ENCODING 195
SWIDTH 771 0
DWIDTH 18 0
BBX 17 21 1 0
BITMAP
003B80
007F00
00EF00
000000
007C00
00FC00
00FC00
01FC00
01FE00
03FE00
039E00
079E00
071E00
0E1F00
0FFF00
1FFF00
3FFF00
380F00
780F80
700F80
F00780
ENDCHAR
STARTCHAR Adieresis
ENCODING 196
SWIDTH 771 0
DWIDTH 18 0
BBX 17 21 1 0
BITMAP
00E700
00E700
00E700
000000
007C00
00FC00
00FC00
01FC00
01FE00
03FE00
039E00
079E00
071E00
0E1F00
0FFF00
1FFF00
3FFF00
380F00
780F80
700F80
F00780
ENDCHAR
STARTCHAR Aring
ENCODING 197
SWIDTH 771 0
DWIDTH 18 0
BBX 17 22 1 0
BITMAP
000C00
001200
001200
000C00
000000
007C00
00FC00
00FC00
01FC00
01FE00
03FE00
039E00
079E00
071E00
0E1F00
0FFF00
1FFF00
3FFF00
380F00
780F80
700F80
F00780
ENDCHAR
STARTCHAR AE
ENCODING 198
SWIDTH 1004 0
DWIDTH 24 0
BBX 26 17 0 0
BITMAP
0007FFC0
000FFFC0
000FFF80
001FC000
003FC000
007FC000
00F78000
00E7FE00
01EFFE00
03CFFE00
078F8000
0FFF0000
0FFF0000
1FFF0000
3C1FFF00
781FFE00
E01FFE00
ENDCHAR
STARTCHAR Ccedilla
ENCODING 199
SWIDTH 737 0
DWIDTH 18 0
BBX 17 22 2 -5
BITMAP
00FF00
03FF80
0FFF80
1F8100
3F0000
3E0000
7C0000
780000
F80000
F80000
F80000
F80000
FC0000
7E0600
7FFC00
3FFC00
0FF000
060000
0E0000
070000
030000
1E0000
ENDCHAR
STARTCHAR Egrave
ENCODING 200
SWIDTH 642 0
DWIDTH 15 0
BBX 15 21 2 0
BITMAP
03C0
00E0
0070
0000
1FFE
1FFE
1FFE
1E00
1E00
3E00
3E00
3FF0
3FF0
3FF0
7C00
7C00
7800
7800
7FF8
FFF0
FFF0
ENDCHAR
STARTCHAR Eacute
ENCODING 201
SWIDTH 642 0
DWIDTH 15 0
BBX 15 21 2 0
BITMAP
003C
0070
01C0
0000
1FFE
1FFE
1FFE
1E00
1E00
3E00
3E00
3FF0
3FF0
3FF0
7C00
7C00
7800
7800
7FF8
FFF0
FFF0
ENDCHAR
STARTCHAR Ecircumflex
ENCODING 202
SWIDTH 642 0
DWIDTH 15 0
BBX 15 21 2 0
BITMAP
00F0
01F8
071C
0000
1FFE
1FFE
1FFE
1E00
1E00
3E00
3E00
3FF0
3FF0
3FF0
7C00
7C00
7800
7800
7FF8
FFF0
FFF0
ENDCHAR
STARTCHAR Edieresis
ENCODING 203
SWIDTH 642 0
DWIDTH 15 0
BBX 15 21 2 0
BITMAP
0738
0738
0738
0000
1FFE
1FFE
1FFE
1E00
1E00
3E00
3E00
3FF0
3FF0
3FF0
7C00
7C00
7800
7800
7FF8
FFF0
FFF0
ENDCHAR
STARTCHAR Igrave
ENCODING 204
SWIDTH 361 0
DWIDTH 9 0
BBX 9 21 2 0
BITMAP
1E00
0700
0380
0000
1F00
1F00
1E00
1E00
1E00
3E00
3E00
3C00
3C00
3C00
7C00
7C00
7800
7800
7800
F800
F800
ENDCHAR
STARTCHAR Iacute
ENCODING 205
SWIDTH 361 0
DWIDTH 9 0
BBX 10 21 2 0
BITMAP
03C0
0700
1C00
0000
1F00
1F00
1E00
1E00
1E00
3E00
3E00
3C00
3C00
3C00
7C00
7C00
7800
7800
7800
F800
F800
ENDCHAR
STARTCHAR Icircumflex
ENCODING 206
SWIDTH 361 0
DWIDTH 9 0
BBX 10 21 2 0
BITMAP
0F00
1F80
71C0
0000
1F00
1F00
1E00
1E00
1E00
3E00
3E00
3C00
3C00
3C00
7C00
7C00
7800
7800
7800
F800
F800
ENDCHAR
STARTCHAR Idieresis
ENCODING 207
SWIDTH 361 0
DWIDTH 9 0
BBX 10 21 2 0
BITMAP
39C0
39C0
39C0
0000
1F00
1F00
1E00
1E00
1E00
3E00
3E00
3C00
3C00
3C00
7C00
7C00
7800
7800
7800
F800
F800
ENDCHAR
STARTCHAR Eth
ENCODING 208
SWIDTH 822 0
DWIDTH 20 0
BBX 20 17 1 0
BITMAP
0FFF80
0FFFC0
0FFFE0
0F07F0
1F01F0
1F01F0
1F01F0
FFE1F0
FFE1F0
FFE1E0
3E03E0
3E07E0
3C0FC0
3C1F80
7FFF00
7FFE00
7FF000
ENDCHAR
STARTCHAR Ntilde
ENCODING 209
SWIDTH 789 0
DWIDTH 19 0
BBX 18 21 2 0
BITMAP
007700
00FE00
01DE00
000000
1E03C0
1F03C0
1F03C0
1F8380
3F8380
3FC780
3FC780
3BE780
39E700
79F700
78FF00
78FF00
707F00
707E00
F03E00
F03E00
F01E00
ENDCHAR
STARTCHAR Ograve
ENCODING 210
SWIDTH 855 0
DWIDTH 21 0
BBX 19 21 2 0
BITMAP
007800
001C00
000E00
000000
00FE00
03FF80
0FFFC0
1F87E0
3E03E0
3C03E0
7C03E0
7803E0
F803E0
F803E0
F807C0
F807C0
F80F80
7C3F00
7FFE00
3FF800
0FE000
ENDCHAR
STARTCHAR Oacute
ENCODING 211
SWIDTH 855 0
DWIDTH 21 0
BBX 19 21 2 0
BITMAP
000F00
001C00
007000
000000
00FE00
03FF80
0FFFC0
1F87E0
3E03E0
3C03E0
7C03E0
7803E0
F803E0
F803E0
F807C0
F807C0
F80F80
7C3F00
7FFE00
3FF800
0FE000
ENDCHAR
STARTCHAR Ocircumflex
ENCODING 212
SWIDTH 855 0
DWIDTH 21 0
BBX 19 21 2 0
BITMAP
003C00
007E00
01C700
000000
00FE00
03FF80
0FFFC0
1F87E0
3E03E0
3C03E0
7C03E0
7803E0
F803E0
F803E0
F807C0
F807C0
F80F80
7C3F00
7FFE00
3FF800
0FE000
ENDCHAR
STARTCHAR Otilde
ENCODING 213
SWIDTH 855 0
DWIDTH 21 0
BBX 19 21 2 0
BITMAP
007700
00FE00
01DE00
000000
00FE00
03FF80
0FFFC0
1F87E0
3E03E0
3C03E0
7C03E0
7803E0
F803E0
F803E0
F807C0
F807C0
F80F80
7C3F00
7FFE00
3FF800
0FE000
ENDCHAR
STARTCHAR Odieresis
ENCODING 214
SWIDTH 855 0
DWIDTH 21 0
BBX 19 21 2 0
BITMAP
00E700
00E700
00E700
000000
00FE00
03FF80
0FFFC0
1F87E0
3E03E0
3C03E0
7C03E0
7803E0
F803E0
F803E0
F807C0
F807C0
F80F80
7C3F00
7FFE00
3FF800
0FE000
ENDCHAR
STARTCHAR multiply
ENCODING 215
SWIDTH 687 0
DWIDTH 16 0
BBX 16 14 2 0
BITMAP
1002
3807
1C1E
0E3C
0F78
07F0
03E0
07C0
0FE0
1EF0
3C70
7838
E01C
4008
ENDCHAR
STARTCHAR Oslash
ENCODING 216
SWIDTH 855 0
DWIDTH 21 0
BBX 22 17 3 0
BITMAP
007F7C
01FFF8
07FFE0
0FC3F0
1F07F0
1E0FF0
3E1FF0
3C3DF0
7C79F0
7CF1F0
7DE3E0
7FC3E0
7F87C0
3F1F80
3FFF00
7FFC00
FFF000
ENDCHAR
STARTCHAR Ugrave
ENCODING 217
SWIDTH 759 0
DWIDTH 18 0
BBX 17 21 3 0
BITMAP
01E000
007000
003800
000000
3E0780
3E0780
3C0F80
3C0F00
7C0F00
7C0F00
7C0F00
781F00
781E00
F81E00
F81E00
F81E00
F83C00
FC7C00
7FF800
3FF000
0FC000
ENDCHAR
STARTCHAR Uacute
ENCODING 218
SWIDTH 759 0
DWIDTH 18 0
BBX 17 21 3 0
BITMAP
003C00
007000
01C000
000000
3E0780
3E0780
3C0F80
3C0F00
7C0F00
7C0F00
7C0F00
781F00
781E00
F81E00
F81E00
F81E00
F83C00
FC7C00
7FF800
3FF000
0FC000
ENDCHAR
STARTCHAR Ucircumflex
ENCODING 219
SWIDTH 759 0
DWIDTH 18 0
BBX 17 21 3 0
BITMAP
00F000
01F800
071C00
000000
3E0780
3E0780
3C0F80
3C0F00
7C0F00
7C0F00
7C0F00
781F00
781E00
F81E00
F81E00
F81E00
F83C00
FC7C00
7FF800
3FF000
0FC000
ENDCHAR
STARTCHAR Udieresis
ENCODING 220
SWIDTH 759 0
DWIDTH 18 0
BBX 17 21 3 0
BITMAP
039C00
039C00
039C00
000000
3E0780
3E0780
3C0F80
3C0F00
7C0F00
7C0F00
7C0F00
781F00
781E00
F81E00
F81E00
F81E00
F83C00
FC7C00
7FF800
3FF000
0FC000
ENDCHAR
STARTCHAR Yacute
ENCODING 221
SWIDTH 681 0
DWIDTH 16 0
BBX 15 21 4 0
BITMAP
00F0
01C0
0700
0000
F81E
F83C
7878
7C70
3CF0
3FE0
3FC0
1F80
1F80
1F00
1F00
1E00
1E00
1E00
3E00
3E00
3C00
ENDCHAR
STARTCHAR Thorn
ENCODING 222
SWIDTH 645 0
DWIDTH 15 0
BBX 15 17 2 0
BITMAP
1F00
1F00
1E00
1FF8
1FFC
3FFE
3E3E
3C3E
3C3E
3C3C
7C7C
7FF8
7FF0
7FC0
7800
F800
F800
ENDCHAR
STARTCHAR germandbls
ENCODING 223
SWIDTH 708 0
DWIDTH 17 0
BBX 16 23 1 -5
BITMAP
00FC
03FE
07FE
0F9E
0F1C
0F1C
1F38
1F70
1F78
1E7C
1E7C
3E3E
3E1F
3E0F
3C0F
3CFF
7DFE
7DFC
7800
7800
7800
F800
F800
ENDCHAR
STARTCHAR agrave
ENCODING 224
SWIDTH 681 0
DWIDTH 16 0
BBX 15 17 2 0
BITMAP
01E0
0070
0038
0000
03FE
07FE
1FFE
3E3C
3C3C
7C7C
787C
F8FC
F9F8
FB78
FE78
FCF8
78F8
ENDCHAR
STARTCHAR aacute
ENCODING 225
SWIDTH 681 0
DWIDTH 16 0
BBX 15 17 2 0
BITMAP
003C
0070
01C0
0000
03FE
07FE
1FFE
3E3C
3C3C
7C7C
787C
F8FC
F9F8
FB78
FE78
FCF8
78F8
ENDCHAR
STARTCHAR acircumflex
ENCODING 226
SWIDTH 681 0
DWIDTH 16 0
BBX 15 17 2 0
BITMAP
00F0
01F8
071C
0000
03FE
07FE
1FFE
3E3C
3C3C
7C7C
787C
F8FC
F9F8
FB78
FE78
FCF8
78F8
ENDCHAR
STARTCHAR atilde
ENCODING 227
SWIDTH 681 0
DWIDTH 16 0
BBX 15 17 2 0
BITMAP
00EE
01FC
03BC
0000
03FE
07FE
1FFE
3E3C
3C3C
7C7C
787C
F8FC
F9F8
FB78
FE78
FCF8
78F8
ENDCHAR
STARTCHAR adieresis
ENCODING 228
SWIDTH 681 0
DWIDTH 16 0
BBX 15 17 2 0
BITMAP
039C
039C
039C
0000
03FE
07FE
1FFE
3E3C
3C3C
7C7C
787C
F8FC
F9F8
FB78
FE78
FCF8
78F8
ENDCHAR
STARTCHAR aring
ENCODING 229
SWIDTH 681 0
DWIDTH 16 0
BBX 15 18 2 0
BITMAP
0060
0090
0090
0060
0000
03FE
07FE
1FFE
3E3C
3C3C
7C7C
787C
F8FC
F9F8
FB78
FE78
FCF8
78F8
ENDCHAR
STARTCHAR ae
ENCODING 230
SWIDTH 987 0
DWIDTH 24 0
BBX 22 13 2 0
BITMAP
03FEF0
07FFF8
1FFFFC
1E3E3C
3C3C78
787FF8
787FE0
F8FF80
FB7C04
FF7C1C
FE3FFC
FC3FF8
781FC0
ENDCHAR
STARTCHAR ccedilla
ENCODING 231
SWIDTH 548 0
DWIDTH 13 0
BBX 13 18 2 -5
BITMAP
03F0
0FF8
1FF0
3E10
7C00
7C00
F800
F800
F800
F820
FFE0
7FE0
3F80
0C00
1C00
0E00
0600
3C00
ENDCHAR
STARTCHAR egrave
ENCODING 232
SWIDTH 612 0
DWIDTH 15 0
BBX 13 17 2 0
BITMAP
03C0
00E0
0070
0000
03E0
0FF0
1FF8
3C78
78F0
7FF0
FFC0
FF00
F808
F838
FFF8
7FF0
1F80
ENDCHAR
STARTCHAR eacute
ENCODING 233
SWIDTH 612 0
DWIDTH 15 0
BBX 14 17 2 0
BITMAP
003C
0070
01C0
0000
03E0
0FF0
1FF8
3C78
78F0
7FF0
FFC0
FF00
F808
F838
FFF8
7FF0
1F80
ENDCHAR
STARTCHAR ecircumflex
ENCODING 234
SWIDTH 612 0
DWIDTH 15 0
BBX 14 17 2 0
BITMAP
00F0
01F8
071C
0000
03E0
0FF0
1FF8
3C78
78F0
7FF0
FFC0
FF00
F808
F838
FFF8
7FF0
1F80
ENDCHAR
STARTCHAR edieresis
ENCODING 235
SWIDTH 612 0
DWIDTH 15 0
BBX 13 17 2 0
BITMAP
0738
0738
0738
0000
03E0
0FF0
1FF8
3C78
78F0
7FF0
FFC0
FF00
F808
F838
FFF8
7FF0
1F80
ENDCHAR
STARTCHAR igrave
ENCODING 236
SWIDTH 343 0
DWIDTH 8 0
BBX 9 17 2 0
BITMAP
1E00
0700
0380
0000
3E00
3E00
3E00
3C00
3C00
7C00
7C00
7C00
7800
7800
F800
F800
F800
ENDCHAR
STARTCHAR iacute
ENCODING 237
SWIDTH 343 0
DWIDTH 8 0
BBX 10 17 2 0
BITMAP
03C0
0700
1C00
0000
3E00
3E00
3E00
3C00
3C00
7C00
7C00
7C00
7800
7800
F800
F800
F800
ENDCHAR
STARTCHAR icircumflex
ENCODING 238
SWIDTH 343 0
DWIDTH 8 0
BBX 10 17 2 0
BITMAP
0F00
1F80
71C0
0000
3E00
3E00
3E00
3C00
3C00
7C00
7C00
7C00
7800
7800
F800
F800
F800
ENDCHAR
STARTCHAR idieresis
ENCODING 239
SWIDTH 343 0
DWIDTH 8 0
BBX 10 17 2 0
BITMAP
39C0
39C0
39C0
0000
3E00
3E00
3E00
3C00
3C00
7C00
7C00
7C00
7800
7800
F800
F800
F800
ENDCHAR
STARTCHAR eth
ENCODING 240
SWIDTH 663 0
DWIDTH 16 0
BBX 15 21 2 0
BITMAP
0020
0070
00F8
1DE0
1FE0
3FF0
07F8
0EF8
1C7C
0BFC
0FFC
1FFC
3E7E
7C3C
783C
F83C
F878
F8F0
FFF0
7FC0
1F00
ENDCHAR
STARTCHAR ntilde
ENCODING 241
SWIDTH 675 0
DWIDTH 16 0
BBX 15 17 2 0
BITMAP
00EE
01FC
03BC
0000
1E1C
3E7E
3EFE
3DFE
3DBE
3F3C
7E3C
7C7C
7C7C
787C
7878
F878
F8F8
ENDCHAR
STARTCHAR ograve
ENCODING 242
SWIDTH 663 0
DWIDTH 16 0
BBX 15 17 2 0
BITMAP
01E0
0070
0038
0000
03F0
0FFC
1FFC
3E7E
7C3E
783E
F83C
F83C
F878
F8F8
FFF0
7FE0
1F00
ENDCHAR
STARTCHAR oacute
ENCODING 243
SWIDTH 663 0
DWIDTH 16 0
BBX 15 17 2 0
BITMAP
003C
0070
01C0
0000
03F0
0FFC
1FFC
3E7E
7C3E
783E
F83C
F83C
F878
F8F8
FFF0
7FE0
1F00
ENDCHAR
STARTCHAR ocircumflex
ENCODING 244
SWIDTH 663 0
DWIDTH 16 0
BBX 15 17 2 0
BITMAP
00F0
01F8
071C
0000
03F0
0FFC
1FFC
3E7E
7C3E
783E
F83C
F83C
F878
F8F8
FFF0
7FE0
1F00
ENDCHAR
STARTCHAR otilde
ENCODING 245
SWIDTH 663 0
DWIDTH 16 0
BBX 15 17 2 0
BITMAP
01DC
03F8
0778
0000
03F0
0FFC
1FFC
3E7E
7C3E
783E
F83C
F83C
F878
F8F8
FFF0
7FE0
1F00
ENDCHAR
STARTCHAR odieresis
ENCODING 246
SWIDTH 663 0
DWIDTH 16 0
BBX 15 17 2 0
BITMAP
039C
039C
039C
0000
03F0
0FFC
1FFC
3E7E
7C3E
783E
F83C
F83C
F878
F8F8
FFF0
7FE0
1F00
ENDCHAR
STARTCHAR divide
ENCODING 247
SWIDTH 687 0
DWIDTH 16 0
BBX 14 14 3 0
BITMAP
01C0
03C0
0380
0000
0000
FFFC
FFFC
FFFC
0000
0000
0000
0700
0F00
0E00
ENDCHAR
STARTCHAR oslash
ENCODING 248
SWIDTH 663 0
DWIDTH 16 0
BBX 17 13 3 0
BITMAP
01FF80
07FE00
0FFE00
1F3F00
3E7F00
3CFF00
7DDE00
7F9E00
7F3C00
7E7C00
7FF800
3FF000
FF8000
ENDCHAR
STARTCHAR ugrave
ENCODING 249
SWIDTH 675 0
DWIDTH 16 0
BBX 15 17 2 0
BITMAP
01E0
0070
0038
0000
3E3E
3C3E
3C3C
7C3C
7C7C
7C7C
78FC
79F8
FB78
FE78
FEF8
FCF8
70F0
ENDCHAR
STARTCHAR uacute
ENCODING 250
SWIDTH 675 0
DWIDTH 16 0
BBX 15 17 2 0
BITMAP
003C
0070
01C0
0000
3E3E
3C3E
3C3C
7C3C
7C7C
7C7C
78FC
79F8
FB78
FE78
FEF8
FCF8
70F0
ENDCHAR
STARTCHAR ucircumflex
ENCODING 251
SWIDTH 675 0
DWIDTH 16 0
BBX 15 17 2 0
BITMAP
00F0
01F8
071C
0000
3E3E
3C3E
3C3C
7C3C
7C7C
7C7C
78FC
79F8
FB78
FE78
FEF8
FCF8
70F0
ENDCHAR
STARTCHAR udieresis
ENCODING 252
SWIDTH 675 0
DWIDTH 16 0
BBX 15 17 2 0
BITMAP
039C
039C
039C
0000
3E3E
3C3E
3C3C
7C3C
7C7C
7C7C
78FC
79F8
FB78
FE78
FEF8
FCF8
70F0
ENDCHAR
STARTCHAR yacute
ENCODING 253
SWIDTH 633 0
DWIDTH 15 0
BBX 17 22 1 -5
BITMAP
001E00
003800
00E000
000000
3E0780
3E0700
3E0E00
1E1E00
1F1C00
1F3800
1F7800
1F7000
0FE000
0FE000
0FC000
0F8000
0F8000
0F0000
1E0000
3E0000
7C0000
F80000
ENDCHAR
STARTCHAR thorn
ENCODING 254
SWIDTH 681 0
DWIDTH 16 0
BBX 16 22 1 -5
BITMAP
0F80
0F00
0F00
0F00
1F1E
1F3F
1E7F
1EFF
1F9F
3F1F
3E1E
3E3E
3C3C
3C7C
7FF8
7FE0
7FC0
7800
7800
F800
F800
F800
ENDCHAR
STARTCHAR ydieresis
ENCODING 255
SWIDTH 633 0
DWIDTH 15 0
BBX 17 22 1 -5
BITMAP
01CE00
01CE00
01CE00
000000
3E0780
3E0700
3E0E00
1E1E00
1F1C00
1F3800
1F7800
1F7000
0FE000
0FE000
0FC000
0F8000
0F8000
0F0000
1E0000
3E0000
7C0000
F80000
ENDCHAR
STARTCHAR Amacron
ENCODING 256
SWIDTH 771 0
DWIDTH 18 0
BBX 17 21 1 0
BITMAP
03FC00
03FC00
03FC00
000000
007C00
00FC00
00FC00
01FC00
01FE00
03FE00
039E00
079E00
071E00
0E1F00
0FFF00
1FFF00
3FFF00
380F00
780F80
700F80
F00780
ENDCHAR
STARTCHAR amacron
ENCODING 257
SWIDTH 681 0
DWIDTH 16 0
BBX 15 17 2 0
BITMAP
07F8
07F8
07F8
0000
03FE
07FE
1FFE
3E3C
3C3C
7C7C
787C
F8FC
F9F8
FB78
FE78
FCF8
78F8
ENDCHAR
STARTCHAR Abreve
ENCODING 258
SWIDTH 771 0
DWIDTH 18 0
BBX 17 21 1 0
BITMAP
038E00
03FC00
01F000
000000
007C00
00FC00
00FC00
01FC00
01FE00
03FE00
039E00
079E00
071E00
0E1F00
0FFF00
1FFF00
3FFF00
380F00
780F80
700F80
F00780
ENDCHAR
STARTCHAR abreve
ENCODING 259
SWIDTH 681 0
DWIDTH 16 0
BBX 15 17 2 0
BITMAP
071C
07F8
03E0
0000
03FE
07FE
1FFE
3E3C
3C3C
7C7C
787C
F8FC
F9F8
FB78
FE78
FCF8
78F8
ENDCHAR
STARTCHAR Aogonek
ENCODING 260
SWIDTH 771 0
DWIDTH 18 0
BBX 17 21 1 -4
BITMAP
007C00
00FC00
00FC00
01FC00
01FE00
03FE00
039E00
079E00
071E00
0E1F00
0FFF00
1FFF00
3FFF00
380F00
780F80
700F80
F00780
000000
01C000
038000
03E000
ENDCHAR
STARTCHAR aogonek
ENCODING 261
SWIDTH 681 0
DWIDTH 16 0
BBX 15 17 2 -4
BITMAP
03FE
07FE
1FFE
3E3C
3C3C
7C7C
787C
F8FC
F9F8
FB78
FE78
FCF8
78F8
0000
0700
0E00
0F80
ENDCHAR
STARTCHAR Cacute
ENCODING 262
SWIDTH 737 0
DWIDTH 18 0
BBX 17 21 2 0
BITMAP
003C00
007000
01C000
000000
00FF00
03FF80
0FFF80
1F8100
3F0000
3E0000
7C0000
780000
F80000
F80000
F80000
F80000
FC0000
7E0600
7FFC00
3FFC00
0FF000
ENDCHAR
STARTCHAR cacute
ENCODING 263
SWIDTH 548 0
DWIDTH 13 0
BBX 13 17 2 0
BITMAP
00F0
01C0
0700
0000
03F0
0FF8
1FF0
3E10
7C00
7C00
F800
F800
F800
F820
FFE0
7FE0
3F80
ENDCHAR
STARTCHAR Ccircumflex
ENCODING 264
SWIDTH 737 0
DWIDTH 18 0
BBX 17 21 2 0
BITMAP
00F000
01F800
071C00
000000
00FF00
03FF80
0FFF80
1F8100
3F0000
3E0000
7C0000
780000
F80000
F80000
F80000
F80000
FC0000
7E0600
7FFC00
3FFC00
0FF000
ENDCHAR
STARTCHAR ccircumflex
ENCODING 265
SWIDTH 548 0
DWIDTH 13 0
BBX 13 17 2 0
BITMAP
03C0
07E0
1C70
0000
03F0
0FF8
1FF0
3E10
7C00
7C00
F800
F800
F800
F820
FFE0
7FE0
3F80
ENDCHAR
STARTCHAR Cdotaccent
ENCODING 266
SWIDTH 737 0
DWIDTH 18 0
BBX 17 21 2 0
BITMAP
007000
00F000
00E000
000000
00FF00
03FF80
0FFF80
1F8100
3F0000
3E0000
7C0000
780000
F80000
F80000
F80000
F80000
FC0000
7E0600
7FFC00
3FFC00
0FF000
ENDCHAR
STARTCHAR cdotaccent
ENCODING 267
SWIDTH 548 0
DWIDTH 13 0
BBX 13 17 2 0
BITMAP
01C0
03C0
0380
0000
03F0
0FF8
1FF0
3E10
7C00
7C00
F800
F800
F800
F820
FFE0
7FE0
3F80
ENDCHAR
STARTCHAR Ccaron
ENCODING 268
SWIDTH 737 0
DWIDTH 18 0
BBX 17 21 2 0
BITMAP
071C00
03F000
01E000
000000
00FF00
03FF80
0FFF80
1F8100
3F0000
3E0000
7C0000
780000
F80000
F80000
F80000
F80000
FC0000
7E0600
7FFC00
3FFC00
0FF000
ENDCHAR
STARTCHAR ccaron
ENCODING 269
SWIDTH 548 0
DWIDTH 13 0
BBX 13 17 2 0
BITMAP
1C70
0FC0
0780
0000
03F0
0FF8
1FF0
3E10
7C00
7C00
F800
F800
F800
F820
FFE0
7FE0
3F80
ENDCHAR
STARTCHAR Dcaron
ENCODING 270
SWIDTH 822 0
DWIDTH 20 0
BBX 19 21 2 0
BITMAP
038E00
01F800
00F000
000000
1FFF00
1FFF80
1FFFC0
1F0FE0
1E03E0
3E03E0
3E03E0
3E03E0
3C03E0
3C03E0
7C07C0
7C0FC0
7C1F80
783F00
7FFE00
FFFC00
FFE000
ENDCHAR
STARTCHAR dcaron
ENCODING 271
SWIDTH 912 0
DWIDTH 21 0
BBX 22 18 2 0
BITMAP
001F7C
001F7C
001E7C
001E78
003E78
03FE38
07FEF0
1FFCE0
3E3C00
3C3C00
7C7C00
78FC00
F8F800
F97800
FB7800
FEF800
FCF800
78F000
ENDCHAR
STARTCHAR Dcroat
ENCODING 272
SWIDTH 822 0
DWIDTH 20 0
BBX 20 17 1 0
BITMAP
0FFF80
0FFFC0
0FFFE0
0F07F0
1F01F0
1F01F0
1F01F0
FFE1F0
FFE1F0
FFE1E0
3E03E0
3E07E0
3C0FC0
3C1F80
7FFF00
7FFE00
7FF000
ENDCHAR
STARTCHAR dcroat
ENCODING 273
SWIDTH 681 0
DWIDTH 16 0
BBX 16 18 2 0
BITMAP
001F
001F
00FF
00FF
00FF
03FE
07FE
1FFC
3E3C
3C3C
7C7C
78FC
F8F8
F978
FB78
FEF8
FCF8
78F0
ENDCHAR
STARTCHAR Emacron
ENCODING 274
SWIDTH 642 0
DWIDTH 15 0
BBX 15 21 2 0
BITMAP
0FF0
0FF0
0FF0
0000
1FFE
1FFE
1FFE
1E00
1E00
3E00
3E00
3FF0
3FF0
3FF0
7C00
7C00
7800
7800
7FF8
FFF0
FFF0
ENDCHAR
STARTCHAR emacron
ENCODING 275
SWIDTH 612 0
DWIDTH 15 0
BBX 13 17 2 0
BITMAP
1FE0
1FE0
1FE0
0000
03E0
0FF0
1FF8
3C78
78F0
7FF0
FFC0
FF00
F808
F838
FFF8
7FF0
1F80
ENDCHAR
STARTCHAR Ebreve
ENCODING 276
SWIDTH 642 0
DWIDTH 15 0
BBX 15 21 2 0
BITMAP
0E38
0FF0
07C0
0000
1FFE
1FFE
1FFE
1E00
1E00
3E00
3E00
3FF0
3FF0
3FF0
7C00
7C00
7800
7800
7FF8
FFF0
FFF0
ENDCHAR
STARTCHAR ebreve
ENCODING 277
SWIDTH 612 0
DWIDTH 15 0
BBX 13 17 2 0
BITMAP
0E38
0FF0
07C0
0000
03E0
0FF0
1FF8
3C78
78F0
7FF0
FFC0
FF00
F808
F838
FFF8
7FF0
1F80
ENDCHAR
STARTCHAR Edotaccent
ENCODING 278
SWIDTH 642 0
DWIDTH 15 0
BBX 15 21 2 0
BITMAP
01C0
03C0
0380
0000
1FFE
1FFE
1FFE
1E00
1E00
3E00
3E00
3FF0
3FF0
3FF0
7C00
7C00
7800
7800
7FF8
FFF0
FFF0
ENDCHAR
STARTCHAR edotaccent
ENCODING 279
SWIDTH 612 0
DWIDTH 15 0
BBX 13 17 2 0
BITMAP
01C0
03C0
0380
0000
03E0
0FF0
1FF8
3C78
78F0
7FF0
FFC0
FF00
F808
F838
FFF8
7FF0
1F80
ENDCHAR
STARTCHAR Eogonek
ENCODING 280
SWIDTH 642 0
DWIDTH 15 0
BBX 15 21 2 -4
BITMAP
1FFE
1FFE
1FFE
1E00
1E00
3E00
3E00
3FF0
3FF0
3FF0
7C00
7C00
7800
7800
7FF8
FFF0
FFF0
0000
0700
0E00
0F80
ENDCHAR
STARTCHAR eogonek
ENCODING 281
SWIDTH 612 0
DWIDTH 15 0
BBX 13 17 2 -4
BITMAP
03E0
0FF0
1FF8
3C78
78F0
7FF0
FFC0
FF00
F808
F838
FFF8
7FF0
1F80
0000
0700
0E00
0F80
ENDCHAR
STARTCHAR Ecaron
ENCODING 282
SWIDTH 642 0
DWIDTH 15 0
BBX 15 21 2 0
BITMAP
0E38
07E0
03C0
0000
1FFE
1FFE
1FFE
1E00
1E00
3E00
3E00
3FF0
3FF0
3FF0
7C00
7C00
7800
7800
7FF8
FFF0
FFF0
ENDCHAR
STARTCHAR ecaron
ENCODING 283
SWIDTH 612 0
DWIDTH 15 0
BBX 13 17 2 0
BITMAP
1C70
0FC0
0780
0000
03E0
0FF0
1FF8
3C78
78F0
7FF0
FFC0
FF00
F808
F838
FFF8
7FF0
1F80
ENDCHAR
STARTCHAR Gcircumflex
ENCODING 284
SWIDTH 755 0
DWIDTH 18 0
BBX 17 21 2 0
BITMAP
00F000
01F800
071C00
000000
00FF00
03FF80
0FFF80
1F8100
3E0000
3E0000
7C0000
780000
F81E00
F81E00
F81E00
F81E00
FC3E00
7E3C00
7FFC00
3FFC00
0FF800
ENDCHAR
STARTCHAR gcircumflex
ENCODING 285
SWIDTH 674 0
DWIDTH 16 0
BBX 16 22 1 -5
BITMAP
00F0
01F8
071C
0000
01FF
07FF
0FFF
1F1E
3E3E
3C3E
7C7E
78FE
79BC
7FBC
7F7C
7E7C
3C7C
80F8
E0F8
FFF0
7FE0
7F80
ENDCHAR
STARTCHAR Gbreve
ENCODING 286
SWIDTH 755 0
DWIDTH 18 0
BBX 17 21 2 0
BITMAP
038E00
03FC00
01F000
000000
00FF00
03FF80
0FFF80
1F8100
3E0000
3E0000
7C0000
780000
F81E00
F81E00
F81E00
F81E00
FC3E00
7E3C00
7FFC00
3FFC00
0FF800
ENDCHAR
STARTCHAR gbreve
ENCODING 287
SWIDTH 674 0
DWIDTH 16 0
BBX 16 22 1 -5
BITMAP
071C
07F8
03E0
0000
01FF
07FF
0FFF
1F1E
3E3E
3C3E
7C7E
78FE
79BC
7FBC
7F7C
7E7C
3C7C
80F8
E0F8
FFF0
7FE0
7F80
ENDCHAR
STARTCHAR Gdotaccent
ENCODING 288
SWIDTH 755 0
DWIDTH 18 0
BBX 17 21 2 0
BITMAP
007000
00F000
00E000
000000
00FF00
03FF80
0FFF80
1F8100
3E0000
3E0000
7C0000
780000
F81E00
F81E00
F81E00
F81E00
FC3E00
7E3C00
7FFC00
3FFC00
0FF800
ENDCHAR
STARTCHAR gdotaccent
ENCODING 289
SWIDTH 674 0
DWIDTH 16 0
BBX 16 22 1 -5
BITMAP
0070
00F0
00E0
0000
01FF
07FF
0FFF
1F1E
3E3E
3C3E
7C7E
78FE
79BC
7FBC
7F7C
7E7C
3C7C
80F8
E0F8
FFF0
7FE0
7F80
ENDCHAR
STARTCHAR Gcommaaccent
ENCODING 290
SWIDTH 755 0
DWIDTH 18 0
BBX 17 27 2 -10
BITMAP
00FF00
03FF80
0FFF80
1F8100
3E0000
3E0000
7C0000
780000
F81E00
F81E00
F81E00
F81E00
FC3E00
7E3C00
7FFC00
3FFC00
0FF800
000000
03E000
03E000
03E000
03C000
03C000
01C000
01C000
078000
070000
ENDCHAR
STARTCHAR gcommaaccent
ENCODING 291
SWIDTH 674 0
DWIDTH 16 0
BBX 16 27 1 -5
BITMAP
0030
00F0
00F0
01C0
01E0
01E0
03E0
03E0
0000
01FF
07FF
0FFF
1F1E
3E3E
3C3E
7C7E
78FE
79BC
7FBC
7F7C
7E7C
3C7C
80F8
E0F8
FFF0
7FE0
7F80
ENDCHAR
STARTCHAR Hcircumflex
ENCODING 292
SWIDTH 813 0
DWIDTH 20 0
BBX 19 21 2 0
BITMAP
007800
00FC00
038E00
000000
1F03E0
1F03E0
1F03C0
1E03C0
1E07C0
3E07C0
3E07C0
3FFF80
3FFF80
3FFF80
7C0F80
7C0F80
7C0F00
780F00
781F00
F81F00
F81F00
ENDCHAR
STARTCHAR hcircumflex
ENCODING 293
SWIDTH 675 0
DWIDTH 16 0
BBX 15 22 2 0
BITMAP
0780
0FC0
38E0
0000
0F00
1F00
1F00
1F00
1F00
1E1C
3E7E
3EFE
3EFE
3DBE
3F3C
7E3C
7C7C
7C7C
787C
7878
F878
F8F8
ENDCHAR
STARTCHAR Hbar
ENCODING 294
SWIDTH 813 0
DWIDTH 20 0
BBX 19 17 2 0
BITMAP
1F03E0
1F03E0
FFFFE0
FFFFE0
FFFFE0
3E07C0
3E07C0
3FFF80
3FFF80
3FFF80
7C0F80
7C0F80
7C0F00
780F00
781F00
F81F00
F81F00
ENDCHAR
STARTCHAR hbar
ENCODING 295
SWIDTH 675 0
DWIDTH 16 0
BBX 15 18 2 0
BITMAP
0F00
1F00
FF00
FF00
FF00
1E1C
3E7E
3EFE
3EFE
3DBE
3F3C
7E3C
7C7C
7C7C
787C
7878
F878
F8F8
ENDCHAR
STARTCHAR Itilde
ENCODING 296
SWIDTH 361 0
DWIDTH 9 0
BBX 10 21 2 0
BITMAP
1DC0
3F80
7780
0000
1F00
1F00
1E00
1E00
1E00
3E00
3E00
3C00
3C00
3C00
7C00
7C00
7800
7800
7800
F800
F800
ENDCHAR
STARTCHAR itilde
ENCODING 297
SWIDTH 343 0
DWIDTH 8 0
BBX 9 17 2 0
BITMAP
3B80
7F00
EF00
0000
3E00
3E00
3E00
3C00
3C00
7C00
7C00
7C00
7800
7800
F800
F800
F800
ENDCHAR
STARTCHAR Imacron
ENCODING 298
SWIDTH 361 0
DWIDTH 9 0
BBX 9 21 2 0
BITMAP
7F80
7F80
7F80
0000
1F00
1F00
1E00
1E00
1E00
3E00
3E00
3C00
3C00
3C00
7C00
7C00
7800
7800
7800
F800
F800
ENDCHAR
STARTCHAR imacron
ENCODING 299
SWIDTH 343 0
DWIDTH 8 0
BBX 8 17 2 0
BITMAP
FF
FF
FF
00
3E
3E
3E
3C
3C
7C
7C
7C
78
78
F8
F8
F8
ENDCHAR
STARTCHAR Ibreve
ENCODING 300
SWIDTH 361 0
DWIDTH 9 0
BBX 10 21 2 0
BITMAP
71C0
7F80
3E00
0000
1F00
1F00
1E00
1E00
1E00
3E00
3E00
3C00
3C00
3C00
7C00
7C00
7800
7800
7800
F800
F800
ENDCHAR
STARTCHAR ibreve
ENCODING 301
SWIDTH 343 0
DWIDTH 8 0
BBX 9 17 2 0
BITMAP
E380
FF00
7C00
0000
3E00
3E00
3E00
3C00
3C00
7C00
7C00
7C00
7800
7800
F800
F800
F800
ENDCHAR
STARTCHAR Iogonek
ENCODING 302
SWIDTH 361 0
DWIDTH 9 0
BBX 8 21 2 -4
BITMAP
1F
1F
1E
1E
1E
3E
3E
3C
3C
3C
7C
7C
78
78
78
F8
F8
00
38
70
7C
ENDCHAR
STARTCHAR iogonek
ENCODING 303
SWIDTH 343 0
DWIDTH 8 0
BBX 8 22 2 -4
BITMAP
1F
1F
1F
1E
00
3E
3E
3C
3C
3C
7C
7C
78
78
78
F8
F8
F8
00
38
70
7C
ENDCHAR
STARTCHAR Idotaccent
ENCODING 304
SWIDTH 361 0
DWIDTH 9 0
BBX 8 21 2 0
BITMAP
0E
1E
1C
00
1F
1F
1E
1E
1E
3E
3E
3C
3C
3C
7C
7C
78
78
78
F8
F8
ENDCHAR
STARTCHAR dotlessi
ENCODING 305
SWIDTH 343 0
DWIDTH 8 0
BBX 7 13 2 0
BITMAP
3E
3E
3E
3C
3C
7C
7C
7C
78
78
F8
F8
F8
ENDCHAR
STARTCHAR IJ
ENCODING 306
SWIDTH 845 0
DWIDTH 21 0
BBX 21 21 2 -4
BITMAP
1F00F8
1F00F8
1E00F0
1E00F0
1E01F0
3E01F0
3E01F0
3C01E0
3C01E0
3C03E0
7C03E0
7C03E0
7803C0
7803C0
7807C0
F807C0
F807C0
008F80
01FF80
01FF00
01FC00
ENDCHAR
STARTCHAR ij
ENCODING 307
SWIDTH 733 0
DWIDTH 18 0
BBX 19 23 2 -5
BITMAP
1F03E0
1F03E0
1F03E0
1E03C0
000000
3E07C0
3E07C0
3C0780
3C0780
3C0F80
7C0F80
7C0F80
780F00
780F00
781F00
F81F00
F81F00
F81E00
003E00
063C00
07FC00
07F800
03E000
ENDCHAR
STARTCHAR Jcircumflex
ENCODING 308
SWIDTH 502 0
DWIDTH 12 0
BBX 14 25 0 -4
BITMAP
00F0
01F8
071C
0000
007C
007C
0078
0078
00F8
00F8
00F8
00F0
00F0
01F0
01F0
01F0
01E0
01E0
03E0
03E0
03E0
47C0
FFC0
FF80
FE00
ENDCHAR
STARTCHAR jcircumflex
ENCODING 309
SWIDTH 407 0
DWIDTH 10 0
BBX 14 22 -1 -5
BITMAP
00F0
01F8
071C
0000
00F8
00F8
00F0
00F0
01F0
01F0
01F0
01E0
01E0
03E0
03E0
03E0
03C0
07C0
C780
FF80
FF00
7C00
ENDCHAR
STARTCHAR Kcommaaccent
ENCODING 310
SWIDTH 753 0
DWIDTH 18 0
BBX 16 27 2 -10
BITMAP
1F0F
1F1E
1E3C
1E38
3E78
3EF0
3FE0
3DC0
3FE0
7FE0
7DF0
7DF0
78F8
78FC
F87C
F83E
F83F
0000
07C0
07C0
07C0
0780
0780
0380
0380
0F00
0E00
ENDCHAR
STARTCHAR kcommaaccent
ENCODING 311
SWIDTH 666 0
DWIDTH 16 0
BBX 15 28 2 -10
BITMAP
1F00
1F00
1F00
1E00
1E00
3E1E
3E3C
3E78
3C70
3CE0
7DC0
7FE0
7FE0
79E0
79F0
F8F0
F8F8
F8FC
0000
0F80
0F80
0F80
0F00
0F00
0700
0700
1E00
1C00
ENDCHAR
STARTCHAR kgreenlandic
ENCODING 312
SWIDTH 666 0
DWIDTH 16 0
BBX 15 13 2 0
BITMAP
3E1E
3E3C
3E78
3C70
3CE0
7DC0
7FE0
7FE0
79E0
79F0
F8F0
F8F8
F8FC
ENDCHAR
STARTCHAR Lacute
ENCODING 313
SWIDTH 623 0
DWIDTH 15 0
BBX 13 21 2 0
BITMAP
03C0
0700
1C00
0000
1F00
1F00
1E00
1E00
1E00
3E00
3E00
3C00
3C00
3C00
7C00
7C00
7800
7800
7FF8
FFF8
FFF8
ENDCHAR
STARTCHAR lacute
ENCODING 314
SWIDTH 343 0
DWIDTH 8 0
BBX 10 22 2 0
BITMAP
03C0
0700
1C00
0000
1F00
1F00
1F00
1E00
1E00
3E00
3E00
3E00
3C00
3C00
7C00
7C00
7C00
7800
7800
F800
F800
F800
ENDCHAR
STARTCHAR Lcommaaccent
ENCODING 315
SWIDTH 623 0
DWIDTH 15 0
BBX 13 27 2 -10
BITMAP
1F00
1F00
1E00
1E00
1E00
3E00
3E00
3C00
3C00
3C00
7C00
7C00
7800
7800
7FF8
FFF8
FFF8
0000
0F80
0F80
0F80
0F00
0F00
0700
0700
1E00
1C00
ENDCHAR
STARTCHAR lcommaaccent
ENCODING 316
SWIDTH 343 0
DWIDTH 8 0
BBX 8 28 2 -10
BITMAP
1F
1F
1F
1E
1E
3E
3E
3E
3C
3C
7C
7C
7C
78
78
F8
F8
F8
00
7C
7C
7C
78
78
38
38
F0
E0
ENDCHAR
STARTCHAR Lcaron
ENCODING 317
SWIDTH 857 0
DWIDTH 20 0
BBX 21 18 2 0
BITMAP
0000F8
1F00F8
1F00F8
1E00F0
1E00F0
1E0070
3E01E0
3E01C0
3C0000
3C0000
3C0000
7C0000
7C0000
780000
780000
7FF800
FFF800
FFF800
ENDCHAR
STARTCHAR lcaron
ENCODING 318
SWIDTH 591 0
DWIDTH 14 0
BBX 15 18 2 0
BITMAP
1F3E
1F3E
1F3E
1E3C
1E3C
3E1C
3E78
3E70
3C00
3C00
7C00
7C00
7C00
7800
7800
F800
F800
F800
ENDCHAR
STARTCHAR Ldot
ENCODING 319
SWIDTH 935 0
DWIDTH 30 0
BBX 24 17 2 0
BITMAP
1F0000
1F0000
1E0000
1E0000
1E0000
3E0000
3E0000
3C0000
3C0007
3C000F
7C000E
7C0000
780000
780000
7FF800
FFF800
FFF800
ENDCHAR
STARTCHAR ldot
ENCODING 320
SWIDTH 669 0
DWIDTH 24 0
BBX 18 18 2 0
BITMAP
1F0000
1F0000
1F0000
1E0000
1E0000
3E0000
3E0000
3E0000
3C0000
3C01C0
7C03C0
7C0380
7C0000
780000
780000
F80000
F80000
F80000
ENDCHAR
STARTCHAR Lslash
ENCODING 321
SWIDTH 623 0
DWIDTH 15 0
BBX 15 17 0 0
BITMAP
07C0
07C0
0F80
0F80
0FA0
0FE0
0FE0
1FC0
3F00
7F00
FF00
DE00
3E00
3E00
3FFE
3FFE
7FFE
ENDCHAR
STARTCHAR lslash
ENCODING 322
SWIDTH 343 0
DWIDTH 8 0
BBX 11 18 1 0
BITMAP
07C0
0780
0F80
0F80
0FA0
0FE0
0FC0
1FC0
1F00
7F00
FE00
DE00
BE00
3E00
3E00
3C00
3C00
7C00
ENDCHAR
STARTCHAR Nacute
ENCODING 323
SWIDTH 789 0
DWIDTH 19 0
BBX 18 21 2 0
BITMAP
003C00
007000
01C000
000000
1E03C0
1F03C0
1F03C0
1F8380
3F8380
3FC780
3FC780
3BE780
39E700
79F700
78FF00
78FF00
707F00
707E00
F03E00
F03E00
F01E00
ENDCHAR
STARTCHAR nacute
ENCODING 324
SWIDTH 675 0
DWIDTH 16 0
BBX 15 17 2 0
BITMAP
0078
00E0
0380
0000
1E1C
3E7E
3EFE
3DFE
3DBE
3F3C
7E3C
7C7C
7C7C
787C
7878
F878
F8F8
ENDCHAR
STARTCHAR Ncommaaccent
ENCODING 325
SWIDTH 789 0
DWIDTH 19 0
BBX 18 27 2 -10
BITMAP
1E03C0
1F03C0
1F03C0
1F8380
3F8380
3FC780
3FC780
3BE780
39E700
79F700
78FF00
78FF00
707F00
707E00
F03E00
F03E00
F01E00
000000
03E000
03E000
03E000
03C000
03C000
01C000
01C000
078000
070000
ENDCHAR
STARTCHAR ncommaaccent
ENCODING 326
SWIDTH 675 0
DWIDTH 16 0
BBX 15 23 2 -10
BITMAP
1E1C
3E7E
3EFE
3DFE
3DBE
3F3C
7E3C
7C7C
7C7C
787C
7878
F878
F8F8
0000
07C0
07C0
07C0
0780
0780
0380
0380
0F00
0E00
ENDCHAR
STARTCHAR Ncaron
ENCODING 327
SWIDTH 789 0
DWIDTH 19 0
BBX 18 21 2 0
BITMAP
071C00
03F000
01E000
000000
1E03C0
1F03C0
1F03C0
1F8380
3F8380
3FC780
3FC780
3BE780
39E700
79F700
78FF00
78FF00
707F00
707E00
F03E00
F03E00
F01E00
ENDCHAR
STARTCHAR ncaron
ENCODING 328
SWIDTH 675 0
DWIDTH 16 0
BBX 15 17 2 0
BITMAP
0E38
07E0
03C0
0000
1E1C
3E7E
3EFE
3DFE
3DBE
3F3C
7E3C
7C7C
7C7C
787C
7878
F878
F8F8
ENDCHAR
STARTCHAR napostrophe
ENCODING 329
SWIDTH 927 0
DWIDTH 22 0
BBX 20 18 3 0
BITMAP
7C0000
7C0000
7C0000
780000
780000
38F0E0
F1F3F0
E1F7F0
01EFF0
01EDF0
01F9E0
03F1E0
03E3E0
03E3E0
03C3E0
03C3C0
07C3C0
07C7C0
ENDCHAR
STARTCHAR Eng
ENCODING 330
SWIDTH 789 0
DWIDTH 19 0
BBX 18 22 2 -5
BITMAP
1E03C0
1F03C0
1F03C0
1F8380
3F8380
3FC780
3FC780
3BE780
39E700
79F700
78FF00
78FF00
707F00
707F00
F03F00
F03F00
F01E00
003E00
063C00
07FC00
07F800
03E000
ENDCHAR
STARTCHAR eng
ENCODING 331
SWIDTH 675 0
DWIDTH 16 0
BBX 15 18 2 -5
BITMAP
1E1C
3E7E
3EFE
3DFE
3DBE
3F3C
7E3C
7C7C
7C3C
787C
787C
F87C
F878
00F8
18F0
1FF0
1FE0
0F80
ENDCHAR
STARTCHAR Omacron
ENCODING 332
SWIDTH 855 0
DWIDTH 21 0
BBX 19 21 2 0
BITMAP
01FE00
01FE00
01FE00
000000
00FE00
03FF80
0FFFC0
1F87E0
3E03E0
3C03E0
7C03E0
7803E0
F803E0
F803E0
F807C0
F807C0
F80F80
7C3F00
7FFE00
3FF800
0FE000
ENDCHAR
STARTCHAR omacron
ENCODING 333
SWIDTH 663 0
DWIDTH 16 0
BBX 15 17 2 0
BITMAP
0FF0
0FF0
0FF0
0000
03F0
0FFC
1FFC
3E7E
7C3E
783E
F83C
F83C
F878
F8F8
FFF0
7FE0
1F00
ENDCHAR
STARTCHAR Obreve
ENCODING 334
SWIDTH 855 0
DWIDTH 21 0
BBX 19 21 2 0
BITMAP
01C700
01FE00
00F800
000000
00FE00
03FF80
0FFFC0
1F87E0
3E03E0
3C03E0
7C03E0
7803E0
F803E0
F803E0
F807C0
F807C0
F80F80
7C3F00
7FFE00
3FF800
0FE000
ENDCHAR
STARTCHAR obreve
ENCODING 335
SWIDTH 663 0
DWIDTH 16 0
BBX 15 17 2 0
BITMAP
0E38
0FF0
07C0
0000
03F0
0FFC
1FFC
3E7E
7C3E
783E
F83C
F83C
F878
F8F8
FFF0
7FE0
1F00
ENDCHAR
STARTCHAR Ohungarumlaut
ENCODING 336
SWIDTH 855 0
DWIDTH 21 0
BBX 19 21 2 0
BITMAP
003B80
006600
01DC00
000000
00FE00
03FF80
0FFFC0
1F87E0
3E03E0
3C03E0
7C03E0
7803E0
F803E0
F803E0
F807C0
F807C0
F80F80
7C3F00
7FFE00
3FF800
0FE000
ENDCHAR
STARTCHAR ohungarumlaut
ENCODING 337
SWIDTH 663 0
DWIDTH 16 0
BBX 15 17 2 0
BITMAP
01DC
0330
0EE0
0000
03F0
0FFC
1FFC
3E7E
7C3E
783E
F83C
F83C
F878
F8F8
FFF0
7FE0
1F00
ENDCHAR
STARTCHAR OE
ENCODING 338
SWIDTH 1103 0
DWIDTH 26 0
BBX 26 17 2 0
BITMAP
00FFFFC0
03FFFFC0
0FFFFF80
1F8FC000
3E07C000
3C07C000
7C078000
7807FE00
F80FFE00
F80FFE00
F80F8000
F80F8000
F81F0000
7C1F0000
7FFFFF00
3FFFFE00
0FFFFE00
ENDCHAR
STARTCHAR oe
ENCODING 339
SWIDTH 1004 0
DWIDTH 24 0
BBX 22 13 2 0
BITMAP
03F0F0
0FFBF8
1FFFFC
3E7E3C
7C3C78
783FF8
F83FE0
F87FC0
F87C04
F8FE1C
FFFFFC
7FDFF8
1F0FC0
ENDCHAR
STARTCHAR Racute
ENCODING 340
SWIDTH 708 0
DWIDTH 17 0
BBX 16 21 2 0
BITMAP
003C
0070
01C0
0000
1FFC
1FFF
1FFF
1E1F
1E1F
3E1E
3E3E
3CFC
3FF8
3FF0
7CF0
7CF0
78F8
7878
787C
F87C
F83E
ENDCHAR
STARTCHAR racute
ENCODING 341
SWIDTH 542 0
DWIDTH 13 0
BBX 13 17 2 0
BITMAP
00F0
01C0
0700
0000
3E38
3E70
3EF0
3DF0
3D80
7F00
7E00
7C00
7C00
7800
F800
F800
F800
ENDCHAR
STARTCHAR Rcommaaccent
ENCODING 342
SWIDTH 708 0
DWIDTH 17 0
BBX 16 27 2 -10
BITMAP
1FFC
1FFF
1FFF
1E1F
1E1F
3E1E
3E3E
3CFC
3FF8
3FF0
7CF0
7CF0
78F8
7878
787C
F87C
F83E
0000
07C0
07C0
07C0
0780
0780
0380
0380
0F00
0E00
ENDCHAR
STARTCHAR rcommaaccent
ENCODING 343
SWIDTH 542 0
DWIDTH 13 0
BBX 13 23 2 -10
BITMAP
3E38
3E70
3EF0
3DF0
3D80
7F00
7E00
7C00
7C00
7800
F800
F800
F800
0000
3E00
3E00
3E00
3C00
3C00
1C00
1C00
7800
7000
ENDCHAR
STARTCHAR Rcaron
ENCODING 344
SWIDTH 708 0
DWIDTH 17 0
BBX 16 21 2 0
BITMAP
071C
03F0
01E0
0000
1FFC
1FFF
1FFF
1E1F
1E1F
3E1E
3E3E
3CFC
3FF8
3FF0
7CF0
7CF0
78F8
7878
787C
F87C
F83E
ENDCHAR
STARTCHAR rcaron
ENCODING 345
SWIDTH 542 0
DWIDTH 13 0
BBX 13 17 2 0
BITMAP
1C70
0FC0
0780
0000
3E38
3E70
3EF0
3DF0
3D80
7F00
7E00
7C00
7C00
7800
F800
F800
F800
ENDCHAR
STARTCHAR Sacute
ENCODING 346
SWIDTH 639 0
DWIDTH 15 0
BBX 14 21 2 0
BITMAP
0078
00E0
0380
0000
03F8
0FFC
1FFC
1E0C
3E00
3E00
3F00
1FC0
0FE0
07F0
01F8
00F8
00F8
41F0
FFF0
FFE0
FF00
ENDCHAR
STARTCHAR sacute
ENCODING 347
SWIDTH 527 0
DWIDTH 13 0
BBX 12 17 1 0
BITMAP
00F0
01C0
0700
0000
07F0
1FF0
1FE0
3E00
1E00
1F00
0F80
07C0
03E0
43E0
FFC0
FFC0
7F00
ENDCHAR
STARTCHAR Scircumflex
ENCODING 348
SWIDTH 639 0
DWIDTH 15 0
BBX 14 21 2 0
BITMAP
03C0
07E0
1C70
0000
03F8
0FFC
1FFC
1E0C
3E00
3E00
3F00
1FC0
0FE0
07F0
01F8
00F8
00F8
41F0
FFF0
FFE0
FF00
ENDCHAR
STARTCHAR scircumflex
ENCODING 349
SWIDTH 527 0
DWIDTH 13 0
BBX 12 17 1 0
BITMAP
0780
0FC0
38E0
0000
07F0
1FF0
1FE0
3E00
1E00
1F00
0F80
07C0
03E0
43E0
FFC0
FFC0
7F00
ENDCHAR
STARTCHAR Scedilla
ENCODING 350
SWIDTH 639 0
DWIDTH 15 0
BBX 14 22 2 -5
BITMAP
03F8
0FFC
1FFC
1E0C
3E00
3E00
3F00
1FC0
0FE0
07F0
01F8
00F8
00F8
41F0
FFF0
FFE0
FF00
0380
0700
0380
0180
0F00
ENDCHAR
STARTCHAR scedilla
ENCODING 351
SWIDTH 527 0
DWIDTH 13 0
BBX 12 18 1 -5
BITMAP
07F0
1FF0
1FE0
3E00
1E00
1F00
0F80
07C0
03E0
43E0
FFC0
FFC0
7F00
0700
0E00
0700
0300
1E00
ENDCHAR
STARTCHAR Scaron
ENCODING 352
SWIDTH 639 0
DWIDTH 15 0
BBX 14 21 2 0
BITMAP
071C
03F0
01E0
0000
03F8
0FFC
1FFC
1E0C
3E00
3E00
3F00
1FC0
0FE0
07F0
01F8
00F8
00F8
41F0
FFF0
FFE0
FF00
ENDCHAR
STARTCHAR scaron
ENCODING 353
SWIDTH 527 0
DWIDTH 13 0
BBX 14 17 1 0
BITMAP
071C
03F0
01E0
0000
07F0
1FF0
1FE0
3E00
1E00
1F00
0F80
07C0
03E0
43E0
FFC0
FFC0
7F00
ENDCHAR
STARTCHAR Tcommaaccent
ENCODING 354
SWIDTH 747 0
DWIDTH 18 0
BBX 18 22 3 -5
BITMAP
FFFFC0
FFFFC0
FFFFC0
03E000
03E000
03C000
03C000
07C000
07C000
07C000
078000
078000
0F8000
0F8000
0F8000
0F0000
1F0000
038000
070000
038000
018000
0F0000
ENDCHAR
STARTCHAR tcommaaccent
ENCODING 355
SWIDTH 437 0
DWIDTH 10 0
BBX 9 21 3 -5
BITMAP
0E00
3E00
3E00
FF80
FF80
FF80
7C00
7C00
7C00
7800
7800
F800
F800
FF00
FE00
7E00
1C00
3800
1C00
0C00
7800
ENDCHAR
STARTCHAR Tcaron
ENCODING 356
SWIDTH 747 0
DWIDTH 18 0
BBX 18 21 3 0
BITMAP
071C00
03F000
01E000
000000
FFFFC0
FFFFC0
FFFFC0
03E000
03E000
03C000
03C000
07C000
07C000
07C000
078000
078000
0F8000
0F8000
0F8000
0F0000
1F0000
ENDCHAR
STARTCHAR tcaron
ENCODING 357
SWIDTH 680 0
DWIDTH 16 0
BBX 16 18 3 0
BITMAP
001F
001F
0E1F
3E1E
3E1E
FF8E
FFBC
FFB8
7C00
7C00
7C00
7800
7800
F800
F800
FF00
FE00
7E00
ENDCHAR
STARTCHAR Tbar
ENCODING 358
SWIDTH 747 0
DWIDTH 18 0
BBX 18 17 3 0
BITMAP
FFFFC0
FFFFC0
FFFFC0
03E000
03E000
03C000
03C000
07F800
07F800
07F800
078000
078000
0F8000
0F8000
0F8000
0F0000
1F0000
ENDCHAR
STARTCHAR tbar
ENCODING 359
SWIDTH 437 0
DWIDTH 10 0
BBX 9 16 3 0
BITMAP
0E00
3E00
3E00
FF80
FF80
FF80
7C00
7F80
7F80
7F80
7800
F800
F800
FF00
FE00
7E00
ENDCHAR
STARTCHAR Utilde
ENCODING 360
SWIDTH 759 0
DWIDTH 18 0
BBX 17 21 3 0
BITMAP
01DC00
03F800
077800
000000
3E0780
3E0780
3C0F80
3C0F00
7C0F00
7C0F00
7C0F00
781F00
781E00
F81E00
F81E00
F81E00
F83C00
FC7C00
7FF800
3FF000
0FC000
ENDCHAR
STARTCHAR utilde
ENCODING 361
SWIDTH 675 0
DWIDTH 16 0
BBX 15 17 2 0
BITMAP
03B8
07F0
0EF0
0000
3E3E
3C3E
3C3C
7C3C
7C7C
7C7C
78FC
79F8
FB78
FE78
FEF8
FCF8
70F0
ENDCHAR
STARTCHAR Umacron
ENCODING 362
SWIDTH 759 0
DWIDTH 18 0
BBX 17 21 3 0
BITMAP
07F800
07F800
07F800
000000
3E0780
3E0780
3C0F80
3C0F00
7C0F00
7C0F00
7C0F00
781F00
781E00
F81E00
F81E00
F81E00
F83C00
FC7C00
7FF800
3FF000
0FC000
ENDCHAR
STARTCHAR umacron
ENCODING 363
SWIDTH 675 0
DWIDTH 16 0
BBX 15 17 2 0
BITMAP
0FF0
0FF0
0FF0
0000
3E3E
3C3E
3C3C
7C3C
7C7C
7C7C
78FC
79F8
FB78
FE78
FEF8
FCF8
70F0
ENDCHAR
STARTCHAR Ubreve
ENCODING 364
SWIDTH 759 0
DWIDTH 18 0
BBX 17 21 3 0
BITMAP
071C00
07F800
03E000
000000
3E0780
3E0780
3C0F80
3C0F00
7C0F00
7C0F00
7C0F00
781F00
781E00
F81E00
F81E00
F81E00
F83C00
FC7C00
7FF800
3FF000
0FC000
ENDCHAR
STARTCHAR ubreve
ENCODING 365
SWIDTH 675 0
DWIDTH 16 0
BBX 15 17 2 0
BITMAP
0E38
0FF0
07C0
0000
3E3E
3C3E
3C3C
7C3C
7C7C
7C7C
78FC
79F8
FB78
FE78
FEF8
FCF8
70F0
ENDCHAR
STARTCHAR Uring
ENCODING 366
SWIDTH 759 0
DWIDTH 18 0
BBX 17 22 3 0
BITMAP
00C000
012000
012000
00C000
000000
3E0780
3E0780
3C0F80
3C0F00
7C0F00
7C0F00
7C0F00
781F00
781E00
F81E00
F81E00
F81E00
F83C00
FC7C00
7FF800
3FF000
0FC000
ENDCHAR
STARTCHAR uring
ENCODING 367
SWIDTH 675 0
DWIDTH 16 0
BBX 15 18 2 0
BITMAP
0180
0240
0240
0180
0000
3E3E
3C3E
3C3C
7C3C
7C7C
7C7C
78FC
79F8
FB78
FE78
FEF8
FCF8
70F0
ENDCHAR
STARTCHAR Uhungarumlaut
ENCODING 368
SWIDTH 759 0
DWIDTH 18 0
BBX 17 21 3 0
BITMAP
00EE00
019800
077000
000000
3E0780
3E0780
3C0F80
3C0F00
7C0F00
7C0F00
7C0F00
781F00
781E00
F81E00
F81E00
F81E00
F83C00
FC7C00
7FF800
3FF000
0FC000
ENDCHAR
STARTCHAR uhungarumlaut
ENCODING 369
SWIDTH 675 0
DWIDTH 16 0
BBX 15 17 2 0
BITMAP
01DC
0330
0EE0
0000
3E3E
3C3E
3C3C
7C3C
7C7C
7C7C
78FC
79F8
FB78
FE78
FEF8
FCF8
70F0
ENDCHAR
STARTCHAR Uogonek
ENCODING 370
SWIDTH 759 0
DWIDTH 18 0
BBX 17 21 3 -4
BITMAP
3E0780
3E0780
3C0F80
3C0F00
7C0F00
7C0F00
7C0F00
781F00
781E00
F81E00
F81E00
F81E00
F83C00
FC7C00
7FF800
3FF000
0FC000
000000
038000
070000
07C000
ENDCHAR
STARTCHAR uogonek
ENCODING 371
SWIDTH 675 0
DWIDTH 16 0
BBX 15 17 2 -4
BITMAP
3E3E
3C3E
3C3C
7C3C
7C7C
7C7C
78FC
79F8
FB78
FE78
FEF8
FCF8
70F0
0000
0700
0E00
0F80
ENDCHAR
STARTCHAR Wcircumflex
ENCODING 372
SWIDTH 991 0
DWIDTH 24 0
BBX 22 21 4 0
BITMAP
007800
00FC00
038E00
000000
F0781C
F07838
F07838
F0F870
F0F870
F1F8E0
F9F8E0
FBF9C0
FBF9C0
FB7B80
7F7B80
7F7F80
7E7F00
7E7F00
7C7E00
7C7E00
787C00
ENDCHAR
STARTCHAR wcircumflex
ENCODING 373
SWIDTH 878 0
DWIDTH 21 0
BBX 20 17 3 0
BITMAP
00F000
01F800
071C00
000000
F0F0F0
F0F0E0
F1F1E0
F1F1C0
F3FBC0
F3FB80
F77F80
F77F00
FE7F00
FE7E00
FC7E00
FC7C00
F87C00
ENDCHAR
STARTCHAR Ycircumflex
ENCODING 374
SWIDTH 681 0
DWIDTH 16 0
BBX 15 21 4 0
BITMAP
03C0
07E0
1C70
0000
F81E
F83C
7878
7C70
3CF0
3FE0
3FC0
1F80
1F80
1F00
1F00
1E00
1E00
1E00
3E00
3E00
3C00
ENDCHAR
STARTCHAR ycircumflex
ENCODING 375
SWIDTH 633 0
DWIDTH 15 0
BBX 17 22 1 -5
BITMAP
01E000
03F000
0E3800
000000
3E0780
3E0700
3E0E00
1E1E00
1F1C00
1F3800
1F7800
1F7000
0FE000
0FE000
0FC000
0F8000
0F8000
0F0000
1E0000
3E0000
7C0000
F80000
ENDCHAR
STARTCHAR Ydieresis
ENCODING 376
SWIDTH 681 0
DWIDTH 16 0
BBX 15 21 4 0
BITMAP
0E70
0E70
0E70
0000
F81E
F83C
7878
7C70
3CF0
3FE0
3FC0
1F80
1F80
1F00
1F00
1E00
1E00
1E00
3E00
3E00
3C00
ENDCHAR
STARTCHAR Zacute
ENCODING 377
SWIDTH 687 0
DWIDTH 16 0
BBX 17 21 1 0
BITMAP
001E00
003800
00E000
000000
0FFF80
0FFF80
0FFF80
003F00
007E00
00FC00
01F800
01F000
03E000
07E000
0FC000
1F8000
3F0000
7E0000
7FFC00
FFFC00
FFFC00
ENDCHAR
STARTCHAR zacute
ENCODING 378
SWIDTH 630 0
DWIDTH 15 0
BBX 15 17 1 0
BITMAP
0078
00E0
0380
0000
1FFE
1FFE
3FFC
00FC
01F0
03E0
07C0
0F80
1F00
7E00
7FFC
FFF8
FFF8
ENDCHAR
STARTCHAR Zdotaccent
ENCODING 379
SWIDTH 687 0
DWIDTH 16 0
BBX 17 21 1 0
BITMAP
007000
00F000
00E000
000000
0FFF80
0FFF80
0FFF80
003F00
007E00
00FC00
01F800
01F000
03E000
07E000
0FC000
1F8000
3F0000
7E0000
7FFC00
FFFC00
FFFC00
ENDCHAR
STARTCHAR zdotaccent
ENCODING 380
SWIDTH 630 0
DWIDTH 15 0
BBX 15 17 1 0
BITMAP
00E0
01E0
01C0
0000
1FFE
1FFE
3FFC
00FC
01F0
03E0
07C0
0F80
1F00
7E00
7FFC
FFF8
FFF8
ENDCHAR
STARTCHAR Zcaron
ENCODING 381
SWIDTH 687 0
DWIDTH 16 0
BBX 17 21 1 0
BITMAP
01C700
00FC00
007800
000000
0FFF80
0FFF80
0FFF80
003F00
007E00
00FC00
01F800
01F000
03E000
07E000
0FC000
1F8000
3F0000
7E0000
7FFC00
FFFC00
FFFC00
ENDCHAR
STARTCHAR zcaron
ENCODING 382
SWIDTH 630 0
DWIDTH 15 0
BBX 15 17 1 0
BITMAP
038E
01F8
00F0
0000
1FFE
1FFE
3FFC
00FC
01F0
03E0
07C0
0F80
1F00
7E00
7FFC
FFF8
FFF8
ENDCHAR
STARTCHAR uni0186
ENCODING 390
SWIDTH 737 0
DWIDTH 18 0
BBX 17 17 2 0
BITMAP
07F800
1FFE00
1FFF00
303F00
001F80
000F80
000F80
000F80
000F80
000F00
001F00
003E00
007E00
40FC00
FFF800
FFE000
7F8000
ENDCHAR
STARTCHAR uni0189
ENCODING 393
SWIDTH 822 0
DWIDTH 20 0
BBX 20 17 1 0
BITMAP
0FFF80
0FFFC0
0FFFE0
0F07F0
1F01F0
1F01F0
1F01F0
FFE1F0
FFE1F0
FFE1E0
3E03E0
3E07E0
3C0FC0
3C1F80
7FFF00
7FFE00
7FF000
ENDCHAR
STARTCHAR uni018E
ENCODING 398
SWIDTH 642 0
DWIDTH 15 0
BBX 15 17 2 0
BITMAP
1FFE
1FFE
3FFC
003C
003C
007C
007C
1FF8
1FF8
1FF8
00F8
00F8
00F0
00F0
FFF0
FFF0
FFF0
ENDCHAR
STARTCHAR florin
ENCODING 402
SWIDTH 687 0
DWIDTH 16 0
BBX 14 21 4 -4
BITMAP
00FC
03FC
07FC
0F84
0F00
1F00
1F00
7FC0
7FC0
7F80
3E00
3E00
3E00
3C00
7C00
7C00
7C00
7800
7800
F800
F800
ENDCHAR
STARTCHAR uni0197
ENCODING 407
SWIDTH 361 0
DWIDTH 9 0
BBX 8 17 2 0
BITMAP
1F
1F
1E
1E
1E
3E
3E
FF
FF
FF
7C
7C
78
78
78
F8
F8
ENDCHAR
STARTCHAR uni019A
ENCODING 410
SWIDTH 343 0
DWIDTH 8 0
BBX 8 18 2 0
BITMAP
1F
1F
1F
1E
1E
3E
3E
FF
FF
FF
7C
7C
7C
78
78
F8
F8
F8
ENDCHAR
STARTCHAR uni019D
ENCODING 413
SWIDTH 789 0
DWIDTH 19 0
BBX 24 22 -4 -5
BITMAP
00780F
007C0F
007C0F
007E0E
00FE0E
00FF1E
00FF1E
00EF9E
00E79C
01E7DC
01E3FC
01E3FC
01E0FC
03E0F8
03E0F8
03E0F8
03C078
07C000
C78000
FF8000
FF0000
7C0000
ENDCHAR
STARTCHAR uni019F
ENCODING 415
SWIDTH 855 0
DWIDTH 21 0
BBX 19 17 2 0
BITMAP
00FE00
03FF80
0FFFC0
1F87E0
3E03E0
3C03E0
7C03E0
FFFFE0
FFFFE0
FFFFE0
F807C0
F807C0
F80F80
7C3F00
7FFE00
3FF800
0FE000
ENDCHAR
STARTCHAR Ohorn
ENCODING 416
SWIDTH 855 0
DWIDTH 21 0
BBX 23 17 2 0
BITMAP
00FE3E
03FFBE
0FFFFE
1F87FC
3E03FC
3C03FC
7C03F8
7803F0
F803E0
F803E0
F807C0
F807C0
F80F80
7C3F00
7FFE00
3FF800
0FE000
ENDCHAR
STARTCHAR ohorn
ENCODING 417
SWIDTH 663 0
DWIDTH 16 0
BBX 20 13 2 0
BITMAP
03F1F0
0FFDF0
1FFDF0
3E7FE0
7C3FE0
783EE0
F83FC0
F83F80
F87800
F8F800
FFF000
7FE000
1F0000
ENDCHAR
STARTCHAR Uhorn
ENCODING 431
SWIDTH 759 0
DWIDTH 18 0
BBX 21 17 3 0
BITMAP
3E07F8
3E07F8
3C0FF8
3C0FF0
7C0FF0
7C0F70
7C0FE0
781FC0
781E00
F81E00
F81E00
F81E00
F83C00
FC7C00
7FF800
3FF000
0FC000
ENDCHAR
STARTCHAR uhorn
ENCODING 432
SWIDTH 675 0
DWIDTH 16 0
BBX 20 13 2 0
BITMAP
3E3FF0
3C3FF0
3C3DF0
7C3DE0
7C7DE0
7C7CE0
78FFC0
79FB80
FB7800
FE7800
FEF800
FCF800
70F000
ENDCHAR
STARTCHAR uni01B5
ENCODING 437
SWIDTH 687 0
DWIDTH 16 0
BBX 17 17 1 0
BITMAP
0FFF80
0FFF80
0FFF80
003F00
007E00
00FC00
01F800
07F800
07F800
07F800
0FC000
1F8000
3F0000
7E0000
7FFC00
FFFC00
FFFC00
ENDCHAR
STARTCHAR uni01B6
ENCODING 438
SWIDTH 630 0
DWIDTH 15 0
BBX 15 13 1 0
BITMAP
1FFE
1FFE
3FFC
00FC
01F0
0FF0
0FF0
0FF0
1F00
7E00
7FFC
FFF8
FFF8
ENDCHAR
STARTCHAR uni01BB
ENCODING 443
SWIDTH 687 0
DWIDTH 16 0
BBX 15 17 2 0
BITMAP
07F0
0FFC
1FFE
107E
003E
003E
007C
FFFE
FFFE
FFFE
0F80
1F00
3C00
7800
7FF8
FFF8
FFF8
ENDCHAR
STARTCHAR uni01BC
ENCODING 444
SWIDTH 687 0
DWIDTH 16 0
BBX 15 17 3 0
BITMAP
0FFE
1FFE
1FFC
1C00
1800
1800
3F00
3FE0
3FF0
03F8
00F8
00F8
00F8
C1F8
FFF0
FFE0
FF80
ENDCHAR
STARTCHAR uni01C0
ENCODING 448
SWIDTH 259 0
DWIDTH 6 0
BBX 7 22 1 -4
BITMAP
0E
0E
0E
0C
1C
1C
1C
1C
18
38
38
38
38
30
70
70
70
70
60
E0
E0
E0
ENDCHAR
STARTCHAR uni01C2
ENCODING 450
SWIDTH 687 0
DWIDTH 16 0
BBX 15 22 2 -4
BITMAP
00E0
00E0
00E0
00C0
01C0
01C0
01C0
3FFE
7FFE
7FFE
0380
0380
0380
FFFC
FFFC
FFF8
0700
0700
0600
0E00
0E00
0E00
ENDCHAR
STARTCHAR uni01C3
ENCODING 451
SWIDTH 343 0
DWIDTH 8 0
BBX 8 17 2 0
BITMAP
1F
1F
1F
1E
1E
1E
3C
3C
3C
38
38
38
00
00
78
F8
F8
ENDCHAR
STARTCHAR uni01CD
ENCODING 461
SWIDTH 771 0
DWIDTH 18 0
BBX 17 21 1 0
BITMAP
038E00
01F800
00F000
000000
007C00
00FC00
00FC00
01FC00
01FE00
03FE00
039E00
079E00
071E00
0E1F00
0FFF00
1FFF00
3FFF00
380F00
780F80
700F80
F00780
ENDCHAR
STARTCHAR uni01CE
ENCODING 462
SWIDTH 681 0
DWIDTH 16 0
BBX 15 17 2 0
BITMAP
071C
03F0
01E0
0000
03FE
07FE
1FFE
3E3C
3C3C
7C7C
787C
F8FC
F9F8
FB78
FE78
FCF8
78F8
ENDCHAR
STARTCHAR uni01CF
ENCODING 463
SWIDTH 361 0
DWIDTH 9 0
BBX 10 21 2 0
BITMAP
71C0
3F00
1E00
0000
1F00
1F00
1E00
1E00
1E00
3E00
3E00
3C00
3C00
3C00
7C00
7C00
7800
7800
7800
F800
F800
ENDCHAR
STARTCHAR uni01D0
ENCODING 464
SWIDTH 343 0
DWIDTH 8 0
BBX 9 17 2 0
BITMAP
E380
7E00
3C00
0000
3E00
3E00
3E00
3C00
3C00
7C00
7C00
7C00
7800
7800
F800
F800
F800
ENDCHAR
STARTCHAR uni01D1
ENCODING 465
SWIDTH 855 0
DWIDTH 21 0
BBX 19 21 2 0
BITMAP
038E00
01F800
00F000
000000
00FE00
03FF80
0FFFC0
1F87E0
3E03E0
3C03E0
7C03E0
7803E0
F803E0
F803E0
F807C0
F807C0
F80F80
7C3F00
7FFE00
3FF800
0FE000
ENDCHAR
STARTCHAR uni01D2
ENCODING 466
SWIDTH 663 0
DWIDTH 16 0
BBX 15 17 2 0
BITMAP
0E38
07E0
03C0
0000
03F0
0FFC
1FFC
3E7E
7C3E
783E
F83C
F83C
F878
F8F8
FFF0
7FE0
1F00
ENDCHAR
STARTCHAR uni01D3
ENCODING 467
SWIDTH 759 0
DWIDTH 18 0
BBX 17 21 3 0
BITMAP
071C00
03F000
01E000
000000
3E0780
3E0780
3C0F80
3C0F00
7C0F00
7C0F00
7C0F00
781F00
781E00
F81E00
F81E00
F81E00
F83C00
FC7C00
7FF800
3FF000
0FC000
ENDCHAR
STARTCHAR uni01D4
ENCODING 468
SWIDTH 675 0
DWIDTH 16 0
BBX 15 17 2 0
BITMAP
0E38
07E0
03C0
0000
3E3E
3C3E
3C3C
7C3C
7C7C
7C7C
78FC
79F8
FB78
FE78
FEF8
FCF8
70F0
ENDCHAR
STARTCHAR uni01D5
ENCODING 469
SWIDTH 759 0
DWIDTH 18 0
BBX 17 25 3 0
BITMAP
07F800
07F800
07F800
000000
039C00
039C00
039C00
000000
3E0780
3E0780
3C0F80
3C0F00
7C0F00
7C0F00
7C0F00
781F00
781E00
F81E00
F81E00
F81E00
F83C00
FC7C00
7FF800
3FF000
0FC000
ENDCHAR
STARTCHAR uni01D6
ENCODING 470
SWIDTH 675 0
DWIDTH 16 0
BBX 15 21 2 0
BITMAP
07F8
07F8
07F8
0000
039C
039C
039C
0000
3E3E
3C3E
3C3C
7C3C
7C7C
7C7C
78FC
79F8
FB78
FE78
FEF8
FCF8
70F0
ENDCHAR
STARTCHAR uni01D7
ENCODING 471
SWIDTH 759 0
DWIDTH 18 0
BBX 17 25 3 0
BITMAP
003C00
007000
01C000
000000
039C00
039C00
039C00
000000
3E0780
3E0780
3C0F80
3C0F00
7C0F00
7C0F00
7C0F00
781F00
781E00
F81E00
F81E00
F81E00
F83C00
FC7C00
7FF800
3FF000
0FC000
ENDCHAR
STARTCHAR uni01D8
ENCODING 472
SWIDTH 675 0
DWIDTH 16 0
BBX 15 21 2 0
BITMAP
003C
0070
01C0
0000
039C
039C
039C
0000
3E3E
3C3E
3C3C
7C3C
7C7C
7C7C
78FC
79F8
FB78
FE78
FEF8
FCF8
70F0
ENDCHAR
STARTCHAR uni01D9
ENCODING 473
SWIDTH 759 0
DWIDTH 18 0
BBX 17 25 3 0
BITMAP
071C00
03F000
01E000
000000
039C00
039C00
039C00
000000
3E0780
3E0780
3C0F80
3C0F00
7C0F00
7C0F00
7C0F00
781F00
781E00
F81E00
F81E00
F81E00
F83C00
FC7C00
7FF800
3FF000
0FC000
ENDCHAR
STARTCHAR uni01DA
ENCODING 474
SWIDTH 675 0
DWIDTH 16 0
BBX 15 21 2 0
BITMAP
071C
03F0
01E0
0000
039C
039C
039C
0000
3E3E
3C3E
3C3C
7C3C
7C7C
7C7C
78FC
79F8
FB78
FE78
FEF8
FCF8
70F0
ENDCHAR
STARTCHAR uni01DB
ENCODING 475
SWIDTH 759 0
DWIDTH 18 0
BBX 17 25 3 0
BITMAP
078000
01C000
00E000
000000
039C00
039C00
039C00
000000
3E0780
3E0780
3C0F80
3C0F00
7C0F00
7C0F00
7C0F00
781F00
781E00
F81E00
F81E00
F81E00
F83C00
FC7C00
7FF800
3FF000
0FC000
ENDCHAR
STARTCHAR uni01DC
ENCODING 476
SWIDTH 675 0
DWIDTH 16 0
BBX 15 21 2 0
BITMAP
0780
01C0
00E0
0000
039C
039C
039C
0000
3E3E
3C3E
3C3C
7C3C
7C7C
7C7C
78FC
79F8
FB78
FE78
FEF8
FCF8
70F0
ENDCHAR
STARTCHAR uni01DD
ENCODING 477
SWIDTH 612 0
DWIDTH 15 0
BBX 13 13 2 0
BITMAP
0FC0
7FF0
FFF8
E0F8
80F8
07F8
1FF8
7FF0
78F0
F1E0
FFC0
7F80
3E00
ENDCHAR
STARTCHAR uni01DE
ENCODING 478
SWIDTH 771 0
DWIDTH 18 0
BBX 17 25 1 0
BITMAP
01FE00
01FE00
01FE00
000000
00E700
00E700
00E700
000000
007C00
00FC00
00FC00
01FC00
01FE00
03FE00
039E00
079E00
071E00
0E1F00
0FFF00
1FFF00
3FFF00
380F00
780F80
700F80
F00780
ENDCHAR
STARTCHAR uni01DF
ENCODING 479
SWIDTH 681 0
DWIDTH 16 0
BBX 15 21 2 0
BITMAP
07F8
07F8
07F8
0000
039C
039C
039C
0000
03FE
07FE
1FFE
3E3C
3C3C
7C7C
787C
F8FC
F9F8
FB78
FE78
FCF8
78F8
ENDCHAR
STARTCHAR uni01E0
ENCODING 480
SWIDTH 771 0
DWIDTH 18 0
BBX 17 25 1 0
BITMAP
03FC00
03FC00
03FC00
000000
007000
00F000
00E000
000000
007C00
00FC00
00FC00
01FC00
01FE00
03FE00
039E00
079E00
071E00
0E1F00
0FFF00
1FFF00
3FFF00
380F00
780F80
700F80
F00780
ENDCHAR
STARTCHAR uni01E1
ENCODING 481
SWIDTH 681 0
DWIDTH 16 0
BBX 15 21 2 0
BITMAP
07F8
07F8
07F8
0000
00E0
01E0
01C0
0000
03FE
07FE
1FFE
3E3C
3C3C
7C7C
787C
F8FC
F9F8
FB78
FE78
FCF8
78F8
ENDCHAR
STARTCHAR uni01E2
ENCODING 482
SWIDTH 1004 0
DWIDTH 24 0
BBX 26 21 0 0
BITMAP
000FF000
000FF000
000FF000
00000000
0007FFC0
000FFFC0
000FFF80
001FC000
003FC000
007FC000
00F78000
00E7FE00
01EFFE00
03CFFE00
078F8000
0FFF0000
0FFF0000
1FFF0000
3C1FFF00
781FFE00
E01FFE00
ENDCHAR
STARTCHAR uni01E3
ENCODING 483
SWIDTH 987 0
DWIDTH 24 0
BBX 22 17 2 0
BITMAP
00FF00
00FF00
00FF00
000000
03FEF0
07FFF8
1FFFFC
1E3E3C
3C3C78
787FF8
787FE0
F8FF80
FB7C04
FF7C1C
FE3FFC
FC3FF8
781FC0
ENDCHAR
STARTCHAR uni01E4
ENCODING 484
SWIDTH 755 0
DWIDTH 18 0
BBX 18 17 2 0
BITMAP
00FF00
03FF80
0FFF80
1F8100
3E0000
3E0000
7C0000
780000
F81E00
F81E00
F83FC0
F83FC0
FC3FC0
7E3C00
7FFC00
3FFC00
0FF800
ENDCHAR
STARTCHAR uni01E5
ENCODING 485
SWIDTH 674 0
DWIDTH 16 0
BBX 16 18 1 -5
BITMAP
01FF
07FF
0FFF
1F1E
3E3E
3C3E
7C7E
78FE
79BC
7FBC
7F7C
FFFF
FFFF
FFFF
E0F8
FFF0
7FE0
7F80
ENDCHAR
STARTCHAR Gcaron
ENCODING 486
SWIDTH 755 0
DWIDTH 18 0
BBX 17 21 2 0
BITMAP
071C00
03F000
01E000
000000
00FF00
03FF80
0FFF80
1F8100
3E0000
3E0000
7C0000
780000
F81E00
F81E00
F81E00
F81E00
FC3E00
7E3C00
7FFC00
3FFC00
0FF800
ENDCHAR
STARTCHAR gcaron
ENCODING 487
SWIDTH 674 0
DWIDTH 16 0
BBX 16 22 1 -5
BITMAP
071C
03F0
01E0
0000
01FF
07FF
0FFF
1F1E
3E3E
3C3E
7C7E
78FE
79BC
7FBC
7F7C
7E7C
3C7C
80F8
E0F8
FFF0
7FE0
7F80
ENDCHAR
STARTCHAR uni01E8
ENCODING 488
SWIDTH 753 0
DWIDTH 18 0
BBX 16 21 2 0
BITMAP
0E38
07E0
03C0
0000
1F0F
1F1E
1E3C
1E38
3E78
3EF0
3FE0
3DC0
3FE0
7FE0
7DF0
7DF0
78F8
78FC
F87C
F83E
F83F
ENDCHAR
STARTCHAR uni01E9
ENCODING 489
SWIDTH 666 0
DWIDTH 16 0
BBX 15 22 2 0
BITMAP
38E0
1F80
0F00
0000
1F00
1F00
1F00
1E00
1E00
3E1E
3E3C
3E78
3C70
3CE0
7DC0
7FE0
7FE0
79E0
79F0
F8F0
F8F8
F8FC
ENDCHAR
STARTCHAR uni01EA
ENCODING 490
SWIDTH 855 0
DWIDTH 21 0
BBX 19 21 2 -4
BITMAP
00FE00
03FF80
0FFFC0
1F87E0
3E03E0
3C03E0
7C03E0
7803E0
F803E0
F803E0
F807C0
F807C0
F80F80
7C3F00
7FFE00
3FF800
0FE000
000000
01C000
038000
03E000
ENDCHAR
STARTCHAR uni01EB
ENCODING 491
SWIDTH 663 0
DWIDTH 16 0
BBX 15 17 2 -4
BITMAP
03F0
0FFC
1FFC
3E7E
7C3E
783E
F83C
F83C
F878
F8F8
FFF0
7FE0
1F00
0000
0700
0E00
0F80
ENDCHAR
STARTCHAR uni01EC
ENCODING 492
SWIDTH 855 0
DWIDTH 21 0
BBX 19 25 2 -4
BITMAP
01FE00
01FE00
01FE00
000000
00FE00
03FF80
0FFFC0
1F87E0
3E03E0
3C03E0
7C03E0
7803E0
F803E0
F803E0
F807C0
F807C0
F80F80
7C3F00
7FFE00
3FF800
0FE000
000000
01C000
038000
03E000
ENDCHAR
STARTCHAR uni01ED
ENCODING 493
SWIDTH 663 0
DWIDTH 16 0
BBX 15 21 2 -4
BITMAP
0FF0
0FF0
0FF0
0000
03F0
0FFC
1FFC
3E7E
7C3E
783E
F83C
F83C
F878
F8F8
FFF0
7FE0
1F00
0000
0700
0E00
0F80
ENDCHAR
STARTCHAR uni01F0
ENCODING 496
SWIDTH 407 0
DWIDTH 10 0
BBX 14 22 -1 -5
BITMAP
071C
03F0
01E0
0000
00F8
00F8
00F0
00F0
01F0
01F0
01F0
01E0
01E0
03E0
03E0
03E0
03C0
07C0
C780
FF80
FF00
7C00
ENDCHAR
STARTCHAR uni01F4
ENCODING 500
SWIDTH 755 0
DWIDTH 18 0
BBX 17 21 2 0
BITMAP
003C00
007000
01C000
000000
00FF00
03FF80
0FFF80
1F8100
3E0000
3E0000
7C0000
780000
F81E00
F81E00
F81E00
F81E00
FC3E00
7E3C00
7FFC00
3FFC00
0FF800
ENDCHAR
STARTCHAR uni01F5
ENCODING 501
SWIDTH 674 0
DWIDTH 16 0
BBX 16 22 1 -5
BITMAP
003C
0070
01C0
0000
01FF
07FF
0FFF
1F1E
3E3E
3C3E
7C7E
78FE
79BC
7FBC
7F7C
7E7C
3C7C
80F8
E0F8
FFF0
7FE0
7F80
ENDCHAR
STARTCHAR uni01F8
ENCODING 504
SWIDTH 789 0
DWIDTH 19 0
BBX 18 21 2 0
BITMAP
078000
01C000
00E000
000000
1E03C0
1F03C0
1F03C0
1F8380
3F8380
3FC780
3FC780
3BE780
39E700
79F700
78FF00
78FF00
707F00
707E00
F03E00
F03E00
F01E00
ENDCHAR
STARTCHAR uni01F9
ENCODING 505
SWIDTH 675 0
DWIDTH 16 0
BBX 15 17 2 0
BITMAP
0F00
0380
01C0
0000
1E1C
3E7E
3EFE
3DFE
3DBE
3F3C
7E3C
7C7C
7C7C
787C
7878
F878
F8F8
ENDCHAR
STARTCHAR Aringacute
ENCODING 506
SWIDTH 771 0
DWIDTH 18 0
BBX 17 26 1 0
BITMAP
000F00
001C00
007000
000000
000C00
001200
001200
000C00
000000
007C00
00FC00
00FC00
01FC00
01FE00
03FE00
039E00
079E00
071E00
0E1F00
0FFF00
1FFF00
3FFF00
380F00
780F80
700F80
F00780
ENDCHAR
STARTCHAR aringacute
ENCODING 507
SWIDTH 681 0
DWIDTH 16 0
BBX 15 22 2 0
BITMAP
003C
0070
01C0
0000
0060
0090
0090
0060
0000
03FE
07FE
1FFE
3E3C
3C3C
7C7C
787C
F8FC
F9F8
FB78
FE78
FCF8
78F8
ENDCHAR
STARTCHAR AEacute
ENCODING 508
SWIDTH 1004 0
DWIDTH 24 0
BBX 26 21 0 0
BITMAP
00007800
0000E000
00038000
00000000
0007FFC0
000FFFC0
000FFF80
001FC000
003FC000
007FC000
00F78000
00E7FE00
01EFFE00
03CFFE00
078F8000
0FFF0000
0FFF0000
1FFF0000
3C1FFF00
781FFE00
E01FFE00
ENDCHAR
STARTCHAR aeacute
ENCODING 509
SWIDTH 987 0
DWIDTH 24 0
BBX 22 17 2 0
BITMAP
000780
000E00
003800
000000
03FEF0
07FFF8
1FFFFC
1E3E3C
3C3C78
787FF8
787FE0
F8FF80
FB7C04
FF7C1C
FE3FFC
FC3FF8
781FC0
ENDCHAR
STARTCHAR Oslashacute
ENCODING 510
SWIDTH 855 0
DWIDTH 21 0
BBX 22 21 3 0
BITMAP
000780
000E00
003800
000000
007F7C
01FFF8
07FFE0
0FC3F0
1F07F0
1E0FF0
3E1FF0
3C3DF0
7C79F0
7CF1F0
7DE3E0
7FC3E0
7F87C0
3F1F80
3FFF00
7FFC00
FFF000
ENDCHAR
STARTCHAR oslashacute
ENCODING 511
SWIDTH 663 0
DWIDTH 16 0
BBX 17 17 3 0
BITMAP
003C00
007000
01C000
000000
01FF80
07FE00
0FFE00
1F3F00
3E7F00
3CFF00
7DDE00
7F9E00
7F3C00
7E7C00
7FF800
3FF000
FF8000
ENDCHAR
STARTCHAR Scommaaccent
ENCODING 536
SWIDTH 639 0
DWIDTH 15 0
BBX 14 27 2 -10
BITMAP
03F8
0FFC
1FFC
1E0C
3E00
3E00
3F00
1FC0
0FE0
07F0
01F8
00F8
00F8
41F0
FFF0
FFE0
FF00
0000
0F80
0F80
0F80
0F00
0F00
0700
0700
1E00
1C00
ENDCHAR
STARTCHAR scommaaccent
ENCODING 537
SWIDTH 527 0
DWIDTH 13 0
BBX 12 23 1 -10
BITMAP
07F0
1FF0
1FE0
3E00
1E00
1F00
0F80
07C0
03E0
43E0
FFC0
FFC0
7F00
0000
1F00
1F00
1F00
1E00
1E00
0E00
0E00
3C00
3800
ENDCHAR
STARTCHAR Tcommaaccent
ENCODING 538
SWIDTH 747 0
DWIDTH 18 0
BBX 18 27 3 -10
BITMAP
FFFFC0
FFFFC0
FFFFC0
03E000
03E000
03C000
03C000
07C000
07C000
07C000
078000
078000
0F8000
0F8000
0F8000
0F0000
1F0000
000000
07C000
07C000
07C000
078000
078000
038000
038000
0F0000
0E0000
ENDCHAR
STARTCHAR tcommaaccent
ENCODING 539
SWIDTH 437 0
DWIDTH 10 0
BBX 9 26 3 -10
BITMAP
0E00
3E00
3E00
FF80
FF80
FF80
7C00
7C00
7C00
7800
7800
F800
F800
FF00
FE00
7E00
0000
7C00
7C00
7C00
7800
7800
3800
3800
F000
E000
ENDCHAR
STARTCHAR uni021E
ENCODING 542
SWIDTH 813 0
DWIDTH 20 0
BBX 19 21 2 0
BITMAP
038E00
01F800
00F000
000000
1F03E0
1F03E0
1F03C0
1E03C0
1E07C0
3E07C0
3E07C0
3FFF80
3FFF80
3FFF80
7C0F80
7C0F80
7C0F00
780F00
781F00
F81F00
F81F00
ENDCHAR
STARTCHAR uni021F
ENCODING 543
SWIDTH 675 0
DWIDTH 16 0
BBX 15 22 2 0
BITMAP
38E0
1F80
0F00
0000
0F00
1F00
1F00
1F00
1F00
1E1C
3E7E
3EFE
3EFE
3DBE
3F3C
7E3C
7C7C
7C7C
787C
7878
F878
F8F8
ENDCHAR
STARTCHAR uni0226
ENCODING 550
SWIDTH 771 0
DWIDTH 18 0
BBX 17 21 1 0
BITMAP
007000
00F000
00E000
000000
007C00
00FC00
00FC00
01FC00
01FE00
03FE00
039E00
079E00
071E00
0E1F00
0FFF00
1FFF00
3FFF00
380F00
780F80
700F80
F00780
ENDCHAR
STARTCHAR uni0227
ENCODING 551
SWIDTH 681 0
DWIDTH 16 0
BBX 15 17 2 0
BITMAP
00E0
01E0
01C0
0000
03FE
07FE
1FFE
3E3C
3C3C
7C7C
787C
F8FC
F9F8
FB78
FE78
FCF8
78F8
ENDCHAR
STARTCHAR uni0228
ENCODING 552
SWIDTH 642 0
DWIDTH 15 0
BBX 15 22 2 -5
BITMAP
1FFE
1FFE
1FFE
1E00
1E00
3E00
3E00
3FF0
3FF0
3FF0
7C00
7C00
7800
7800
7FF8
FFF0
FFF0
0700
0E00
0700
0300
1E00
ENDCHAR
STARTCHAR uni0229
ENCODING 553
SWIDTH 612 0
DWIDTH 15 0
BBX 13 18 2 -5
BITMAP
03E0
0FF0
1FF8
3C78
78F0
7FF0
FFC0
FF00
F808
F838
FFF8
7FF0
1F80
0380
0700
0380
0180
0F00
ENDCHAR
STARTCHAR uni022A
ENCODING 554
SWIDTH 855 0
DWIDTH 21 0
BBX 19 25 2 0
BITMAP
01FE00
01FE00
01FE00
000000
00E700
00E700
00E700
000000
00FE00
03FF80
0FFFC0
1F87E0
3E03E0
3C03E0
7C03E0
7803E0
F803E0
F803E0
F807C0
F807C0
F80F80
7C3F00
7FFE00
3FF800
0FE000
ENDCHAR
STARTCHAR uni022B
ENCODING 555
SWIDTH 663 0
DWIDTH 16 0
BBX 15 21 2 0
BITMAP
07F8
07F8
07F8
0000
039C
039C
039C
0000
03F0
0FFC
1FFC
3E7E
7C3E
783E
F83C
F83C
F878
F8F8
FFF0
7FE0
1F00
ENDCHAR
STARTCHAR uni022C
ENCODING 556
SWIDTH 855 0
DWIDTH 21 0
BBX 19 25 2 0
BITMAP
01FE00
01FE00
01FE00
000000
007700
00FE00
01DE00
000000
00FE00
03FF80
0FFFC0
1F87E0
3E03E0
3C03E0
7C03E0
7803E0
F803E0
F803E0
F807C0
F807C0
F80F80
7C3F00
7FFE00
3FF800
0FE000
ENDCHAR
STARTCHAR uni022D
ENCODING 557
SWIDTH 663 0
DWIDTH 16 0
BBX 15 21 2 0
BITMAP
07F8
07F8
07F8
0000
01DC
03F8
0778
0000
03F0
0FFC
1FFC
3E7E
7C3E
783E
F83C
F83C
F878
F8F8
FFF0
7FE0
1F00
ENDCHAR
STARTCHAR uni022E
ENCODING 558
SWIDTH 855 0
DWIDTH 21 0
BBX 19 21 2 0
BITMAP
003800
007800
007000
000000
00FE00
03FF80
0FFFC0
1F87E0
3E03E0
3C03E0
7C03E0
7803E0
F803E0
F803E0
F807C0
F807C0
F80F80
7C3F00
7FFE00
3FF800
0FE000
ENDCHAR
STARTCHAR uni022F
ENCODING 559
SWIDTH 663 0
DWIDTH 16 0
BBX 15 17 2 0
BITMAP
00E0
01E0
01C0
0000
03F0
0FFC
1FFC
3E7E
7C3E
783E
F83C
F83C
F878
F8F8
FFF0
7FE0
1F00
ENDCHAR
STARTCHAR uni0230
ENCODING 560
SWIDTH 855 0
DWIDTH 21 0
BBX 19 25 2 0
BITMAP
01FE00
01FE00
01FE00
000000
003800
007800
007000
000000
00FE00
03FF80
0FFFC0
1F87E0
3E03E0
3C03E0
7C03E0
7803E0
F803E0
F803E0
F807C0
F807C0
F80F80
7C3F00
7FFE00
3FF800
0FE000
ENDCHAR
STARTCHAR uni0231
ENCODING 561
SWIDTH 663 0
DWIDTH 16 0
BBX 15 21 2 0
BITMAP
07F8
07F8
07F8
0000
00E0
01E0
01C0
0000
03F0
0FFC
1FFC
3E7E
7C3E
783E
F83C
F83C
F878
F8F8
FFF0
7FE0
1F00
ENDCHAR
STARTCHAR uni0232
ENCODING 562
SWIDTH 681 0
DWIDTH 16 0
BBX 15 21 4 0
BITMAP
1FE0
1FE0
1FE0
0000
F81E
F83C
7878
7C70
3CF0
3FE0
3FC0
1F80
1F80
1F00
1F00
1E00
1E00
1E00
3E00
3E00
3C00
ENDCHAR
STARTCHAR uni0233
ENCODING 563
SWIDTH 633 0
DWIDTH 15 0
BBX 17 22 1 -5
BITMAP
07F800
07F800
07F800
000000
3E0780
3E0700
3E0E00
1E1E00
1F1C00
1F3800
1F7800
1F7000
0FE000
0FE000
0FC000
0F8000
0F8000
0F0000
1E0000
3E0000
7C0000
F80000
ENDCHAR
STARTCHAR uni0250
ENCODING 592
SWIDTH 681 0
DWIDTH 16 0
BBX 15 13 2 0
BITMAP
3E3C
3E7E
3CFE
3DBE
3F3E
7E3E
7C3C
7C7C
7878
78F8
FFF0
FFC0
FF80
ENDCHAR
STARTCHAR uni0259
ENCODING 601
SWIDTH 612 0
DWIDTH 15 0
BBX 13 13 2 0
BITMAP
0FC0
7FF0
FFF8
E0F8
80F8
07F8
1FF8
7FF0
78F0
F1E0
FFC0
7F80
3E00
ENDCHAR
STARTCHAR uni025F
ENCODING 607
SWIDTH 464 0
DWIDTH 11 0
BBX 14 23 1 -10
BITMAP
007C
007C
007C
0078
00F8
00F8
00F8
00F8
00F0
00F0
01F0
01F0
01F0
01E0
01E0
1FF8
1FF0
1FF0
03C0
87C0
FF80
FF00
7C00
ENDCHAR
STARTCHAR uni0265
ENCODING 613
SWIDTH 675 0
DWIDTH 16 0
BBX 15 18 2 -5
BITMAP
3E3E
3C3E
3C3C
7C3C
7C7C
7C7C
78FC
79F8
FB78
FEF8
FEF8
FCF8
70F0
01F0
01F0
01F0
01F0
01E0
ENDCHAR
STARTCHAR uni0275
ENCODING 629
SWIDTH 663 0
DWIDTH 16 0
BBX 15 13 2 0
BITMAP
03F0
0FFC
1FFC
3E7E
7C3E
FFFE
FFFE
FFFE
F878
F8F8
FFF0
7FE0
1F00
ENDCHAR
STARTCHAR uni0279
ENCODING 633
SWIDTH 542 0
DWIDTH 13 0
BBX 13 13 2 0
BITMAP
00F8
00F8
00F8
00F0
01F0
01F0
03F0
07F0
0DE0
7DE0
7BE0
73E0
E3E0
ENDCHAR
STARTCHAR uni0287
ENCODING 647
SWIDTH 437 0
DWIDTH 10 0
BBX 9 16 3 0
BITMAP
3F00
3F80
7F80
0F80
0F80
0F00
0F00
1F00
1F00
1F00
FF80
FF80
FF80
3E00
3E00
3800
ENDCHAR
STARTCHAR uni0289
ENCODING 649
SWIDTH 675 0
DWIDTH 16 0
BBX 15 13 2 0
BITMAP
3E3E
3C3E
3C3C
7C3C
7C7C
FFFE
FFFE
FFFE
FB78
FE78
FEF8
FCF8
70F0
ENDCHAR
STARTCHAR uni028C
ENCODING 652
SWIDTH 630 0
DWIDTH 15 0
BBX 15 13 3 0
BITMAP
01F8
01F8
03F8
03F8
07F8
0F7C
0E7C
1E7C
1C7C
3C3C
783E
703E
F03E
ENDCHAR
STARTCHAR uni028D
ENCODING 653
SWIDTH 878 0
DWIDTH 21 0
BBX 20 13 3 0
BITMAP
03E1F0
03E3F0
07E3F0
07E7F0
0FE7F0
0FEEF0
1FEEF0
1DFCF0
3DFCF0
38F8F0
78F8F0
70F0F0
F0F0F0
ENDCHAR
STARTCHAR uni028E
ENCODING 654
SWIDTH 633 0
DWIDTH 15 0
BBX 17 18 1 0
BITMAP
000F80
001F00
003E00
003C00
007800
00F800
00F800
01F800
03F800
03F800
077C00
0F7C00
0E7C00
1C7C00
3C3C00
383E00
703E00
F03E00
ENDCHAR
STARTCHAR uni029E
ENCODING 670
SWIDTH 666 0
DWIDTH 16 0
BBX 15 18 2 -5
BITMAP
7E3E
3E3E
1E3E
1F3C
0F3C
0FFC
0FFC
077C
0E78
1C78
3CF8
78F8
F0F8
00F0
00F0
01F0
01F0
01F0
ENDCHAR
STARTCHAR uni02BB
ENCODING 699
SWIDTH 265 0
DWIDTH 6 0
BBX 6 8 3 10
BITMAP
0C
3C
3C
70
78
78
F8
F8
ENDCHAR
STARTCHAR afii57929
ENCODING 700
SWIDTH 265 0
DWIDTH 6 0
BBX 6 8 3 10
BITMAP
7C
7C
7C
78
78
38
F0
E0
ENDCHAR
STARTCHAR afii64937
ENCODING 701
SWIDTH 265 0
DWIDTH 6 0
BBX 6 8 3 10
BITMAP
F8
F8
F8
78
78
70
3C
1C
ENDCHAR
STARTCHAR circumflex
ENCODING 710
SWIDTH 663 0
DWIDTH 16 0
BBX 9 3 7 15
BITMAP
1E00
3F00
E380
ENDCHAR
STARTCHAR caron
ENCODING 711
SWIDTH 663 0
DWIDTH 16 0
BBX 9 3 7 15
BITMAP
E380
7E00
3C00
ENDCHAR
STARTCHAR uni02C8
ENCODING 712
SWIDTH 265 0
DWIDTH 6 0
BBX 5 8 4 10
BITMAP
F8
F8
F8
F0
70
70
70
70
ENDCHAR
STARTCHAR macron
ENCODING 713
SWIDTH 663 0
DWIDTH 16 0
BBX 8 3 8 14
BITMAP
FF
FF
FF
ENDCHAR
STARTCHAR uni02CA
ENCODING 714
SWIDTH 663 0
DWIDTH 16 0
BBX 7 3 9 15
BITMAP
1E
38
E0
ENDCHAR
STARTCHAR uni02CB
ENCODING 715
SWIDTH 663 0
DWIDTH 16 0
BBX 6 3 8 15
BITMAP
F0
38
1C
ENDCHAR
STARTCHAR uni02CD
ENCODING 717
SWIDTH 663 0
DWIDTH 16 0
BBX 8 3 8 -4
BITMAP
FF
FF
FF
ENDCHAR
STARTCHAR uni02CE
ENCODING 718
SWIDTH 663 0
DWIDTH 16 0
BBX 6 3 8 -4
BITMAP
F0
38
1C
ENDCHAR
STARTCHAR uni02CF
ENCODING 719
SWIDTH 663 0
DWIDTH 16 0
BBX 7 3 9 -4
BITMAP
1E
38
E0
ENDCHAR
STARTCHAR breve
ENCODING 728
SWIDTH 663 0
DWIDTH 16 0
BBX 9 3 7 15
BITMAP
E380
FF00
7C00
ENDCHAR
STARTCHAR dotaccent
ENCODING 729
SWIDTH 663 0
DWIDTH 16 0
BBX 4 3 10 15
BITMAP
70
F0
E0
ENDCHAR
STARTCHAR ring
ENCODING 730
SWIDTH 663 0
DWIDTH 16 0
BBX 4 4 10 14
BITMAP
60
90
90
60
ENDCHAR
STARTCHAR ogonek
ENCODING 731
SWIDTH 663 0
DWIDTH 16 0
BBX 5 3 5 -4
BITMAP
70
E0
F8
ENDCHAR
STARTCHAR tilde
ENCODING 732
SWIDTH 663 0
DWIDTH 16 0
BBX 9 3 7 15
BITMAP
3B80
7F00
EF00
ENDCHAR
STARTCHAR hungarumlaut
ENCODING 733
SWIDTH 663 0
DWIDTH 16 0
BBX 10 3 8 15
BITMAP
1DC0
3300
EE00
ENDCHAR
STARTCHAR uni02EE
ENCODING 750
SWIDTH 530 0
DWIDTH 13 0
BBX 13 8 3 10
BITMAP
3CF8
7CF8
7CF8
7DF0
3870
3870
F1E0
E1C0
ENDCHAR
STARTCHAR uni037E
ENCODING 894
SWIDTH 343 0
DWIDTH 8 0
BBX 8 17 1 -4
BITMAP
1F
1F
1F
1E
3E
00
00
00
3C
7C
7C
7C
7C
38
38
F0
E0
ENDCHAR
STARTCHAR tonos
ENCODING 900
SWIDTH 663 0
DWIDTH 16 0
BBX 7 3 9 15
BITMAP
1E
38
E0
ENDCHAR
STARTCHAR dieresistonos
ENCODING 901
SWIDTH 663 0
DWIDTH 16 0
BBX 9 7 8 14
BITMAP
0780
0E00
3800
0000
E700
E700
E700
ENDCHAR
STARTCHAR anoteleia
ENCODING 903
SWIDTH 343 0
DWIDTH 16 0
BBX 4 3 8 6
BITMAP
70
F0
E0
ENDCHAR
STARTCHAR mu
ENCODING 956
SWIDTH 681 0
DWIDTH 16 0
BBX 16 17 1 -4
BITMAP
1F1F
1F1F
1E1E
1E1E
3E3E
3E3E
3E7E
3CFC
3DBC
7FBC
7F7C
7E7C
7E78
7800
F800
F800
F800
ENDCHAR
STARTCHAR uni1E00
ENCODING 7680
SWIDTH 771 0
DWIDTH 18 0
BBX 17 22 1 -5
BITMAP
007C00
00FC00
00FC00
01FC00
01FE00
03FE00
039E00
079E00
071E00
0E1F00
0FFF00
1FFF00
3FFF00
380F00
780F80
700F80
F00780
000000
00C000
012000
012000
00C000
ENDCHAR
STARTCHAR uni1E01
ENCODING 7681
SWIDTH 681 0
DWIDTH 16 0
BBX 15 18 2 -5
BITMAP
03FE
07FE
1FFE
3E3C
3C3C
7C7C
787C
F8FC
F9F8
FB78
FE78
FCF8
78F8
0000
0300
0480
0480
0300
ENDCHAR
STARTCHAR uni1E02
ENCODING 7682
SWIDTH 660 0
DWIDTH 16 0
BBX 15 21 2 0
BITMAP
00E0
01E0
01C0
0000
1FF8
1FFE
1FFE
1E3E
1E3E
3C7C
3FF8
3FF0
3FE0
3CF8
7C7C
787C
787C
787C
7FFC
FFF8
FFE0
ENDCHAR
STARTCHAR uni1E03
ENCODING 7683
SWIDTH 681 0
DWIDTH 16 0
BBX 15 22 2 0
BITMAP
0700
0F00
0E00
0000
0F00
1F00
1F00
1E00
1E00
1E3C
3E7E
3CFE
3DFE
3D3E
3E3E
7C3C
7C7C
7878
78F8
7FF0
FFC0
FF80
ENDCHAR
STARTCHAR uni1E04
ENCODING 7684
SWIDTH 660 0
DWIDTH 16 0
BBX 15 21 2 -4
BITMAP
1FF8
1FFE
1FFE
1E3E
1E3E
3C7C
3FF8
3FF0
3FE0
3CF8
7C7C
787C
787C
787C
7FFC
FFF8
FFE0
0000
0380
0780
0700
ENDCHAR
STARTCHAR uni1E05
ENCODING 7685
SWIDTH 681 0
DWIDTH 16 0
BBX 15 22 2 -4
BITMAP
0F00
1F00
1F00
1E00
1E00
1E3C
3E7E
3CFE
3DFE
3D3E
3E3E
7C3C
7C7C
7878
78F8
7FF0
FFC0
FF80
0000
0700
0F00
0E00
ENDCHAR
STARTCHAR uni1E06
ENCODING 7686
SWIDTH 660 0
DWIDTH 16 0
BBX 15 21 2 -4
BITMAP
1FF8
1FFE
1FFE
1E3E
1E3E
3C7C
3FF8
3FF0
3FE0
3CF8
7C7C
787C
787C
787C
7FFC
FFF8
FFE0
0000
1FE0
1FE0
1FE0
ENDCHAR
STARTCHAR uni1E07
ENCODING 7687
SWIDTH 681 0
DWIDTH 16 0
BBX 15 22 2 -4
BITMAP
0F00
1F00
1F00
1E00
1E00
1E3C
3E7E
3CFE
3DFE
3D3E
3E3E
7C3C
7C7C
7878
78F8
7FF0
FFC0
FF80
0000
1FE0
1FE0
1FE0
ENDCHAR
STARTCHAR uni1E08
ENCODING 7688
SWIDTH 737 0
DWIDTH 18 0
BBX 17 26 2 -5
BITMAP
003C00
007000
01C000
000000
00FF00
03FF80
0FFF80
1F8100
3F0000
3E0000
7C0000
780000
F80000
F80000
F80000
F80000
FC0000
7E0600
7FFC00
3FFC00
0FF000
060000
0E0000
070000
030000
1E0000
ENDCHAR
STARTCHAR uni1E09
ENCODING 7689
SWIDTH 548 0
DWIDTH 13 0
BBX 13 22 2 -5
BITMAP
00F0
01C0
0700
0000
03F0
0FF8
1FF0
3E10
7C00
7C00
F800
F800
F800
F820
FFE0
7FE0
3F80
0C00
1C00
0E00
0600
3C00
ENDCHAR
STARTCHAR uni1E0A
ENCODING 7690
SWIDTH 822 0
DWIDTH 20 0
BBX 19 21 2 0
BITMAP
007000
00F000
00E000
000000
1FFF00
1FFF80
1FFFC0
1F0FE0
1E03E0
3E03E0
3E03E0
3E03E0
3C03E0
3C03E0
7C07C0
7C0FC0
7C1F80
783F00
7FFE00
FFFC00
FFE000
ENDCHAR
STARTCHAR uni1E0B
ENCODING 7691
SWIDTH 681 0
DWIDTH 16 0
BBX 16 22 2 0
BITMAP
001C
003C
0038
0000
001F
001F
001E
001E
003E
03FE
07FE
1FFC
3E3C
3C3C
7C7C
78FC
F8F8
F978
FB78
FEF8
FCF8
78F0
ENDCHAR
STARTCHAR uni1E0C
ENCODING 7692
SWIDTH 822 0
DWIDTH 20 0
BBX 19 21 2 -4
BITMAP
1FFF00
1FFF80
1FFFC0
1F0FE0
1E03E0
3E03E0
3E03E0
3E03E0
3C03E0
3C03E0
7C07C0
7C0FC0
7C1F80
783F00
7FFE00
FFFC00
FFE000
000000
01C000
03C000
038000
ENDCHAR
STARTCHAR uni1E0D
ENCODING 7693
SWIDTH 681 0
DWIDTH 16 0
BBX 16 22 2 -4
BITMAP
001F
001F
001E
001E
003E
03FE
07FE
1FFC
3E3C
3C3C
7C7C
78FC
F8F8
F978
FB78
FEF8
FCF8
78F0
0000
0380
0780
0700
ENDCHAR
STARTCHAR uni1E0E
ENCODING 7694
SWIDTH 822 0
DWIDTH 20 0
BBX 19 21 2 -4
BITMAP
1FFF00
1FFF80
1FFFC0
1F0FE0
1E03E0
3E03E0
3E03E0
3E03E0
3C03E0
3C03E0
7C07C0
7C0FC0
7C1F80
783F00
7FFE00
FFFC00
FFE000
000000
0FF000
0FF000
0FF000
ENDCHAR
STARTCHAR uni1E0F
ENCODING 7695
SWIDTH 681 0
DWIDTH 16 0
BBX 16 22 2 -4
BITMAP
001F
001F
001E
001E
003E
03FE
07FE
1FFC
3E3C
3C3C
7C7C
78FC
F8F8
F978
FB78
FEF8
FCF8
78F0
0000
1FE0
1FE0
1FE0
ENDCHAR
STARTCHAR uni1E10
ENCODING 7696
SWIDTH 822 0
DWIDTH 20 0
BBX 19 22 2 -5
BITMAP
1FFF00
1FFF80
1FFFC0
1F0FE0
1E03E0
3E03E0
3E03E0
3E03E0
3C03E0
3C03E0
7C07C0
7C0FC0
7C1F80
783F00
7FFE00
FFFC00
FFE000
01C000
038000
01C000
00C000
078000
ENDCHAR
STARTCHAR uni1E11
ENCODING 7697
SWIDTH 681 0
DWIDTH 16 0
BBX 16 23 2 -5
BITMAP
001F
001F
001E
001E
003E
03FE
07FE
1FFC
3E3C
3C3C
7C7C
78FC
F8F8
F978
FB78
FEF8
FCF8
78F0
0380
0700
0380
0180
0F00
ENDCHAR
STARTCHAR uni1E12
ENCODING 7698
SWIDTH 822 0
DWIDTH 20 0
BBX 19 21 2 -4
BITMAP
1FFF00
1FFF80
1FFFC0
1F0FE0
1E03E0
3E03E0
3E03E0
3E03E0
3C03E0
3C03E0
7C07C0
7C0FC0
7C1F80
783F00
7FFE00
FFFC00
FFE000
000000
03C000
07E000
1C7000
ENDCHAR
STARTCHAR uni1E13
ENCODING 7699
SWIDTH 681 0
DWIDTH 16 0
BBX 16 22 2 -4
BITMAP
001F
001F
001E
001E
003E
03FE
07FE
1FFC
3E3C
3C3C
7C7C
78FC
F8F8
F978
FB78
FEF8
FCF8
78F0
0000
0780
0FC0
38E0
ENDCHAR
STARTCHAR uni1E14
ENCODING 7700
SWIDTH 642 0
DWIDTH 15 0
BBX 15 25 2 0
BITMAP
0F00
0380
01C0
0000
0FF0
0FF0
0FF0
0000
1FFE
1FFE
1FFE
1E00
1E00
3E00
3E00
3FF0
3FF0
3FF0
7C00
7C00
7800
7800
7FF8
FFF0
FFF0
ENDCHAR
STARTCHAR uni1E15
ENCODING 7701
SWIDTH 612 0
DWIDTH 15 0
BBX 13 21 2 0
BITMAP
1E00
0700
0380
0000
1FE0
1FE0
1FE0
0000
03E0
0FF0
1FF8
3C78
78F0
7FF0
FFC0
FF00
F808
F838
FFF8
7FF0
1F80
ENDCHAR
STARTCHAR uni1E16
ENCODING 7702
SWIDTH 642 0
DWIDTH 15 0
BBX 15 25 2 0
BITMAP
0078
00E0
0380
0000
0FF0
0FF0
0FF0
0000
1FFE
1FFE
1FFE
1E00
1E00
3E00
3E00
3FF0
3FF0
3FF0
7C00
7C00
7800
7800
7FF8
FFF0
FFF0
ENDCHAR
STARTCHAR uni1E17
ENCODING 7703
SWIDTH 612 0
DWIDTH 15 0
BBX 13 21 2 0
BITMAP
00F0
01C0
0700
0000
1FE0
1FE0
1FE0
0000
03E0
0FF0
1FF8
3C78
78F0
7FF0
FFC0
FF00
F808
F838
FFF8
7FF0
1F80
ENDCHAR
STARTCHAR uni1E18
ENCODING 7704
SWIDTH 642 0
DWIDTH 15 0
BBX 15 21 2 -4
BITMAP
1FFE
1FFE
1FFE
1E00
1E00
3E00
3E00
3FF0
3FF0
3FF0
7C00
7C00
7800
7800
7FF8
FFF0
FFF0
0000
0F00
1F80
71C0
ENDCHAR
STARTCHAR uni1E19
ENCODING 7705
SWIDTH 612 0
DWIDTH 15 0
BBX 13 17 2 -4
BITMAP
03E0
0FF0
1FF8
3C78
78F0
7FF0
FFC0
FF00
F808
F838
FFF8
7FF0
1F80
0000
0780
0FC0
38E0
ENDCHAR
STARTCHAR uni1E1A
ENCODING 7706
SWIDTH 642 0
DWIDTH 15 0
BBX 15 21 2 -4
BITMAP
1FFE
1FFE
1FFE
1E00
1E00
3E00
3E00
3FF0
3FF0
3FF0
7C00
7C00
7800
7800
7FF8
FFF0
FFF0
0000
1DC0
3F80
7780
ENDCHAR
STARTCHAR uni1E1B
ENCODING 7707
SWIDTH 612 0
DWIDTH 15 0
BBX 13 17 2 -4
BITMAP
03E0
0FF0
1FF8
3C78
78F0
7FF0
FFC0
FF00
F808
F838
FFF8
7FF0
1F80
0000
1DC0
3F80
7780
ENDCHAR
STARTCHAR uni1E1C
ENCODING 7708
SWIDTH 642 0
DWIDTH 15 0
BBX 15 26 2 -5
BITMAP
0E38
0FF0
07C0
0000
1FFE
1FFE
1FFE
1E00
1E00
3E00
3E00
3FF0
3FF0
3FF0
7C00
7C00
7800
7800
7FF8
FFF0
FFF0
0700
0E00
0700
0300
1E00
ENDCHAR
STARTCHAR uni1E1D
ENCODING 7709
SWIDTH 612 0
DWIDTH 15 0
BBX 13 22 2 -5
BITMAP
1C70
1FE0
0F80
0000
03E0
0FF0
1FF8
3C78
78F0
7FF0
FFC0
FF00
F808
F838
FFF8
7FF0
1F80
0380
0700
0380
0180
0F00
ENDCHAR
STARTCHAR uni1E1E
ENCODING 7710
SWIDTH 614 0
DWIDTH 15 0
BBX 15 21 2 0
BITMAP
01C0
03C0
0380
0000
1FFE
1FFE
1FFC
1E00
1E00
3E00
3E00
3FF0
3FF0
3FF0
7C00
7C00
7800
7800
7800
F800
F800
ENDCHAR
STARTCHAR uni1E1F
ENCODING 7711
SWIDTH 464 0
DWIDTH 11 0
BBX 14 27 1 -5
BITMAP
01C0
03C0
0380
0000
00F8
03FC
07FC
0F84
0F00
3FE0
3FE0
7FE0
1E00
1E00
3E00
3E00
3E00
3C00
3C00
7C00
7C00
7C00
7C00
7800
F800
F800
F800
ENDCHAR
STARTCHAR uni1E20
ENCODING 7712
SWIDTH 755 0
DWIDTH 18 0
BBX 17 21 2 0
BITMAP
07F800
07F800
07F800
000000
00FF00
03FF80
0FFF80
1F8100
3E0000
3E0000
7C0000
780000
F81E00
F81E00
F81E00
F81E00
FC3E00
7E3C00
7FFC00
3FFC00
0FF800
ENDCHAR
STARTCHAR uni1E21
ENCODING 7713
SWIDTH 674 0
DWIDTH 16 0
BBX 16 22 1 -5
BITMAP
07F8
07F8
07F8
0000
01FF
07FF
0FFF
1F1E
3E3E
3C3E
7C7E
78FE
79BC
7FBC
7F7C
7E7C
3C7C
80F8
E0F8
FFF0
7FE0
7F80
ENDCHAR
STARTCHAR uni1E22
ENCODING 7714
SWIDTH 813 0
DWIDTH 20 0
BBX 19 21 2 0
BITMAP
003800
007800
007000
000000
1F03E0
1F03E0
1F03C0
1E03C0
1E07C0
3E07C0
3E07C0
3FFF80
3FFF80
3FFF80
7C0F80
7C0F80
7C0F00
780F00
781F00
F81F00
F81F00
ENDCHAR
STARTCHAR uni1E23
ENCODING 7715
SWIDTH 675 0
DWIDTH 16 0
BBX 15 22 2 0
BITMAP
0380
0780
0700
0000
0F00
1F00
1F00
1F00
1F00
1E1C
3E7E
3EFE
3EFE
3DBE
3F3C
7E3C
7C7C
7C7C
787C
7878
F878
F8F8
ENDCHAR
STARTCHAR uni1E24
ENCODING 7716
SWIDTH 813 0
DWIDTH 20 0
BBX 19 21 2 -4
BITMAP
1F03E0
1F03E0
1F03C0
1E03C0
1E07C0
3E07C0
3E07C0
3FFF80
3FFF80
3FFF80
7C0F80
7C0F80
7C0F00
780F00
781F00
F81F00
F81F00
000000
01C000
03C000
038000
ENDCHAR
STARTCHAR uni1E25
ENCODING 7717
SWIDTH 675 0
DWIDTH 16 0
BBX 15 22 2 -4
BITMAP
0F00
1F00
1F00
1F00
1F00
1E1C
3E7E
3EFE
3EFE
3DBE
3F3C
7E3C
7C7C
7C7C
787C
7878
F878
F8F8
0000
0380
0780
0700
ENDCHAR
STARTCHAR uni1E26
ENCODING 7718
SWIDTH 813 0
DWIDTH 20 0
BBX 19 21 2 0
BITMAP
039C00
039C00
039C00
000000
1F03E0
1F03E0
1F03C0
1E03C0
1E07C0
3E07C0
3E07C0
3FFF80
3FFF80
3FFF80
7C0F80
7C0F80
7C0F00
780F00
781F00
F81F00
F81F00
ENDCHAR
STARTCHAR uni1E27
ENCODING 7719
SWIDTH 675 0
DWIDTH 16 0
BBX 15 22 2 0
BITMAP
39C0
39C0
39C0
0000
0F00
1F00
1F00
1F00
1F00
1E1C
3E7E
3EFE
3EFE
3DBE
3F3C
7E3C
7C7C
7C7C
787C
7878
F878
F8F8
ENDCHAR
STARTCHAR uni1E28
ENCODING 7720
SWIDTH 813 0
DWIDTH 20 0
BBX 19 22 2 -5
BITMAP
1F03E0
1F03E0
1F03C0
1E03C0
1E07C0
3E07C0
3E07C0
3FFF80
3FFF80
3FFF80
7C0F80
7C0F80
7C0F00
780F00
781F00
F81F00
F81F00
00E000
01C000
00E000
006000
03C000
ENDCHAR
STARTCHAR uni1E29
ENCODING 7721
SWIDTH 675 0
DWIDTH 16 0
BBX 15 23 2 -5
BITMAP
0F00
1F00
1F00
1F00
1F00
1E1C
3E7E
3EFE
3EFE
3DBE
3F3C
7E3C
7C7C
7C7C
787C
7878
F878
F8F8
0380
0700
0380
0180
0F00
ENDCHAR
STARTCHAR uni1E2A
ENCODING 7722
SWIDTH 813 0
DWIDTH 20 0
BBX 19 21 2 -4
BITMAP
1F03E0
1F03E0
1F03C0
1E03C0
1E07C0
3E07C0
3E07C0
3FFF80
3FFF80
3FFF80
7C0F80
7C0F80
7C0F00
780F00
781F00
F81F00
F81F00
000000
0E3800
0FF000
07C000
ENDCHAR
STARTCHAR uni1E2B
ENCODING 7723
SWIDTH 675 0
DWIDTH 16 0
BBX 15 22 2 -4
BITMAP
0F00
1F00
1F00
1F00
1F00
1E1C
3E7E
3EFE
3EFE
3DBE
3F3C
7E3C
7C7C
7C7C
787C
7878
F878
F8F8
0000
1C70
1FE0
0F80
ENDCHAR
STARTCHAR uni1E2C
ENCODING 7724
SWIDTH 361 0
DWIDTH 9 0
BBX 10 21 0 -4
BITMAP
07C0
07C0
0780
0780
0780
0F80
0F80
0F00
0F00
0F00
1F00
1F00
1E00
1E00
1E00
3E00
3E00
0000
3B80
7F00
EF00
ENDCHAR
STARTCHAR uni1E2D
ENCODING 7725
SWIDTH 343 0
DWIDTH 8 0
BBX 10 22 0 -4
BITMAP
07C0
07C0
07C0
0780
0000
0F80
0F80
0F00
0F00
0F00
1F00
1F00
1E00
1E00
1E00
3E00
3E00
3E00
0000
3B80
7F00
EF00
ENDCHAR
STARTCHAR uni1E2E
ENCODING 7726
SWIDTH 361 0
DWIDTH 9 0
BBX 10 25 2 0
BITMAP
03C0
0700
1C00
0000
39C0
39C0
39C0
0000
1F00
1F00
1E00
1E00
1E00
3E00
3E00
3C00
3C00
3C00
7C00
7C00
7800
7800
7800
F800
F800
ENDCHAR
STARTCHAR uni1E2F
ENCODING 7727
SWIDTH 343 0
DWIDTH 8 0
BBX 10 21 2 0
BITMAP
03C0
0700
1C00
0000
39C0
39C0
39C0
0000
3E00
3E00
3E00
3C00
3C00
7C00
7C00
7C00
7800
7800
F800
F800
F800
ENDCHAR
STARTCHAR uni1E30
ENCODING 7728
SWIDTH 753 0
DWIDTH 18 0
BBX 16 21 2 0
BITMAP
0078
00E0
0380
0000
1F0F
1F1E
1E3C
1E38
3E78
3EF0
3FE0
3DC0
3FE0
7FE0
7DF0
7DF0
78F8
78FC
F87C
F83E
F83F
ENDCHAR
STARTCHAR uni1E31
ENCODING 7729
SWIDTH 666 0
DWIDTH 16 0
BBX 15 22 2 0
BITMAP
01E0
0380
0E00
0000
1F00
1F00
1F00
1E00
1E00
3E1E
3E3C
3E78
3C70
3CE0
7DC0
7FE0
7FE0
79E0
79F0
F8F0
F8F8
F8FC
ENDCHAR
STARTCHAR uni1E32
ENCODING 7730
SWIDTH 753 0
DWIDTH 18 0
BBX 16 21 2 -4
BITMAP
1F0F
1F1E
1E3C
1E38
3E78
3EF0
3FE0
3DC0
3FE0
7FE0
7DF0
7DF0
78F8
78FC
F87C
F83E
F83F
0000
0380
0780
0700
ENDCHAR
STARTCHAR uni1E33
ENCODING 7731
SWIDTH 666 0
DWIDTH 16 0
BBX 15 22 2 -4
BITMAP
1F00
1F00
1F00
1E00
1E00
3E1E
3E3C
3E78
3C70
3CE0
7DC0
7FE0
7FE0
79E0
79F0
F8F0
F8F8
F8FC
0000
0700
0F00
0E00
ENDCHAR
STARTCHAR uni1E34
ENCODING 7732
SWIDTH 753 0
DWIDTH 18 0
BBX 16 21 2 -4
BITMAP
1F0F
1F1E
1E3C
1E38
3E78
3EF0
3FE0
3DC0
3FE0
7FE0
7DF0
7DF0
78F8
78FC
F87C
F83E
F83F
0000
0FF0
0FF0
0FF0
ENDCHAR
STARTCHAR uni1E35
ENCODING 7733
SWIDTH 666 0
DWIDTH 16 0
BBX 15 22 2 -4
BITMAP
1F00
1F00
1F00
1E00
1E00
3E1E
3E3C
3E78
3C70
3CE0
7DC0
7FE0
7FE0
79E0
79F0
F8F0
F8F8
F8FC
0000
1FE0
1FE0
1FE0
ENDCHAR
STARTCHAR uni1E36
ENCODING 7734
SWIDTH 623 0
DWIDTH 15 0
BBX 13 21 2 -4
BITMAP
1F00
1F00
1E00
1E00
1E00
3E00
3E00
3C00
3C00
3C00
7C00
7C00
7800
7800
7FF8
FFF8
FFF8
0000
0700
0F00
0E00
ENDCHAR
STARTCHAR uni1E37
ENCODING 7735
SWIDTH 343 0
DWIDTH 8 0
BBX 8 22 2 -4
BITMAP
1F
1F
1F
1E
1E
3E
3E
3E
3C
3C
7C
7C
7C
78
78
F8
F8
F8
00
38
78
70
ENDCHAR
STARTCHAR uni1E38
ENCODING 7736
SWIDTH 623 0
DWIDTH 15 0
BBX 13 25 2 -4
BITMAP
3FC0
3FC0
3FC0
0000
1F00
1F00
1E00
1E00
1E00
3E00
3E00
3C00
3C00
3C00
7C00
7C00
7800
7800
7FF8
FFF8
FFF8
0000
0700
0F00
0E00
ENDCHAR
STARTCHAR uni1E39
ENCODING 7737
SWIDTH 343 0
DWIDTH 8 0
BBX 9 26 2 -4
BITMAP
7F80
7F80
7F80
0000
1F00
1F00
1F00
1E00
1E00
3E00
3E00
3E00
3C00
3C00
7C00
7C00
7C00
7800
7800
F800
F800
F800
0000
3800
7800
7000
ENDCHAR
STARTCHAR uni1E3A
ENCODING 7738
SWIDTH 623 0
DWIDTH 15 0
BBX 13 21 2 -4
BITMAP
1F00
1F00
1E00
1E00
1E00
3E00
3E00
3C00
3C00
3C00
7C00
7C00
7800
7800
7FF8
FFF8
FFF8
0000
3FC0
3FC0
3FC0
ENDCHAR
STARTCHAR uni1E3B
ENCODING 7739
SWIDTH 343 0
DWIDTH 8 0
BBX 9 22 1 -4
BITMAP
0F80
0F80
0F80
0F00
0F00
1F00
1F00
1F00
1E00
1E00
3E00
3E00
3E00
3C00
3C00
7C00
7C00
7C00
0000
FF00
FF00
FF00
ENDCHAR
STARTCHAR uni1E3C
ENCODING 7740
SWIDTH 623 0
DWIDTH 15 0
BBX 13 21 2 -4
BITMAP
1F00
1F00
1E00
1E00
1E00
3E00
3E00
3C00
3C00
3C00
7C00
7C00
7800
7800
7FF8
FFF8
FFF8
0000
0F00
1F80
71C0
ENDCHAR
STARTCHAR uni1E3D
ENCODING 7741
SWIDTH 343 0
DWIDTH 8 0
BBX 10 22 0 -4
BITMAP
07C0
07C0
07C0
0780
0780
0F80
0F80
0F80
0F00
0F00
1F00
1F00
1F00
1E00
1E00
3E00
3E00
3E00
0000
1E00
3F00
E380
ENDCHAR
STARTCHAR uni1E3E
ENCODING 7742
SWIDTH 940 0
DWIDTH 23 0
BBX 22 21 2 0
BITMAP
000780
000E00
003800
000000
1F807C
1FC0FC
1FC1F8
1FC1F8
1FC3F8
3FC3F8
3FC7F8
3BCEF0
3BCEF0
39DCF0
79FCF0
79F9F0
71F9E0
71F1E0
71E1E0
F1E1E0
F003E0
ENDCHAR
STARTCHAR uni1E3F
ENCODING 7743
SWIDTH 991 0
DWIDTH 24 0
BBX 22 17 2 0
BITMAP
000780
000E00
003800
000000
3E3878
3CFCFC
3DFDFC
3DFFFC
3F7F7C
7F7F7C
7E7E78
7C7C78
7C7C78
7878F8
F8F8F8
F8F0F0
F0F0F0
ENDCHAR
STARTCHAR uni1E40
ENCODING 7744
SWIDTH 940 0
DWIDTH 23 0
BBX 22 21 2 0
BITMAP
001C00
003C00
003800
000000
1F807C
1FC0FC
1FC1F8
1FC1F8
1FC3F8
3FC3F8
3FC7F8
3BCEF0
3BCEF0
39DCF0
79FCF0
79F9F0
71F9E0
71F1E0
71E1E0
F1E1E0
F003E0
ENDCHAR
STARTCHAR uni1E41
ENCODING 7745
SWIDTH 991 0
DWIDTH 24 0
BBX 22 17 2 0
BITMAP
001C00
003C00
003800
000000
3E3878
3CFCFC
3DFDFC
3DFFFC
3F7F7C
7F7F7C
7E7E78
7C7C78
7C7C78
7878F8
F8F8F8
F8F0F0
F0F0F0
ENDCHAR
STARTCHAR uni1E42
ENCODING 7746
SWIDTH 940 0
DWIDTH 23 0
BBX 22 21 2 -4
BITMAP
1F807C
1FC0FC
1FC1F8
1FC1F8
1FC3F8
3FC3F8
3FC7F8
3BCEF0
3BCEF0
39DCF0
79FCF0
79F9F0
71F9E0
71F1E0
71E1E0
F1E1E0
F003E0
000000
007000
00F000
00E000
ENDCHAR
STARTCHAR uni1E43
ENCODING 7747
SWIDTH 991 0
DWIDTH 24 0
BBX 22 17 2 -4
BITMAP
3E3878
3CFCFC
3DFDFC
3DFFFC
3F7F7C
7F7F7C
7E7E78
7C7C78
7C7C78
7878F8
F8F8F8
F8F0F0
F0F0F0
000000
007000
00F000
00E000
ENDCHAR
STARTCHAR uni1E44
ENCODING 7748
SWIDTH 789 0
DWIDTH 19 0
BBX 18 21 2 0
BITMAP
007000
00F000
00E000
000000
1E03C0
1F03C0
1F03C0
1F8380
3F8380
3FC780
3FC780
3BE780
39E700
79F700
78FF00
78FF00
707F00
707E00
F03E00
F03E00
F01E00
ENDCHAR
STARTCHAR uni1E45
ENCODING 7749
SWIDTH 675 0
DWIDTH 16 0
BBX 15 17 2 0
BITMAP
00E0
01E0
01C0
0000
1E1C
3E7E
3EFE
3DFE
3DBE
3F3C
7E3C
7C7C
7C7C
787C
7878
F878
F8F8
ENDCHAR
STARTCHAR uni1E46
ENCODING 7750
SWIDTH 789 0
DWIDTH 19 0
BBX 18 21 2 -4
BITMAP
1E03C0
1F03C0
1F03C0
1F8380
3F8380
3FC780
3FC780
3BE780
39E700
79F700
78FF00
78FF00
707F00
707E00
F03E00
F03E00
F01E00
000000
01C000
03C000
038000
ENDCHAR
STARTCHAR uni1E47
ENCODING 7751
SWIDTH 675 0
DWIDTH 16 0
BBX 15 17 2 -4
BITMAP
1E1C
3E7E
3EFE
3DFE
3DBE
3F3C
7E3C
7C7C
7C7C
787C
7878
F878
F8F8
0000
0380
0780
0700
ENDCHAR
STARTCHAR uni1E48
ENCODING 7752
SWIDTH 789 0
DWIDTH 19 0
BBX 18 21 2 -4
BITMAP
1E03C0
1F03C0
1F03C0
1F8380
3F8380
3FC780
3FC780
3BE780
39E700
79F700
78FF00
78FF00
707F00
707E00
F03E00
F03E00
F01E00
000000
07F800
07F800
07F800
ENDCHAR
STARTCHAR uni1E49
ENCODING 7753
SWIDTH 675 0
DWIDTH 16 0
BBX 15 17 2 -4
BITMAP
1E1C
3E7E
3EFE
3DFE
3DBE
3F3C
7E3C
7C7C
7C7C
787C
7878
F878
F8F8
0000
1FE0
1FE0
1FE0
ENDCHAR
STARTCHAR uni1E4A
ENCODING 7754
SWIDTH 789 0
DWIDTH 19 0
BBX 18 21 2 -4
BITMAP
1E03C0
1F03C0
1F03C0
1F8380
3F8380
3FC780
3FC780
3BE780
39E700
79F700
78FF00
78FF00
707F00
707E00
F03E00
F03E00
F01E00
000000
01E000
03F000
0E3800
ENDCHAR
STARTCHAR uni1E4B
ENCODING 7755
SWIDTH 675 0
DWIDTH 16 0
BBX 15 17 2 -4
BITMAP
1E1C
3E7E
3EFE
3DFE
3DBE
3F3C
7E3C
7C7C
7C7C
787C
7878
F878
F8F8
0000
0780
0FC0
38E0
ENDCHAR
STARTCHAR uni1E4C
ENCODING 7756
SWIDTH 855 0
DWIDTH 21 0
BBX 19 25 2 0
BITMAP
000F00
001C00
007000
000000
007700
00FE00
01DE00
000000
00FE00
03FF80
0FFFC0
1F87E0
3E03E0
3C03E0
7C03E0
7803E0
F803E0
F803E0
F807C0
F807C0
F80F80
7C3F00
7FFE00
3FF800
0FE000
ENDCHAR
STARTCHAR uni1E4D
ENCODING 7757
SWIDTH 663 0
DWIDTH 16 0
BBX 15 21 2 0
BITMAP
003C
0070
01C0
0000
01DC
03F8
0778
0000
03F0
0FFC
1FFC
3E7E
7C3E
783E
F83C
F83C
F878
F8F8
FFF0
7FE0
1F00
ENDCHAR
STARTCHAR uni1E4E
ENCODING 7758
SWIDTH 855 0
DWIDTH 21 0
BBX 19 25 2 0
BITMAP
01CE00
01CE00
01CE00
000000
007700
00FE00
01DE00
000000
00FE00
03FF80
0FFFC0
1F87E0
3E03E0
3C03E0
7C03E0
7803E0
F803E0
F803E0
F807C0
F807C0
F80F80
7C3F00
7FFE00
3FF800
0FE000
ENDCHAR
STARTCHAR uni1E4F
ENCODING 7759
SWIDTH 663 0
DWIDTH 16 0
BBX 15 21 2 0
BITMAP
0738
0738
0738
0000
01DC
03F8
0778
0000
03F0
0FFC
1FFC
3E7E
7C3E
783E
F83C
F83C
F878
F8F8
FFF0
7FE0
1F00
ENDCHAR
STARTCHAR uni1E50
ENCODING 7760
SWIDTH 855 0
DWIDTH 21 0
BBX 19 25 2 0
BITMAP
01E000
007000
003800
000000
01FE00
01FE00
01FE00
000000
00FE00
03FF80
0FFFC0
1F87E0
3E03E0
3C03E0
7C03E0
7803E0
F803E0
F803E0
F807C0
F807C0
F80F80
7C3F00
7FFE00
3FF800
0FE000
ENDCHAR
STARTCHAR uni1E51
ENCODING 7761
SWIDTH 663 0
DWIDTH 16 0
BBX 15 21 2 0
BITMAP
0F00
0380
01C0
0000
0FF0
0FF0
0FF0
0000
03F0
0FFC
1FFC
3E7E
7C3E
783E
F83C
F83C
F878
F8F8
FFF0
7FE0
1F00
ENDCHAR
STARTCHAR uni1E52
ENCODING 7762
SWIDTH 855 0
DWIDTH 21 0
BBX 19 25 2 0
BITMAP
001E00
003800
00E000
000000
01FE00
01FE00
01FE00
000000
00FE00
03FF80
0FFFC0
1F87E0
3E03E0
3C03E0
7C03E0
7803E0
F803E0
F803E0
F807C0
F807C0
F80F80
7C3F00
7FFE00
3FF800
0FE000
ENDCHAR
STARTCHAR uni1E53
ENCODING 7763
SWIDTH 663 0
DWIDTH 16 0
BBX 15 21 2 0
BITMAP
0078
00E0
0380
0000
0FF0
0FF0
0FF0
0000
03F0
0FFC
1FFC
3E7E
7C3E
783E
F83C
F83C
F878
F8F8
FFF0
7FE0
1F00
ENDCHAR
STARTCHAR uni1E54
ENCODING 7764
SWIDTH 645 0
DWIDTH 15 0
BBX 15 21 2 0
BITMAP
0078
00E0
0380
0000
1FF8
1FFE
1FFE
1E3E
3E3E
3E3E
3C3C
3C7C
3FF8
7FF0
7FC0
7800
7800
7800
F800
F800
F000
ENDCHAR
STARTCHAR uni1E55
ENCODING 7765
SWIDTH 681 0
DWIDTH 16 0
BBX 16 22 1 -5
BITMAP
003C
0070
01C0
0000
1F1E
1F3F
1E7F
1EDF
1F9F
3F1F
3E1E
3E3E
3C3C
3C7C
7FF8
7FE0
7FC0
7800
7800
F800
F800
F800
ENDCHAR
STARTCHAR uni1E56
ENCODING 7766
SWIDTH 645 0
DWIDTH 15 0
BBX 15 21 2 0
BITMAP
00E0
01E0
01C0
0000
1FF8
1FFE
1FFE
1E3E
3E3E
3E3E
3C3C
3C7C
3FF8
7FF0
7FC0
7800
7800
7800
F800
F800
F000
ENDCHAR
STARTCHAR uni1E57
ENCODING 7767
SWIDTH 681 0
DWIDTH 16 0
BBX 16 22 1 -5
BITMAP
00E0
01E0
01C0
0000
1F1E
1F3F
1E7F
1EDF
1F9F
3F1F
3E1E
3E3E
3C3C
3C7C
7FF8
7FE0
7FC0
7800
7800
F800
F800
F800
ENDCHAR
STARTCHAR uni1E58
ENCODING 7768
SWIDTH 708 0
DWIDTH 17 0
BBX 16 21 2 0
BITMAP
00E0
01E0
01C0
0000
1FFC
1FFF
1FFF
1E1F
1E1F
3E1E
3E3E
3CFC
3FF8
3FF0
7CF0
7CF0
78F8
7878
787C
F87C
F83E
ENDCHAR
STARTCHAR uni1E59
ENCODING 7769
SWIDTH 542 0
DWIDTH 13 0
BBX 13 17 2 0
BITMAP
0380
0780
0700
0000
3E38
3E70
3EF0
3DF0
3D80
7F00
7E00
7C00
7C00
7800
F800
F800
F800
ENDCHAR
STARTCHAR uni1E5A
ENCODING 7770
SWIDTH 708 0
DWIDTH 17 0
BBX 16 21 2 -4
BITMAP
1FFC
1FFF
1FFF
1E1F
1E1F
3E1E
3E3E
3CFC
3FF8
3FF0
7CF0
7CF0
78F8
7878
787C
F87C
F83E
0000
0380
0780
0700
ENDCHAR
STARTCHAR uni1E5B
ENCODING 7771
SWIDTH 542 0
DWIDTH 13 0
BBX 13 17 2 -4
BITMAP
3E38
3E70
3EF0
3DF0
3D80
7F00
7E00
7C00
7C00
7800
F800
F800
F800
0000
1C00
3C00
3800
ENDCHAR
STARTCHAR uni1E5C
ENCODING 7772
SWIDTH 708 0
DWIDTH 17 0
BBX 16 25 2 -4
BITMAP
07F8
07F8
07F8
0000
1FFC
1FFF
1FFF
1E1F
1E1F
3E1E
3E3E
3CFC
3FF8
3FF0
7CF0
7CF0
78F8
7878
787C
F87C
F83E
0000
0380
0780
0700
ENDCHAR
STARTCHAR uni1E5D
ENCODING 7773
SWIDTH 542 0
DWIDTH 13 0
BBX 13 21 2 -4
BITMAP
1FE0
1FE0
1FE0
0000
3E38
3E70
3EF0
3DF0
3D80
7F00
7E00
7C00
7C00
7800
F800
F800
F800
0000
1C00
3C00
3800
ENDCHAR
STARTCHAR uni1E5E
ENCODING 7774
SWIDTH 708 0
DWIDTH 17 0
BBX 16 21 2 -4
BITMAP
1FFC
1FFF
1FFF
1E1F
1E1F
3E1E
3E3E
3CFC
3FF8
3FF0
7CF0
7CF0
78F8
7878
787C
F87C
F83E
0000
0FF0
0FF0
0FF0
ENDCHAR
STARTCHAR uni1E5F
ENCODING 7775
SWIDTH 542 0
DWIDTH 13 0
BBX 13 17 2 -4
BITMAP
3E38
3E70
3EF0
3DF0
3D80
7F00
7E00
7C00
7C00
7800
F800
F800
F800
0000
FF00
FF00
FF00
ENDCHAR
STARTCHAR uni1E60
ENCODING 7776
SWIDTH 639 0
DWIDTH 15 0
BBX 14 21 2 0
BITMAP
01C0
03C0
0380
0000
03F8
0FFC
1FFC
1E0C
3E00
3E00
3F00
1FC0
0FE0
07F0
01F8
00F8
00F8
41F0
FFF0
FFE0
FF00
ENDCHAR
STARTCHAR uni1E61
ENCODING 7777
SWIDTH 527 0
DWIDTH 13 0
BBX 12 17 1 0
BITMAP
0380
0780
0700
0000
07F0
1FF0
1FE0
3E00
1E00
1F00
0F80
07C0
03E0
43E0
FFC0
FFC0
7F00
ENDCHAR
STARTCHAR uni1E62
ENCODING 7778
SWIDTH 639 0
DWIDTH 15 0
BBX 14 21 2 -4
BITMAP
03F8
0FFC
1FFC
1E0C
3E00
3E00
3F00
1FC0
0FE0
07F0
01F8
00F8
00F8
41F0
FFF0
FFE0
FF00
0000
0700
0F00
0E00
ENDCHAR
STARTCHAR uni1E63
ENCODING 7779
SWIDTH 527 0
DWIDTH 13 0
BBX 12 17 1 -4
BITMAP
07F0
1FF0
1FE0
3E00
1E00
1F00
0F80
07C0
03E0
43E0
FFC0
FFC0
7F00
0000
0E00
1E00
1C00
ENDCHAR
STARTCHAR uni1E64
ENCODING 7780
SWIDTH 639 0
DWIDTH 15 0
BBX 14 25 2 0
BITMAP
00E0
01E0
01C0
0000
0078
00E0
0380
0000
03F8
0FFC
1FFC
1E0C
3E00
3E00
3F00
1FC0
0FE0
07F0
01F8
00F8
00F8
41F0
FFF0
FFE0
FF00
ENDCHAR
STARTCHAR uni1E65
ENCODING 7781
SWIDTH 527 0
DWIDTH 13 0
BBX 12 21 1 0
BITMAP
01C0
03C0
0380
0000
00F0
01C0
0700
0000
07F0
1FF0
1FE0
3E00
1E00
1F00
0F80
07C0
03E0
43E0
FFC0
FFC0
7F00
ENDCHAR
STARTCHAR uni1E66
ENCODING 7782
SWIDTH 639 0
DWIDTH 15 0
BBX 14 25 2 0
BITMAP
00E0
01E0
01C0
0000
071C
03F0
01E0
0000
03F8
0FFC
1FFC
1E0C
3E00
3E00
3F00
1FC0
0FE0
07F0
01F8
00F8
00F8
41F0
FFF0
FFE0
FF00
ENDCHAR
STARTCHAR uni1E67
ENCODING 7783
SWIDTH 527 0
DWIDTH 13 0
BBX 14 21 1 0
BITMAP
00E0
01E0
01C0
0000
071C
03F0
01E0
0000
07F0
1FF0
1FE0
3E00
1E00
1F00
0F80
07C0
03E0
43E0
FFC0
FFC0
7F00
ENDCHAR
STARTCHAR uni1E68
ENCODING 7784
SWIDTH 639 0
DWIDTH 15 0
BBX 14 25 2 -4
BITMAP
01C0
03C0
0380
0000
03F8
0FFC
1FFC
1E0C
3E00
3E00
3F00
1FC0
0FE0
07F0
01F8
00F8
00F8
41F0
FFF0
FFE0
FF00
0000
0700
0F00
0E00
ENDCHAR
STARTCHAR uni1E69
ENCODING 7785
SWIDTH 527 0
DWIDTH 13 0
BBX 12 21 1 -4
BITMAP
0380
0780
0700
0000
07F0
1FF0
1FE0
3E00
1E00
1F00
0F80
07C0
03E0
43E0
FFC0
FFC0
7F00
0000
0E00
1E00
1C00
ENDCHAR
STARTCHAR uni1E6A
ENCODING 7786
SWIDTH 747 0
DWIDTH 18 0
BBX 18 21 3 0
BITMAP
00E000
01E000
01C000
000000
FFFFC0
FFFFC0
FFFFC0
03E000
03E000
03C000
03C000
07C000
07C000
07C000
078000
078000
0F8000
0F8000
0F8000
0F0000
1F0000
ENDCHAR
STARTCHAR uni1E6B
ENCODING 7787
SWIDTH 437 0
DWIDTH 10 0
BBX 9 20 3 0
BITMAP
0E00
1E00
1C00
0000
0E00
3E00
3E00
FF80
FF80
FF80
7C00
7C00
7C00
7800
7800
F800
F800
FF00
FE00
7E00
ENDCHAR
STARTCHAR uni1E6C
ENCODING 7788
SWIDTH 747 0
DWIDTH 18 0
BBX 18 21 3 -4
BITMAP
FFFFC0
FFFFC0
FFFFC0
03E000
03E000
03C000
03C000
07C000
07C000
07C000
078000
078000
0F8000
0F8000
0F8000
0F0000
1F0000
000000
038000
078000
070000
ENDCHAR
STARTCHAR uni1E6D
ENCODING 7789
SWIDTH 437 0
DWIDTH 10 0
BBX 9 20 3 -4
BITMAP
0E00
3E00
3E00
FF80
FF80
FF80
7C00
7C00
7C00
7800
7800
F800
F800
FF00
FE00
7E00
0000
3800
7800
7000
ENDCHAR
STARTCHAR uni1E6E
ENCODING 7790
SWIDTH 747 0
DWIDTH 18 0
BBX 18 21 3 -4
BITMAP
FFFFC0
FFFFC0
FFFFC0
03E000
03E000
03C000
03C000
07C000
07C000
07C000
078000
078000
0F8000
0F8000
0F8000
0F0000
1F0000
000000
1FE000
1FE000
1FE000
ENDCHAR
STARTCHAR uni1E6F
ENCODING 7791
SWIDTH 437 0
DWIDTH 10 0
BBX 9 20 3 -4
BITMAP
0E00
3E00
3E00
FF80
FF80
FF80
7C00
7C00
7C00
7800
7800
F800
F800
FF00
FE00
7E00
0000
FF00
FF00
FF00
ENDCHAR
STARTCHAR uni1E70
ENCODING 7792
SWIDTH 747 0
DWIDTH 18 0
BBX 18 21 3 -4
BITMAP
FFFFC0
FFFFC0
FFFFC0
03E000
03E000
03C000
03C000
07C000
07C000
07C000
078000
078000
0F8000
0F8000
0F8000
0F0000
1F0000
000000
078000
0FC000
38E000
ENDCHAR
STARTCHAR uni1E71
ENCODING 7793
SWIDTH 437 0
DWIDTH 10 0
BBX 10 20 2 -4
BITMAP
0700
1F00
1F00
7FC0
7FC0
7FC0
3E00
3E00
3E00
3C00
3C00
7C00
7C00
7F80
7F00
3F00
0000
1E00
3F00
E380
ENDCHAR
STARTCHAR uni1E72
ENCODING 7794
SWIDTH 759 0
DWIDTH 18 0
BBX 17 21 3 -4
BITMAP
3E0780
3E0780
3C0F80
3C0F00
7C0F00
7C0F00
7C0F00
781F00
781E00
F81E00
F81E00
F81E00
F83C00
FC7C00
7FF800
3FF000
0FC000
000000
1CE000
1CE000
1CE000
ENDCHAR
STARTCHAR uni1E73
ENCODING 7795
SWIDTH 675 0
DWIDTH 16 0
BBX 15 17 2 -4
BITMAP
3E3E
3C3E
3C3C
7C3C
7C7C
7C7C
78FC
79F8
FB78
FE78
FEF8
FCF8
70F0
0000
1CE0
1CE0
1CE0
ENDCHAR
STARTCHAR uni1E74
ENCODING 7796
SWIDTH 759 0
DWIDTH 18 0
BBX 17 21 3 -4
BITMAP
3E0780
3E0780
3C0F80
3C0F00
7C0F00
7C0F00
7C0F00
781F00
781E00
F81E00
F81E00
F81E00
F83C00
FC7C00
7FF800
3FF000
0FC000
000000
0EE000
1FC000
3BC000
ENDCHAR
STARTCHAR uni1E75
ENCODING 7797
SWIDTH 675 0
DWIDTH 16 0
BBX 15 17 2 -4
BITMAP
3E3E
3C3E
3C3C
7C3C
7C7C
7C7C
78FC
79F8
FB78
FE78
FEF8
FCF8
70F0
0000
0EE0
1FC0
3BC0
ENDCHAR
STARTCHAR uni1E76
ENCODING 7798
SWIDTH 759 0
DWIDTH 18 0
BBX 17 21 3 -4
BITMAP
3E0780
3E0780
3C0F80
3C0F00
7C0F00
7C0F00
7C0F00
781F00
781E00
F81E00
F81E00
F81E00
F83C00
FC7C00
7FF800
3FF000
0FC000
000000
03C000
07E000
1C7000
ENDCHAR
STARTCHAR uni1E77
ENCODING 7799
SWIDTH 675 0
DWIDTH 16 0
BBX 15 17 2 -4
BITMAP
3E3E
3C3E
3C3C
7C3C
7C7C
7C7C
78FC
79F8
FB78
FE78
FEF8
FCF8
70F0
0000
0780
0FC0
38E0
ENDCHAR
STARTCHAR uni1E78
ENCODING 7800
SWIDTH 759 0
DWIDTH 18 0
BBX 17 25 3 0
BITMAP
003C00
007000
01C000
000000
01DC00
03F800
077800
000000
3E0780
3E0780
3C0F80
3C0F00
7C0F00
7C0F00
7C0F00
781F00
781E00
F81E00
F81E00
F81E00
F83C00
FC7C00
7FF800
3FF000
0FC000
ENDCHAR
STARTCHAR uni1E79
ENCODING 7801
SWIDTH 675 0
DWIDTH 16 0
BBX 15 21 2 0
BITMAP
0078
00E0
0380
0000
03B8
07F0
0EF0
0000
3E3E
3C3E
3C3C
7C3C
7C7C
7C7C
78FC
79F8
FB78
FE78
FEF8
FCF8
70F0
ENDCHAR
STARTCHAR uni1E7A
ENCODING 7802
SWIDTH 759 0
DWIDTH 18 0
BBX 17 25 3 0
BITMAP
073800
073800
073800
000000
07F800
07F800
07F800
000000
3E0780
3E0780
3C0F80
3C0F00
7C0F00
7C0F00
7C0F00
781F00
781E00
F81E00
F81E00
F81E00
F83C00
FC7C00
7FF800
3FF000
0FC000
ENDCHAR
STARTCHAR uni1E7B
ENCODING 7803
SWIDTH 675 0
DWIDTH 16 0
BBX 15 21 2 0
BITMAP
0E70
0E70
0E70
0000
0FF0
0FF0
0FF0
0000
3E3E
3C3E
3C3C
7C3C
7C7C
7C7C
78FC
79F8
FB78
FE78
FEF8
FCF8
70F0
ENDCHAR
STARTCHAR uni1E7C
ENCODING 7804
SWIDTH 765 0
DWIDTH 18 0
BBX 17 21 4 0
BITMAP
03B800
07F000
0EF000
000000
F80780
F80700
F80F00
780E00
781E00
7C1C00
7C3800
7C7800
7C7000
3CF000
3CE000
3FE000
3FC000
3FC000
1F8000
1F0000
1F0000
ENDCHAR
STARTCHAR uni1E7D
ENCODING 7805
SWIDTH 630 0
DWIDTH 15 0
BBX 15 17 3 0
BITMAP
0770
0FE0
1DE0
0000
F81E
F81C
F83C
7878
7C70
7CF0
7CE0
7DE0
3FC0
3F80
3F80
3F00
3F00
ENDCHAR
STARTCHAR uni1E7E
ENCODING 7806
SWIDTH 765 0
DWIDTH 18 0
BBX 17 21 4 -4
BITMAP
F80780
F80700
F80F00
780E00
781E00
7C1C00
7C3800
7C7800
7C7000
3CF000
3CE000
3FE000
3FC000
3FC000
1F8000
1F0000
1F0000
000000
070000
0F0000
0E0000
ENDCHAR
STARTCHAR uni1E7F
ENCODING 7807
SWIDTH 630 0
DWIDTH 15 0
BBX 15 17 3 -4
BITMAP
F81E
F81C
F83C
7878
7C70
7CF0
7CE0
7DE0
3FC0
3F80
3F80
3F00
3F00
0000
0700
0F00
0E00
ENDCHAR
STARTCHAR Wgrave
ENCODING 7808
SWIDTH 991 0
DWIDTH 24 0
BBX 22 21 4 0
BITMAP
03C000
00E000
007000
000000
F0781C
F07838
F07838
F0F870
F0F870
F1F8E0
F9F8E0
FBF9C0
FBF9C0
FB7B80
7F7B80
7F7F80
7E7F00
7E7F00
7C7E00
7C7E00
787C00
ENDCHAR
STARTCHAR wgrave
ENCODING 7809
SWIDTH 878 0
DWIDTH 21 0
BBX 20 17 3 0
BITMAP
03C000
00E000
007000
000000
F0F0F0
F0F0E0
F1F1E0
F1F1C0
F3FBC0
F3FB80
F77F80
F77F00
FE7F00
FE7E00
FC7E00
FC7C00
F87C00
ENDCHAR
STARTCHAR Wacute
ENCODING 7810
SWIDTH 991 0
DWIDTH 24 0
BBX 22 21 4 0
BITMAP
001E00
003800
00E000
000000
F0781C
F07838
F07838
F0F870
F0F870
F1F8E0
F9F8E0
FBF9C0
FBF9C0
FB7B80
7F7B80
7F7F80
7E7F00
7E7F00
7C7E00
7C7E00
787C00
ENDCHAR
STARTCHAR wacute
ENCODING 7811
SWIDTH 878 0
DWIDTH 21 0
BBX 20 17 3 0
BITMAP
003C00
007000
01C000
000000
F0F0F0
F0F0E0
F1F1E0
F1F1C0
F3FBC0
F3FB80
F77F80
F77F00
FE7F00
FE7E00
FC7E00
FC7C00
F87C00
ENDCHAR
STARTCHAR Wdieresis
ENCODING 7812
SWIDTH 991 0
DWIDTH 24 0
BBX 22 21 4 0
BITMAP
039C00
039C00
039C00
000000
F0781C
F07838
F07838
F0F870
F0F870
F1F8E0
F9F8E0
FBF9C0
FBF9C0
FB7B80
7F7B80
7F7F80
7E7F00
7E7F00
7C7E00
7C7E00
787C00
ENDCHAR
STARTCHAR wdieresis
ENCODING 7813
SWIDTH 878 0
DWIDTH 21 0
BBX 20 17 3 0
BITMAP
039C00
039C00
039C00
000000
F0F0F0
F0F0E0
F1F1E0
F1F1C0
F3FBC0
F3FB80
F77F80
F77F00
FE7F00
FE7E00
FC7E00
FC7C00
F87C00
ENDCHAR
STARTCHAR uni1E86
ENCODING 7814
SWIDTH 991 0
DWIDTH 24 0
BBX 22 21 4 0
BITMAP
003800
007800
007000
000000
F0781C
F07838
F07838
F0F870
F0F870
F1F8E0
F9F8E0
FBF9C0
FBF9C0
FB7B80
7F7B80
7F7F80
7E7F00
7E7F00
7C7E00
7C7E00
787C00
ENDCHAR
STARTCHAR uni1E87
ENCODING 7815
SWIDTH 878 0
DWIDTH 21 0
BBX 20 17 3 0
BITMAP
007000
00F000
00E000
000000
F0F0F0
F0F0E0
F1F1E0
F1F1C0
F3FBC0
F3FB80
F77F80
F77F00
FE7F00
FE7E00
FC7E00
FC7C00
F87C00
ENDCHAR
STARTCHAR uni1E88
ENCODING 7816
SWIDTH 991 0
DWIDTH 24 0
BBX 22 21 4 -4
BITMAP
F0781C
F07838
F07838
F0F870
F0F870
F1F8E0
F9F8E0
FBF9C0
FBF9C0
FB7B80
7F7B80
7F7F80
7E7F00
7E7F00
7C7E00
7C7E00
787C00
000000
00E000
01E000
01C000
ENDCHAR
STARTCHAR uni1E89
ENCODING 7817
SWIDTH 878 0
DWIDTH 21 0
BBX 20 17 3 -4
BITMAP
F0F0F0
F0F0E0
F1F1E0
F1F1C0
F3FBC0
F3FB80
F77F80
F77F00
FE7F00
FE7E00
FC7E00
FC7C00
F87C00
000000
01C000
03C000
038000
ENDCHAR
STARTCHAR uni1E8A
ENCODING 7818
SWIDTH 696 0
DWIDTH 17 0
BBX 19 21 0 0
BITMAP
003800
007800
007000
000000
0F81E0
0F83C0
07C780
07CF00
03FE00
03FC00
03F800
01F800
01F000
03F800
03F800
077800
0F7C00
1E7C00
3C3E00
783E00
F03F00
ENDCHAR
STARTCHAR uni1E8B
ENCODING 7819
SWIDTH 563 0
DWIDTH 14 0
BBX 15 17 0 0
BITMAP
01C0
03C0
0380
0000
1F1E
1F3C
0F78
0FF0
07E0
07E0
07C0
0FC0
0FE0
1FE0
3DF0
79F0
F0F8
ENDCHAR
STARTCHAR uni1E8C
ENCODING 7820
SWIDTH 696 0
DWIDTH 17 0
BBX 19 21 0 0
BITMAP
039C00
039C00
039C00
000000
0F81E0
0F83C0
07C780
07CF00
03FE00
03FC00
03F800
01F800
01F000
03F800
03F800
077800
0F7C00
1E7C00
3C3E00
783E00
F03F00
ENDCHAR
STARTCHAR uni1E8D
ENCODING 7821
SWIDTH 563 0
DWIDTH 14 0
BBX 15 17 0 0
BITMAP
0E70
0E70
0E70
0000
1F1E
1F3C
0F78
0FF0
07E0
07E0
07C0
0FC0
0FE0
1FE0
3DF0
79F0
F0F8
ENDCHAR
STARTCHAR uni1E8E
ENCODING 7822
SWIDTH 681 0
DWIDTH 16 0
BBX 15 21 4 0
BITMAP
0380
0780
0700
0000
F81E
F83C
7878
7C70
3CF0
3FE0
3FC0
1F80
1F80
1F00
1F00
1E00
1E00
1E00
3E00
3E00
3C00
ENDCHAR
STARTCHAR uni1E8F
ENCODING 7823
SWIDTH 633 0
DWIDTH 15 0
BBX 17 22 1 -5
BITMAP
00E000
01E000
01C000
000000
3E0780
3E0700
3E0E00
1E1E00
1F1C00
1F3800
1F7800
1F7000
0FE000
0FE000
0FC000
0F8000
0F8000
0F0000
1E0000
3E0000
7C0000
F80000
ENDCHAR
STARTCHAR uni1E90
ENCODING 7824
SWIDTH 687 0
DWIDTH 16 0
BBX 17 21 1 0
BITMAP
007800
00FC00
038E00
000000
0FFF80
0FFF80
0FFF80
003F00
007E00
00FC00
01F800
01F000
03E000
07E000
0FC000
1F8000
3F0000
7E0000
7FFC00
FFFC00
FFFC00
ENDCHAR
STARTCHAR uni1E91
ENCODING 7825
SWIDTH 630 0
DWIDTH 15 0
BBX 15 17 1 0
BITMAP
01E0
03F0
0E38
0000
1FFE
1FFE
3FFC
00FC
01F0
03E0
07C0
0F80
1F00
7E00
7FFC
FFF8
FFF8
ENDCHAR
STARTCHAR uni1E92
ENCODING 7826
SWIDTH 687 0
DWIDTH 16 0
BBX 17 21 1 -4
BITMAP
0FFF80
0FFF80
0FFF80
003F00
007E00
00FC00
01F800
01F000
03E000
07E000
0FC000
1F8000
3F0000
7E0000
7FFC00
FFFC00
FFFC00
000000
038000
078000
070000
ENDCHAR
STARTCHAR uni1E93
ENCODING 7827
SWIDTH 630 0
DWIDTH 15 0
BBX 15 17 1 -4
BITMAP
1FFE
1FFE
3FFC
00FC
01F0
03E0
07C0
0F80
1F00
7E00
7FFC
FFF8
FFF8
0000
0700
0F00
0E00
ENDCHAR
STARTCHAR uni1E94
ENCODING 7828
SWIDTH 687 0
DWIDTH 16 0
BBX 17 21 1 -4
BITMAP
0FFF80
0FFF80
0FFF80
003F00
007E00
00FC00
01F800
01F000
03E000
07E000
0FC000
1F8000
3F0000
7E0000
7FFC00
FFFC00
FFFC00
000000
1FE000
1FE000
1FE000
ENDCHAR
STARTCHAR uni1E95
ENCODING 7829
SWIDTH 630 0
DWIDTH 15 0
BBX 15 17 1 -4
BITMAP
1FFE
1FFE
3FFC
00FC
01F0
03E0
07C0
0F80
1F00
7E00
7FFC
FFF8
FFF8
0000
1FE0
1FE0
1FE0
ENDCHAR
STARTCHAR uni1E96
ENCODING 7830
SWIDTH 675 0
DWIDTH 16 0
BBX 15 22 2 -4
BITMAP
0F00
1F00
1F00
1F00
1F00
1E1C
3E7E
3EFE
3EFE
3DBE
3F3C
7E3C
7C7C
7C7C
787C
7878
F878
F8F8
0000
1FE0
1FE0
1FE0
ENDCHAR
STARTCHAR uni1E97
ENCODING 7831
SWIDTH 437 0
DWIDTH 10 0
BBX 9 20 3 0
BITMAP
7380
7380
7380
0000
0E00
3E00
3E00
FF80
FF80
FF80
7C00
7C00
7C00
7800
7800
F800
F800
FF00
FE00
7E00
ENDCHAR
STARTCHAR uni1E98
ENCODING 7832
SWIDTH 878 0
DWIDTH 21 0
BBX 20 18 3 0
BITMAP
006000
009000
009000
006000
000000
F0F0F0
F0F0E0
F1F1E0
F1F1C0
F3FBC0
F3FB80
F77F80
F77F00
FE7F00
FE7E00
FC7E00
FC7C00
F87C00
ENDCHAR
STARTCHAR uni1E99
ENCODING 7833
SWIDTH 633 0
DWIDTH 15 0
BBX 17 23 1 -5
BITMAP
00C000
012000
012000
00C000
000000
3E0780
3E0700
3E0E00
1E1E00
1F1C00
1F3800
1F7800
1F7000
0FE000
0FE000
0FC000
0F8000
0F8000
0F0000
1E0000
3E0000
7C0000
F80000
ENDCHAR
STARTCHAR uni1EA0
ENCODING 7840
SWIDTH 771 0
DWIDTH 18 0
BBX 17 21 1 -4
BITMAP
007C00
00FC00
00FC00
01FC00
01FE00
03FE00
039E00
079E00
071E00
0E1F00
0FFF00
1FFF00
3FFF00
380F00
780F80
700F80
F00780
000000
00E000
01E000
01C000
ENDCHAR
STARTCHAR uni1EA1
ENCODING 7841
SWIDTH 681 0
DWIDTH 16 0
BBX 15 17 2 -4
BITMAP
03FE
07FE
1FFE
3E3C
3C3C
7C7C
787C
F8FC
F9F8
FB78
FE78
FCF8
78F8
0000
0380
0780
0700
ENDCHAR
STARTCHAR uni1EA4
ENCODING 7844
SWIDTH 771 0
DWIDTH 18 0
BBX 17 25 1 0
BITMAP
000F00
001C00
007000
000000
001E00
003F00
00E380
000000
007C00
00FC00
00FC00
01FC00
01FE00
03FE00
039E00
079E00
071E00
0E1F00
0FFF00
1FFF00
3FFF00
380F00
780F80
700F80
F00780
ENDCHAR
STARTCHAR uni1EA5
ENCODING 7845
SWIDTH 681 0
DWIDTH 16 0
BBX 15 21 2 0
BITMAP
003C
0070
01C0
0000
00F0
01F8
071C
0000
03FE
07FE
1FFE
3E3C
3C3C
7C7C
787C
F8FC
F9F8
FB78
FE78
FCF8
78F8
ENDCHAR
STARTCHAR uni1EA6
ENCODING 7846
SWIDTH 771 0
DWIDTH 18 0
BBX 17 25 1 0
BITMAP
01E000
007000
003800
000000
001E00
003F00
00E380
000000
007C00
00FC00
00FC00
01FC00
01FE00
03FE00
039E00
079E00
071E00
0E1F00
0FFF00
1FFF00
3FFF00
380F00
780F80
700F80
F00780
ENDCHAR
STARTCHAR uni1EA7
ENCODING 7847
SWIDTH 681 0
DWIDTH 16 0
BBX 15 21 2 0
BITMAP
0780
01C0
00E0
0000
00F0
01F8
071C
0000
03FE
07FE
1FFE
3E3C
3C3C
7C7C
787C
F8FC
F9F8
FB78
FE78
FCF8
78F8
ENDCHAR
STARTCHAR uni1EAA
ENCODING 7850
SWIDTH 771 0
DWIDTH 18 0
BBX 17 25 1 0
BITMAP
007700
00FE00
01DE00
000000
001E00
003F00
00E380
000000
007C00
00FC00
00FC00
01FC00
01FE00
03FE00
039E00
079E00
071E00
0E1F00
0FFF00
1FFF00
3FFF00
380F00
780F80
700F80
F00780
ENDCHAR
STARTCHAR uni1EAB
ENCODING 7851
SWIDTH 681 0
DWIDTH 16 0
BBX 15 21 2 0
BITMAP
01DC
03F8
0778
0000
00F0
01F8
071C
0000
03FE
07FE
1FFE
3E3C
3C3C
7C7C
787C
F8FC
F9F8
FB78
FE78
FCF8
78F8
ENDCHAR
STARTCHAR uni1EAC
ENCODING 7852
SWIDTH 771 0
DWIDTH 18 0
BBX 17 25 1 -4
BITMAP
007800
00FC00
038E00
000000
007C00
00FC00
00FC00
01FC00
01FE00
03FE00
039E00
079E00
071E00
0E1F00
0FFF00
1FFF00
3FFF00
380F00
780F80
700F80
F00780
000000
00E000
01E000
01C000
ENDCHAR
STARTCHAR uni1EAD
ENCODING 7853
SWIDTH 681 0
DWIDTH 16 0
BBX 15 21 2 -4
BITMAP
01E0
03F0
0E38
0000
03FE
07FE
1FFE
3E3C
3C3C
7C7C
787C
F8FC
F9F8
FB78
FE78
FCF8
78F8
0000
0380
0780
0700
ENDCHAR
STARTCHAR uni1EAE
ENCODING 7854
SWIDTH 771 0
DWIDTH 18 0
BBX 17 25 1 0
BITMAP
001E00
003800
00E000
000000
038E00
03FC00
01F000
000000
007C00
00FC00
00FC00
01FC00
01FE00
03FE00
039E00
079E00
071E00
0E1F00
0FFF00
1FFF00
3FFF00
380F00
780F80
700F80
F00780
ENDCHAR
STARTCHAR uni1EAF
ENCODING 7855
SWIDTH 681 0
DWIDTH 16 0
BBX 15 21 2 0
BITMAP
003C
0070
01C0
0000
071C
07F8
03E0
0000
03FE
07FE
1FFE
3E3C
3C3C
7C7C
787C
F8FC
F9F8
FB78
FE78
FCF8
78F8
ENDCHAR
STARTCHAR uni1EB0
ENCODING 7856
SWIDTH 771 0
DWIDTH 18 0
BBX 17 25 1 0
BITMAP
03C000
00E000
007000
000000
038E00
03FC00
01F000
000000
007C00
00FC00
00FC00
01FC00
01FE00
03FE00
039E00
079E00
071E00
0E1F00
0FFF00
1FFF00
3FFF00
380F00
780F80
700F80
F00780
ENDCHAR
STARTCHAR uni1EB1
ENCODING 7857
SWIDTH 681 0
DWIDTH 16 0
BBX 15 21 2 0
BITMAP
0780
01C0
00E0
0000
071C
07F8
03E0
0000
03FE
07FE
1FFE
3E3C
3C3C
7C7C
787C
F8FC
F9F8
FB78
FE78
FCF8
78F8
ENDCHAR
STARTCHAR uni1EB4
ENCODING 7860
SWIDTH 771 0
DWIDTH 18 0
BBX 17 25 1 0
BITMAP
00EE00
01FC00
03BC00
000000
038E00
03FC00
01F000
000000
007C00
00FC00
00FC00
01FC00
01FE00
03FE00
039E00
079E00
071E00
0E1F00
0FFF00
1FFF00
3FFF00
380F00
780F80
700F80
F00780
ENDCHAR
STARTCHAR uni1EB5
ENCODING 7861
SWIDTH 681 0
DWIDTH 16 0
BBX 15 21 2 0
BITMAP
01DC
03F8
0778
0000
071C
07F8
03E0
0000
03FE
07FE
1FFE
3E3C
3C3C
7C7C
787C
F8FC
F9F8
FB78
FE78
FCF8
78F8
ENDCHAR
STARTCHAR uni1EB6
ENCODING 7862
SWIDTH 771 0
DWIDTH 18 0
BBX 17 25 1 -4
BITMAP
038E00
03FC00
01F000
000000
007C00
00FC00
00FC00
01FC00
01FE00
03FE00
039E00
079E00
071E00
0E1F00
0FFF00
1FFF00
3FFF00
380F00
780F80
700F80
F00780
000000
00E000
01E000
01C000
ENDCHAR
STARTCHAR uni1EB7
ENCODING 7863
SWIDTH 681 0
DWIDTH 16 0
BBX 15 21 2 -4
BITMAP
071C
07F8
03E0
0000
03FE
07FE
1FFE
3E3C
3C3C
7C7C
787C
F8FC
F9F8
FB78
FE78
FCF8
78F8
0000
0380
0780
0700
ENDCHAR
STARTCHAR uni1EB8
ENCODING 7864
SWIDTH 642 0
DWIDTH 15 0
BBX 15 21 2 -4
BITMAP
1FFE
1FFE
1FFE
1E00
1E00
3E00
3E00
3FF0
3FF0
3FF0
7C00
7C00
7800
7800
7FF8
FFF0
FFF0
0000
0700
0F00
0E00
ENDCHAR
STARTCHAR uni1EB9
ENCODING 7865
SWIDTH 612 0
DWIDTH 15 0
BBX 13 17 2 -4
BITMAP
03E0
0FF0
1FF8
3C78
78F0
7FF0
FFC0
FF00
F808
F838
FFF8
7FF0
1F80
0000
0700
0F00
0E00
ENDCHAR
STARTCHAR uni1EBC
ENCODING 7868
SWIDTH 642 0
DWIDTH 15 0
BBX 15 21 2 0
BITMAP
03B8
07F0
0EF0
0000
1FFE
1FFE
1FFE
1E00
1E00
3E00
3E00
3FF0
3FF0
3FF0
7C00
7C00
7800
7800
7FF8
FFF0
FFF0
ENDCHAR
STARTCHAR uni1EBD
ENCODING 7869
SWIDTH 612 0
DWIDTH 15 0
BBX 13 17 2 0
BITMAP
0770
0FE0
1DE0
0000
03E0
0FF0
1FF8
3C78
78F0
7FF0
FFC0
FF00
F808
F838
FFF8
7FF0
1F80
ENDCHAR
STARTCHAR uni1EBE
ENCODING 7870
SWIDTH 642 0
DWIDTH 15 0
BBX 15 25 2 0
BITMAP
003C
0070
01C0
0000
00F0
01F8
071C
0000
1FFE
1FFE
1FFE
1E00
1E00
3E00
3E00
3FF0
3FF0
3FF0
7C00
7C00
7800
7800
7FF8
FFF0
FFF0
ENDCHAR
STARTCHAR uni1EBF
ENCODING 7871
SWIDTH 612 0
DWIDTH 15 0
BBX 14 21 2 0
BITMAP
003C
0070
01C0
0000
00F0
01F8
071C
0000
03E0
0FF0
1FF8
3C78
78F0
7FF0
FFC0
FF00
F808
F838
FFF8
7FF0
1F80
ENDCHAR
STARTCHAR uni1EC0
ENCODING 7872
SWIDTH 642 0
DWIDTH 15 0
BBX 15 25 2 0
BITMAP
0780
01C0
00E0
0000
00F0
01F8
071C
0000
1FFE
1FFE
1FFE
1E00
1E00
3E00
3E00
3FF0
3FF0
3FF0
7C00
7C00
7800
7800
7FF8
FFF0
FFF0
ENDCHAR
STARTCHAR uni1EC1
ENCODING 7873
SWIDTH 612 0
DWIDTH 15 0
BBX 14 21 2 0
BITMAP
0780
01C0
00E0
0000
00F0
01F8
071C
0000
03E0
0FF0
1FF8
3C78
78F0
7FF0
FFC0
FF00
F808
F838
FFF8
7FF0
1F80
ENDCHAR
STARTCHAR uni1EC4
ENCODING 7876
SWIDTH 642 0
DWIDTH 15 0
BBX 15 25 2 0
BITMAP
01DC
03F8
0778
0000
00F0
01F8
071C
0000
1FFE
1FFE
1FFE
1E00
1E00
3E00
3E00
3FF0
3FF0
3FF0
7C00
7C00
7800
7800
7FF8
FFF0
FFF0
ENDCHAR
STARTCHAR uni1EC5
ENCODING 7877
SWIDTH 612 0
DWIDTH 15 0
BBX 14 21 2 0
BITMAP
03B8
07F0
0EF0
0000
00F0
01F8
071C
0000
03E0
0FF0
1FF8
3C78
78F0
7FF0
FFC0
FF00
F808
F838
FFF8
7FF0
1F80
ENDCHAR
STARTCHAR uni1EC6
ENCODING 7878
SWIDTH 642 0
DWIDTH 15 0
BBX 15 25 2 -4
BITMAP
03C0
07E0
1C70
0000
1FFE
1FFE
1FFE
1E00
1E00
3E00
3E00
3FF0
3FF0
3FF0
7C00
7C00
7800
7800
7FF8
FFF0
FFF0
0000
0700
0F00
0E00
ENDCHAR
STARTCHAR uni1EC7
ENCODING 7879
SWIDTH 612 0
DWIDTH 15 0
BBX 13 21 2 -4
BITMAP
03C0
07E0
1C70
0000
03E0
0FF0
1FF8
3C78
78F0
7FF0
FFC0
FF00
F808
F838
FFF8
7FF0
1F80
0000
0700
0F00
0E00
ENDCHAR
STARTCHAR uni1ECA
ENCODING 7882
SWIDTH 361 0
DWIDTH 9 0
BBX 8 21 2 -4
BITMAP
1F
1F
1E
1E
1E
3E
3E
3C
3C
3C
7C
7C
78
78
78
F8
F8
00
38
78
70
ENDCHAR
STARTCHAR uni1ECB
ENCODING 7883
SWIDTH 343 0
DWIDTH 8 0
BBX 8 22 2 -4
BITMAP
1F
1F
1F
1E
00
3E
3E
3C
3C
3C
7C
7C
78
78
78
F8
F8
F8
00
38
78
70
ENDCHAR
STARTCHAR uni1ECC
ENCODING 7884
SWIDTH 855 0
DWIDTH 21 0
BBX 19 21 2 -4
BITMAP
00FE00
03FF80
0FFFC0
1F87E0
3E03E0
3C03E0
7C03E0
7803E0
F803E0
F803E0
F807C0
F807C0
F80F80
7C3F00
7FFE00
3FF800
0FE000
000000
01C000
03C000
038000
ENDCHAR
STARTCHAR uni1ECD
ENCODING 7885
SWIDTH 663 0
DWIDTH 16 0
BBX 15 17 2 -4
BITMAP
03F0
0FFC
1FFC
3E7E
7C3E
783E
F83C
F83C
F878
F8F8
FFF0
7FE0
1F00
0000
0700
0F00
0E00
ENDCHAR
STARTCHAR uni1ED0
ENCODING 7888
SWIDTH 855 0
DWIDTH 21 0
BBX 19 25 2 0
BITMAP
000F00
001C00
007000
000000
003C00
007E00
01C700
000000
00FE00
03FF80
0FFFC0
1F87E0
3E03E0
3C03E0
7C03E0
7803E0
F803E0
F803E0
F807C0
F807C0
F80F80
7C3F00
7FFE00
3FF800
0FE000
ENDCHAR
STARTCHAR uni1ED1
ENCODING 7889
SWIDTH 663 0
DWIDTH 16 0
BBX 15 21 2 0
BITMAP
003C
0070
01C0
0000
00F0
01F8
071C
0000
03F0
0FFC
1FFC
3E7E
7C3E
783E
F83C
F83C
F878
F8F8
FFF0
7FE0
1F00
ENDCHAR
STARTCHAR uni1ED2
ENCODING 7890
SWIDTH 855 0
DWIDTH 21 0
BBX 19 25 2 0
BITMAP
01E000
007000
003800
000000
003C00
007E00
01C700
000000
00FE00
03FF80
0FFFC0
1F87E0
3E03E0
3C03E0
7C03E0
7803E0
F803E0
F803E0
F807C0
F807C0
F80F80
7C3F00
7FFE00
3FF800
0FE000
ENDCHAR
STARTCHAR uni1ED3
ENCODING 7891
SWIDTH 663 0
DWIDTH 16 0
BBX 15 21 2 0
BITMAP
0780
01C0
00E0
0000
00F0
01F8
071C
0000
03F0
0FFC
1FFC
3E7E
7C3E
783E
F83C
F83C
F878
F8F8
FFF0
7FE0
1F00
ENDCHAR
STARTCHAR uni1ED6
ENCODING 7894
SWIDTH 855 0
DWIDTH 21 0
BBX 19 25 2 0
BITMAP
007700
00FE00
01DE00
000000
003C00
007E00
01C700
000000
00FE00
03FF80
0FFFC0
1F87E0
3E03E0
3C03E0
7C03E0
7803E0
F803E0
F803E0
F807C0
F807C0
F80F80
7C3F00
7FFE00
3FF800
0FE000
ENDCHAR
STARTCHAR uni1ED7
ENCODING 7895
SWIDTH 663 0
DWIDTH 16 0
BBX 15 21 2 0
BITMAP
01DC
03F8
0778
0000
00F0
01F8
071C
0000
03F0
0FFC
1FFC
3E7E
7C3E
783E
F83C
F83C
F878
F8F8
FFF0
7FE0
1F00
ENDCHAR
STARTCHAR uni1ED8
ENCODING 7896
SWIDTH 855 0
DWIDTH 21 0
BBX 19 25 2 -4
BITMAP
007800
00FC00
038E00
000000
00FE00
03FF80
0FFFC0
1F87E0
3E03E0
3C03E0
7C03E0
7803E0
F803E0
F803E0
F807C0
F807C0
F80F80
7C3F00
7FFE00
3FF800
0FE000
000000
01C000
03C000
038000
ENDCHAR
STARTCHAR uni1ED9
ENCODING 7897
SWIDTH 663 0
DWIDTH 16 0
BBX 15 21 2 -4
BITMAP
01E0
03F0
0E38
0000
03F0
0FFC
1FFC
3E7E
7C3E
783E
F83C
F83C
F878
F8F8
FFF0
7FE0
1F00
0000
0700
0F00
0E00
ENDCHAR
STARTCHAR uni1EDA
ENCODING 7898
SWIDTH 855 0
DWIDTH 21 0
BBX 23 21 2 0
BITMAP
0003C0
000700
001C00
000000
00FE3E
03FFBE
0FFFFE
1F87FC
3E03FC
3C03FC
7C03F8
7803F0
F803E0
F803E0
F807C0
F807C0
F80F80
7C3F00
7FFE00
3FF800
0FE000
ENDCHAR
STARTCHAR uni1EDB
ENCODING 7899
SWIDTH 663 0
DWIDTH 16 0
BBX 20 17 2 0
BITMAP
000F00
001C00
007000
000000
03F1F0
0FFDF0
1FFDF0
3E7FE0
7C3FE0
783EE0
F83FC0
F83F80
F87800
F8F800
FFF000
7FE000
1F0000
ENDCHAR
STARTCHAR uni1EDC
ENCODING 7900
SWIDTH 855 0
DWIDTH 21 0
BBX 23 21 2 0
BITMAP
007800
001C00
000E00
000000
00FE3E
03FFBE
0FFFFE
1F87FC
3E03FC
3C03FC
7C03F8
7803F0
F803E0
F803E0
F807C0
F807C0
F80F80
7C3F00
7FFE00
3FF800
0FE000
ENDCHAR
STARTCHAR uni1EDD
ENCODING 7901
SWIDTH 663 0
DWIDTH 16 0
BBX 20 17 2 0
BITMAP
01E000
007000
003800
000000
03F1F0
0FFDF0
1FFDF0
3E7FE0
7C3FE0
783EE0
F83FC0
F83F80
F87800
F8F800
FFF000
7FE000
1F0000
ENDCHAR
STARTCHAR uni1EE0
ENCODING 7904
SWIDTH 855 0
DWIDTH 21 0
BBX 23 21 2 0
BITMAP
001DC0
003F80
007780
000000
00FE3E
03FFBE
0FFFFE
1F87FC
3E03FC
3C03FC
7C03F8
7803F0
F803E0
F803E0
F807C0
F807C0
F80F80
7C3F00
7FFE00
3FF800
0FE000
ENDCHAR
STARTCHAR uni1EE1
ENCODING 7905
SWIDTH 663 0
DWIDTH 16 0
BBX 20 17 2 0
BITMAP
007700
00FE00
01DE00
000000
03F1F0
0FFDF0
1FFDF0
3E7FE0
7C3FE0
783EE0
F83FC0
F83F80
F87800
F8F800
FFF000
7FE000
1F0000
ENDCHAR
STARTCHAR uni1EE2
ENCODING 7906
SWIDTH 855 0
DWIDTH 21 0
BBX 23 21 2 -4
BITMAP
00FE3E
03FFBE
0FFFFE
1F87FC
3E03FC
3C03FC
7C03F8
7803F0
F803E0
F803E0
F807C0
F807C0
F80F80
7C3F00
7FFE00
3FF800
0FE000
000000
00E000
01E000
01C000
ENDCHAR
STARTCHAR uni1EE3
ENCODING 7907
SWIDTH 663 0
DWIDTH 16 0
BBX 20 17 2 -4
BITMAP
03F1F0
0FFDF0
1FFDF0
3E7FE0
7C3FE0
783EE0
F83FC0
F83F80
F87800
F8F800
FFF000
7FE000
1F0000
000000
038000
078000
070000
ENDCHAR
STARTCHAR uni1EE4
ENCODING 7908
SWIDTH 759 0
DWIDTH 18 0
BBX 17 21 3 -4
BITMAP
3E0780
3E0780
3C0F80
3C0F00
7C0F00
7C0F00
7C0F00
781F00
781E00
F81E00
F81E00
F81E00
F83C00
FC7C00
7FF800
3FF000
0FC000
000000
038000
078000
070000
ENDCHAR
STARTCHAR uni1EE5
ENCODING 7909
SWIDTH 675 0
DWIDTH 16 0
BBX 15 17 2 -4
BITMAP
3E3E
3C3E
3C3C
7C3C
7C7C
7C7C
78FC
79F8
FB78
FE78
FEF8
FCF8
70F0
0000
0700
0F00
0E00
ENDCHAR
STARTCHAR uni1EE8
ENCODING 7912
SWIDTH 759 0
DWIDTH 18 0
BBX 21 21 3 0
BITMAP
000F00
001C00
007000
000000
3E07F8
3E07F8
3C0FF8
3C0FF0
7C0FF0
7C0F70
7C0FE0
781FC0
781E00
F81E00
F81E00
F81E00
F83C00
FC7C00
7FF800
3FF000
0FC000
ENDCHAR
STARTCHAR uni1EE9
ENCODING 7913
SWIDTH 675 0
DWIDTH 16 0
BBX 20 17 2 0
BITMAP
000F00
001C00
007000
000000
3E3FF0
3C3FF0
3C3DF0
7C3DE0
7C7DE0
7C7CE0
78FFC0
79FB80
FB7800
FE7800
FEF800
FCF800
70F000
ENDCHAR
STARTCHAR uni1EEA
ENCODING 7914
SWIDTH 759 0
DWIDTH 18 0
BBX 21 21 3 0
BITMAP
00F000
003800
001C00
000000
3E07F8
3E07F8
3C0FF8
3C0FF0
7C0FF0
7C0F70
7C0FE0
781FC0
781E00
F81E00
F81E00
F81E00
F83C00
FC7C00
7FF800
3FF000
0FC000
ENDCHAR
STARTCHAR uni1EEB
ENCODING 7915
SWIDTH 675 0
DWIDTH 16 0
BBX 20 17 2 0
BITMAP
01E000
007000
003800
000000
3E3FF0
3C3FF0
3C3DF0
7C3DE0
7C7DE0
7C7CE0
78FFC0
79FB80
FB7800
FE7800
FEF800
FCF800
70F000
ENDCHAR
STARTCHAR uni1EEE
ENCODING 7918
SWIDTH 759 0
DWIDTH 18 0
BBX 21 21 3 0
BITMAP
007700
00FE00
01DE00
000000
3E07F8
3E07F8
3C0FF8
3C0FF0
7C0FF0
7C0F70
7C0FE0
781FC0
781E00
F81E00
F81E00
F81E00
F83C00
FC7C00
7FF800
3FF000
0FC000
ENDCHAR
STARTCHAR uni1EEF
ENCODING 7919
SWIDTH 675 0
DWIDTH 16 0
BBX 20 17 2 0
BITMAP
007700
00FE00
01DE00
000000
3E3FF0
3C3FF0
3C3DF0
7C3DE0
7C7DE0
7C7CE0
78FFC0
79FB80
FB7800
FE7800
FEF800
FCF800
70F000
ENDCHAR
STARTCHAR uni1EF0
ENCODING 7920
SWIDTH 759 0
DWIDTH 18 0
BBX 21 21 3 -4
BITMAP
3E07F8
3E07F8
3C0FF8
3C0FF0
7C0FF0
7C0F70
7C0FE0
781FC0
781E00
F81E00
F81E00
F81E00
F83C00
FC7C00
7FF800
3FF000
0FC000
000000
01C000
03C000
038000
ENDCHAR
STARTCHAR uni1EF1
ENCODING 7921
SWIDTH 675 0
DWIDTH 16 0
BBX 20 17 2 -4
BITMAP
3E3FF0
3C3FF0
3C3DF0
7C3DE0
7C7DE0
7C7CE0
78FFC0
79FB80
FB7800
FE7800
FEF800
FCF800
70F000
000000
038000
078000
070000
ENDCHAR
STARTCHAR Ygrave
ENCODING 7922
SWIDTH 681 0
DWIDTH 16 0
BBX 15 21 4 0
BITMAP
1E00
0700
0380
0000
F81E
F83C
7878
7C70
3CF0
3FE0
3FC0
1F80
1F80
1F00
1F00
1E00
1E00
1E00
3E00
3E00
3C00
ENDCHAR
STARTCHAR ygrave
ENCODING 7923
SWIDTH 633 0
DWIDTH 15 0
BBX 17 22 1 -5
BITMAP
078000
01C000
00E000
000000
3E0780
3E0700
3E0E00
1E1E00
1F1C00
1F3800
1F7800
1F7000
0FE000
0FE000
0FC000
0F8000
0F8000
0F0000
1E0000
3E0000
7C0000
F80000
ENDCHAR
STARTCHAR uni1EF4
ENCODING 7924
SWIDTH 681 0
DWIDTH 16 0
BBX 15 21 4 -4
BITMAP
F81E
F83C
7878
7C70
3CF0
3FE0
3FC0
1F80
1F80
1F00
1F00
1E00
1E00
1E00
3E00
3E00
3C00
0000
0E00
1E00
1C00
ENDCHAR
STARTCHAR uni1EF5
ENCODING 7925
SWIDTH 633 0
DWIDTH 15 0
BBX 17 22 1 -9
BITMAP
3E0780
3E0700
3E0E00
1E1E00
1F1C00
1F3800
1F7800
1F7000
0FE000
0FE000
0FC000
0F8000
0F8000
0F0000
1E0000
3E0000
7C0000
F80000
000000
0E0000
1E0000
1C0000
ENDCHAR
STARTCHAR uni1EF8
ENCODING 7928
SWIDTH 681 0
DWIDTH 16 0
BBX 15 21 4 0
BITMAP
0770
0FE0
1DE0
0000
F81E
F83C
7878
7C70
3CF0
3FE0
3FC0
1F80
1F80
1F00
1F00
1E00
1E00
1E00
3E00
3E00
3C00
ENDCHAR
STARTCHAR uni1EF9
ENCODING 7929
SWIDTH 633 0
DWIDTH 15 0
BBX 17 22 1 -5
BITMAP
03B800
07F000
0EF000
000000
3E0780
3E0700
3E0E00
1E1E00
1F1C00
1F3800
1F7800
1F7000
0FE000
0FE000
0FC000
0F8000
0F8000
0F0000
1E0000
3E0000
7C0000
F80000
ENDCHAR
STARTCHAR uni2000
ENCODING 8192
SWIDTH 500 0
DWIDTH 13 0
BBX 1 1 0 0
BITMAP
00
ENDCHAR
STARTCHAR uni2001
ENCODING 8193
SWIDTH 1000 0
DWIDTH 25 0
BBX 1 1 0 0
BITMAP
00
ENDCHAR
STARTCHAR uni2002
ENCODING 8194
SWIDTH 500 0
DWIDTH 13 0
BBX 1 1 0 0
BITMAP
00
ENDCHAR
STARTCHAR uni2003
ENCODING 8195
SWIDTH 1000 0
DWIDTH 25 0
BBX 1 1 0 0
BITMAP
00
ENDCHAR
STARTCHAR uni2004
ENCODING 8196
SWIDTH 333 0
DWIDTH 8 0
BBX 1 1 0 0
BITMAP
00
ENDCHAR
STARTCHAR uni2005
ENCODING 8197
SWIDTH 250 0
DWIDTH 6 0
BBX 1 1 0 0
BITMAP
00
ENDCHAR
STARTCHAR uni2006
ENCODING 8198
SWIDTH 167 0
DWIDTH 4 0
BBX 1 1 0 0
BITMAP
00
ENDCHAR
STARTCHAR uni2007
ENCODING 8199
SWIDTH 687 0
DWIDTH 16 0
BBX 1 1 0 0
BITMAP
00
ENDCHAR
STARTCHAR uni2008
ENCODING 8200
SWIDTH 343 0
DWIDTH 8 0
BBX 1 1 0 0
BITMAP
00
ENDCHAR
STARTCHAR uni2009
ENCODING 8201
SWIDTH 200 0
DWIDTH 5 0
BBX 1 1 0 0
BITMAP
00
ENDCHAR
STARTCHAR uni200A
ENCODING 8202
SWIDTH 100 0
DWIDTH 3 0
BBX 1 1 0 0
BITMAP
00
ENDCHAR
STARTCHAR uni200B
ENCODING 8203
SWIDTH 0 0
DWIDTH 0 0
BBX 1 1 0 0
BITMAP
00
ENDCHAR
STARTCHAR uni2010
ENCODING 8208
SWIDTH 289 0
DWIDTH 7 0
BBX 6 3 2 6
BITMAP
FC
FC
FC
ENDCHAR
STARTCHAR uni2011
ENCODING 8209
SWIDTH 289 0
DWIDTH 7 0
BBX 6 3 2 6
BITMAP
FC
FC
FC
ENDCHAR
STARTCHAR figuredash
ENCODING 8210
SWIDTH 500 0
DWIDTH 12 0
BBX 11 3 2 6
BITMAP
FFE0
FFE0
FFE0
ENDCHAR
STARTCHAR endash
ENCODING 8211
SWIDTH 500 0
DWIDTH 12 0
BBX 11 3 2 6
BITMAP
FFE0
FFE0
FFE0
ENDCHAR
STARTCHAR emdash
ENCODING 8212
SWIDTH 1000 0
DWIDTH 24 0
BBX 23 2 2 6
BITMAP
FFFFFE
FFFFFE
ENDCHAR
STARTCHAR afii00208
ENCODING 8213
SWIDTH 1000 0
DWIDTH 24 0
BBX 23 2 2 6
BITMAP
FFFFFE
FFFFFE
ENDCHAR
STARTCHAR quoteleft
ENCODING 8216
SWIDTH 265 0
DWIDTH 6 0
BBX 6 8 3 10
BITMAP
0C
3C
3C
70
78
78
F8
F8
ENDCHAR
STARTCHAR quoteright
ENCODING 8217
SWIDTH 265 0
DWIDTH 6 0
BBX 6 8 3 10
BITMAP
7C
7C
7C
78
78
38
F0
E0
ENDCHAR
STARTCHAR quotesinglbase
ENCODING 8218
SWIDTH 265 0
DWIDTH 6 0
BBX 6 9 0 -4
BITMAP
7C
7C
7C
78
78
38
38
F0
E0
ENDCHAR
STARTCHAR quotereversed
ENCODING 8219
SWIDTH 265 0
DWIDTH 6 0
BBX 6 8 3 10
BITMAP
F8
F8
F8
78
78
70
3C
1C
ENDCHAR
STARTCHAR quotedblleft
ENCODING 8220
SWIDTH 530 0
DWIDTH 13 0
BBX 13 8 3 10
BITMAP
0418
1C78
3CF8
70E0
7DF0
79F0
F9F0
F9E0
ENDCHAR
STARTCHAR quotedblright
ENCODING 8221
SWIDTH 530 0
DWIDTH 13 0
BBX 13 8 3 10
BITMAP
3CF8
7CF8
7CF8
7DF0
3870
3870
F1E0
E1C0
ENDCHAR
STARTCHAR quotedblbase
ENCODING 8222
SWIDTH 530 0
DWIDTH 13 0
BBX 13 9 0 -4
BITMAP
3CF8
7CF8
7CF8
7CF0
7DF0
3870
38E0
F1E0
E180
ENDCHAR
STARTCHAR uni201F
ENCODING 8223
SWIDTH 530 0
DWIDTH 13 0
BBX 13 8 3 10
BITMAP
F9E0
F9F0
F9F0
7DF0
70E0
70E0
3C78
1C38
ENDCHAR
STARTCHAR dagger
ENCODING 8224
SWIDTH 687 0
DWIDTH 16 0
BBX 13 21 4 -4
BITMAP
07C0
07C0
07C0
0780
0780
0780
7FF8
FFF8
FFF0
0F00
0F00
0F00
1F00
1E00
1E00
1E00
3E00
3E00
3E00
3C00
7C00
ENDCHAR
STARTCHAR daggerdbl
ENCODING 8225
SWIDTH 687 0
DWIDTH 16 0
BBX 14 21 3 -4
BITMAP
01E0
01E0
03E0
03C0
03C0
3FFC
3FFC
7FF8
0780
0780
0780
0780
7FF8
FFF0
FFF0
0F00
0F00
1F00
1F00
1E00
1E00
ENDCHAR
STARTCHAR bullet
ENCODING 8226
SWIDTH 687 0
DWIDTH 16 0
BBX 11 9 4 3
BITMAP
3FE0
3FE0
7FC0
7FC0
7FC0
7FC0
7FC0
FF80
FF80
ENDCHAR
STARTCHAR ellipsis
ENCODING 8230
SWIDTH 1000 0
DWIDTH 24 0
BBX 19 3 3 0
BITMAP
E0E0E0
E0E0E0
E0E0E0
ENDCHAR
STARTCHAR perthousand
ENCODING 8240
SWIDTH 1332 0
DWIDTH 32 0
BBX 30 17 3 0
BITMAP
1F00F000
7F81C000
7F838000
F3870000
F78E0000
FF9C0000
FF380000
3C700000
00F7C0F0
01EFE3F8
03DFF7FC
079EF7BC
0F1CF73C
1E1CE73C
3C1FE7F8
381FC7F0
F00F83E0
ENDCHAR
STARTCHAR guilsinglleft
ENCODING 8249
SWIDTH 386 0
DWIDTH 9 0
BBX 8 11 2 1
BITMAP
02
0F
1F
3E
7C
F8
78
78
3C
1C
08
ENDCHAR
STARTCHAR guilsinglright
ENCODING 8250
SWIDTH 386 0
DWIDTH 9 0
BBX 8 11 2 1
BITMAP
10
38
3C
1E
1E
1F
3E
7C
F8
F0
40
ENDCHAR
STARTCHAR fraction
ENCODING 8260
SWIDTH 130 0
DWIDTH 3 0
BBX 20 17 -6 0
BITMAP
0000F0
0001E0
0003C0
000780
000F00
001E00
003C00
007800
00F000
01E000
03C000
078000
0F0000
1E0000
3C0000
780000
F00000
ENDCHAR
STARTCHAR oneinferior
ENCODING 8321
SWIDTH 539 0
DWIDTH 10 0
BBX 5 10 -17 -5
BITMAP
F8
F8
30
70
70
70
70
60
E0
E0
ENDCHAR
STARTCHAR twoinferior
ENCODING 8322
SWIDTH 539 0
DWIDTH 10 0
BBX 9 10 -14 -5
BITMAP
1F00
3F80
2380
0380
0700
1E00
3800
7000
FF00
FF00
ENDCHAR
STARTCHAR threeinferior
ENCODING 8323
SWIDTH 539 0
DWIDTH 10 0
BBX 9 10 -15 -5
BITMAP
3F00
3F80
0380
0300
3C00
3F00
0300
8700
FF00
FC00
ENDCHAR
STARTCHAR uni20A5
ENCODING 8357
SWIDTH 991 0
DWIDTH 24 0
BBX 22 22 2 -4
BITMAP
0000F0
0001E0
0001C0
0003C0
000780
3E3F78
3CFFFC
3DFFFC
3DFFFC
3F7F7C
7F7F7C
7E7E78
7CFC78
7CFC78
79F8F8
FBF8F8
FBF0F0
F7F0F0
0F0000
0E0000
1E0000
3C0000
ENDCHAR
STARTCHAR uni20A6
ENCODING 8358
SWIDTH 789 0
DWIDTH 19 0
BBX 18 17 2 0
BITMAP
1E03C0
1F03C0
1F03C0
1F8380
3FFF80
3FFF80
3FFF80
3BE780
39E700
79F700
7FFF00
7FFF00
7FFF00
707E00
F03E00
F03E00
F01E00
ENDCHAR
STARTCHAR uni20A9
ENCODING 8361
SWIDTH 991 0
DWIDTH 24 0
BBX 22 17 4 0
BITMAP
F0781C
F07838
F07838
F0F870
F3FFF0
F7FFE0
FFFFE0
FBF9C0
FBF9C0
FB7B80
7FFFC0
7FFFC0
7FFF80
7E7F00
7C7E00
7C7E00
787C00
ENDCHAR
STARTCHAR Euro
ENCODING 8364
SWIDTH 737 0
DWIDTH 18 0
BBX 21 17 -2 0
BITMAP
000FF0
003FF8
00FFF8
01F810
3FFE00
7FFE00
7FFE00
078000
0F8000
0F8000
FFFC00
FFFC00
FFF800
07E060
07FFC0
03FFC0
00FF00
ENDCHAR
STARTCHAR uni20AD
ENCODING 8365
SWIDTH 753 0
DWIDTH 18 0
BBX 16 17 2 0
BITMAP
1F0F
1F1E
1E3C
1E38
3E78
3EF0
3FE0
FFFF
FFFF
FFFF
7DF0
7DF0
78F8
78FC
F87C
F83E
F83F
ENDCHAR
STARTCHAR uni2103
ENCODING 8451
SWIDTH 966 0
DWIDTH 24 0
BBX 21 17 4 0
BITMAP
600FF0
903FF8
90FFF8
61F810
03F000
03E000
07C000
078000
0F8000
0F8000
0F8000
0F8000
0FC000
07E060
07FFC0
03FFC0
00FF00
ENDCHAR
STARTCHAR uni2109
ENCODING 8457
SWIDTH 843 0
DWIDTH 21 0
BBX 19 17 4 0
BITMAP
61FFE0
91FFE0
91FFC0
61E000
01E000
03E000
03E000
03FF00
03FF00
03FF00
07C000
07C000
078000
078000
078000
0F8000
0F8000
ENDCHAR
STARTCHAR trademark
ENCODING 8482
SWIDTH 901 0
DWIDTH 22 0
BBX 21 9 3 8
BITMAP
FFFCF8
FFBCF8
FFBFF8
3C3FF0
3C3FF0
3C7FF0
3C7EF0
3C7EF0
7861E0
ENDCHAR
STARTCHAR uni212A
ENCODING 8490
SWIDTH 753 0
DWIDTH 18 0
BBX 16 17 2 0
BITMAP
1F0F
1F1E
1E3C
1E38
3E78
3EF0
3FE0
3DC0
3FE0
7FE0
7DF0
7DF0
78F8
78FC
F87C
F83E
F83F
ENDCHAR
STARTCHAR uni212B
ENCODING 8491
SWIDTH 771 0
DWIDTH 18 0
BBX 17 22 1 0
BITMAP
000C00
001200
001200
000C00
000000
007C00
00FC00
00FC00
01FC00
01FE00
03FE00
039E00
079E00
071E00
0E1F00
0FFF00
1FFF00
3FFF00
380F00
780F80
700F80
F00780
ENDCHAR
STARTCHAR uni2132
ENCODING 8498
SWIDTH 614 0
DWIDTH 15 0
BBX 15 17 2 0
BITMAP
003E
003E
003C
003C
003C
007C
007C
1FF8
1FF8
1FF8
00F8
00F8
00F0
00F0
7FF0
FFF0
FFF0
ENDCHAR
STARTCHAR minus
ENCODING 8722
SWIDTH 687 0
DWIDTH 16 0
BBX 14 3 3 6
BITMAP
FFFC
FFFC
FFFC
ENDCHAR
STARTCHAR fraction
ENCODING 8725
SWIDTH 130 0
DWIDTH 3 0
BBX 20 17 -6 0
BITMAP
0000F0
0001E0
0003C0
000780
000F00
001E00
003C00
007800
00F000
01E000
03C000
078000
0F0000
1E0000
3C0000
780000
F00000
ENDCHAR
STARTCHAR periodcentered
ENCODING 8729
SWIDTH 343 0
DWIDTH 16 0
BBX 4 3 8 6
BITMAP
70
F0
E0
ENDCHAR
STARTCHAR uni2236
ENCODING 8758
SWIDTH 343 0
DWIDTH 8 0
BBX 7 13 2 0
BITMAP
3E
3E
3E
3C
3C
00
00
00
78
78
F8
F8
F8
ENDCHAR
STARTCHAR uni2259
ENCODING 8793
SWIDTH 687 0
DWIDTH 16 0
BBX 15 13 2 2
BITMAP
03C0
07E0
1C70
0000
3FFE
7FFE
7FFE
0000
0000
0000
FFFC
FFFC
FFF8
ENDCHAR
STARTCHAR uni225A
ENCODING 8794
SWIDTH 687 0
DWIDTH 16 0
BBX 15 13 2 2
BITMAP
1C70
0FC0
0780
0000
3FFE
7FFE
7FFE
0000
0000
0000
FFFC
FFFC
FFF8
ENDCHAR
STARTCHAR notequal
ENCODING 8800
SWIDTH 687 0
DWIDTH 16 0
BBX 18 22 1 -4
BITMAP
0003C0
000780
000700
000F00
001E00
001C00
003C00
1FFF00
3FFF00
3FFF00
00E000
01C000
03C000
7FFE00
7FFE00
7FFC00
0E0000
1E0000
3C0000
380000
780000
F00000
ENDCHAR
STARTCHAR equivalence
ENCODING 8801
SWIDTH 687 0
DWIDTH 16 0
BBX 15 11 0 1
BITMAP
FFFE
FFFE
FFFE
0000
FFFE
FFFE
FFFE
0000
FFFE
FFFE
FFFE
ENDCHAR
STARTCHAR uni2262
ENCODING 8802
SWIDTH 687 0
DWIDTH 16 0
BBX 18 22 -1 -4
BITMAP
0003C0
000780
000700
000F00
001E00
001C00
7FFF00
7FFF00
7FFF00
00F000
7FFF00
7FFF00
7FFF00
038000
7FFF00
7FFF00
7FFF00
1E0000
3C0000
380000
780000
F00000
ENDCHAR
STARTCHAR lessequal
ENCODING 8804
SWIDTH 687 0
DWIDTH 16 0
BBX 15 18 3 -4
BITMAP
0002
000E
003E
01FC
07F0
1F80
FE00
7C00
1F00
0FC0
03E0
00F8
0038
0010
0000
FFFE
FFFE
FFFE
ENDCHAR
STARTCHAR greaterequal
ENCODING 8805
SWIDTH 687 0
DWIDTH 16 0
BBX 15 18 1 -4
BITMAP
1000
3800
3E00
0F80
07E0
01F0
007C
00FE
03F0
1FC0
7F00
F800
E000
8000
0000
FFFE
FFFE
FFFE
ENDCHAR
STARTCHAR uni226E
ENCODING 8814
SWIDTH 687 0
DWIDTH 16 0
BBX 18 22 2 -4
BITMAP
0003C0
000780
000700
000F00
001F00
001F00
003F00
00FE00
03F800
0FF000
7FE000
3FC000
0FC000
07E000
07F000
0F7C00
0E1C00
1E0800
3C0000
380000
780000
F00000
ENDCHAR
STARTCHAR uni226F
ENCODING 8815
SWIDTH 687 0
DWIDTH 16 0
BBX 18 22 0 -4
BITMAP
0003C0
000780
000700
000F00
081E00
1C1C00
1F3C00
07F800
03F000
00F800
00FE00
01FF00
03F800
0FE000
3F8000
7F0000
7E0000
5E0000
3C0000
380000
780000
F00000
ENDCHAR
STARTCHAR uni2270
ENCODING 8816
SWIDTH 687 0
DWIDTH 16 0
BBX 18 22 2 -6
BITMAP
0003C0
000780
000700
000F00
001F00
00FE00
03FC00
0FF800
7F7000
3EF000
0FE000
07E000
03F000
03FC00
071C00
0F0800
0E0000
7FFF00
7FFF00
7FFF00
780000
F00000
ENDCHAR
STARTCHAR uni2271
ENCODING 8817
SWIDTH 687 0
DWIDTH 16 0
BBX 18 22 0 -6
BITMAP
0003C0
000780
080700
1C0F00
1F1E00
07DC00
03FC00
00F800
007E00
00FF00
01F800
0FE000
3FC000
7F8000
770000
4F0000
0E0000
7FFF00
7FFF00
7FFF00
780000
F00000
ENDCHAR
STARTCHAR fi
ENCODING -1
SWIDTH 695 0
DWIDTH 17 0
BBX 16 23 1 -5
BITMAP
00F8
03FC
07FC
0F88
0F00
3FFF
3FFF
7FFF
1E1E
1E1E
3E3E
3E3E
3E3E
3C3C
3C3C
7C7C
7C7C
7C7C
7800
7800
F800
F800
F800
ENDCHAR
STARTCHAR fl
ENCODING -1
SWIDTH 695 0
DWIDTH 17 0
BBX 17 23 1 -5
BITMAP
00FF80
03FF80
07FF00
0F8F00
0F0F00
3FDF00
3FDF00
7FDE00
1E1E00
1E1E00
3E3E00
3E3E00
3E3C00
3C3C00
3C3C00
7C7C00
7C7C00
7C7800
780000
780000
F80000
F80000
F80000
ENDCHAR
ENDFONT
